M48
INCH,TZ
T1C0.0157
T2C0.0374
T3C0.0551
T4C0.0906
%
G90
G05
T1
X30236Y-25472
X30236Y-27441
X30236Y-29409
X30236Y-31378
X33465Y-22087
X33504Y-35039
X33543Y-24764
X33819Y-33425
X34331Y-27441
X34961Y-25039
X35000Y-30512
X35394Y-25039
X35433Y-22087
X35433Y-28071
X35472Y-35039
X35906Y-25157
X35906Y-26693
X35984Y-29016
X36299Y-24213
X36299Y-25039
X36471Y-31142
X36496Y-26654
X36575Y-29488
X37047Y-26575
X37244Y-23307
X37402Y-22087
X37402Y-30157
X37402Y-31142
X37441Y-35039
X37571Y-33006
X37638Y-23307
X38386Y-27953
X38386Y-28937
X38661Y-26535
X38673Y-33557
X38819Y-30276
X38819Y-31142
X39173Y-25118
X39252Y-23622
X39331Y-26535
X39370Y-22087
X39370Y-27953
X39370Y-28937
X39409Y-35039
X39498Y-26063
X39921Y-30748
X40000Y-31850
X40123Y-31137
X40271Y-33587
X40276Y-34419
X40354Y-26260
X40630Y-25276
X40630Y-33425
X41142Y-25669
X41142Y-29213
X41339Y-22087
X41339Y-26850
X41378Y-35039
X41457Y-33465
X41811Y-31929
X41929Y-33976
X42165Y-31142
X42165Y-33465
X42441Y-24291
X42598Y-31811
X42707Y-27717
X42795Y-30039
X42835Y-28386
X43307Y-22087
X43307Y-27165
X43307Y-28031
X43346Y-35039
X43386Y-29843
X43780Y-30354
X43898Y-34094
X44055Y-23189
X44528Y-28228
X44528Y-28898
X44961Y-31496
X45276Y-22087
X45315Y-35039
X48425Y-25551
X48425Y-27520
X48425Y-29488
X48425Y-31457
T2
X33980Y-28051
X33980Y-29035
X34768Y-28051
X34768Y-29035
T3
X45757Y-26543
X45757Y-28543
X45757Y-30543
T4
X32913Y-26181
X32913Y-30906
T0
M30
