%TF.GenerationSoftware,KiCad,Pcbnew,(6.0.0)*%
%TF.CreationDate,2022-06-11T23:43:57+12:00*%
%TF.ProjectId,Canmaster_HW,43616e6d-6173-4746-9572-5f48572e6b69,rev?*%
%TF.SameCoordinates,Original*%
%TF.FileFunction,Legend,Top*%
%TF.FilePolarity,Positive*%
%FSLAX46Y46*%
G04 Gerber Fmt 4.6, Leading zero omitted, Abs format (unit mm)*
G04 Created by KiCad (PCBNEW (6.0.0)) date 2022-06-11 23:43:57*
%MOMM*%
%LPD*%
G01*
G04 APERTURE LIST*
%ADD10C,0.200000*%
%ADD11C,0.120000*%
%ADD12C,0.150000*%
G04 APERTURE END LIST*
D10*
X108904761Y-61223809D02*
X108904761Y-60080952D01*
X110904761Y-60652380D02*
X108904761Y-60652380D01*
X108904761Y-59604761D02*
X110904761Y-58271428D01*
X108904761Y-58271428D02*
X110904761Y-59604761D01*
X111004761Y-87133333D02*
X110052380Y-87800000D01*
X111004761Y-88276190D02*
X109004761Y-88276190D01*
X109004761Y-87514285D01*
X109100000Y-87323809D01*
X109195238Y-87228571D01*
X109385714Y-87133333D01*
X109671428Y-87133333D01*
X109861904Y-87228571D01*
X109957142Y-87323809D01*
X110052380Y-87514285D01*
X110052380Y-88276190D01*
X109004761Y-86466666D02*
X111004761Y-85133333D01*
X109004761Y-85133333D02*
X111004761Y-86466666D01*
X96878571Y-62814285D02*
X96878571Y-61957142D01*
X98378571Y-62385714D02*
X96878571Y-62385714D01*
X97592857Y-61457142D02*
X97592857Y-60957142D01*
X98378571Y-60742857D02*
X98378571Y-61457142D01*
X96878571Y-61457142D01*
X96878571Y-60742857D01*
X98378571Y-59242857D02*
X97664285Y-59742857D01*
X98378571Y-60100000D02*
X96878571Y-60100000D01*
X96878571Y-59528571D01*
X96950000Y-59385714D01*
X97021428Y-59314285D01*
X97164285Y-59242857D01*
X97378571Y-59242857D01*
X97521428Y-59314285D01*
X97592857Y-59385714D01*
X97664285Y-59528571D01*
X97664285Y-60100000D01*
X98378571Y-58600000D02*
X96878571Y-58600000D01*
X97950000Y-58100000D01*
X96878571Y-57600000D01*
X98378571Y-57600000D01*
D11*
%TO.C,U4*%
X102128571Y-79189285D02*
X102128571Y-79796428D01*
X102164285Y-79867857D01*
X102200000Y-79903571D01*
X102271428Y-79939285D01*
X102414285Y-79939285D01*
X102485714Y-79903571D01*
X102521428Y-79867857D01*
X102557142Y-79796428D01*
X102557142Y-79189285D01*
X103235714Y-79439285D02*
X103235714Y-79939285D01*
X103057142Y-79153571D02*
X102878571Y-79689285D01*
X103342857Y-79689285D01*
%TO.C,J1*%
X89410714Y-65250000D02*
X88875000Y-65250000D01*
X88767857Y-65214285D01*
X88696428Y-65142857D01*
X88660714Y-65035714D01*
X88660714Y-64964285D01*
X88660714Y-66000000D02*
X88660714Y-65571428D01*
X88660714Y-65785714D02*
X89410714Y-65785714D01*
X89303571Y-65714285D01*
X89232142Y-65642857D01*
X89196428Y-65571428D01*
%TO.C,C8*%
X98375000Y-67667857D02*
X98339285Y-67703571D01*
X98232142Y-67739285D01*
X98160714Y-67739285D01*
X98053571Y-67703571D01*
X97982142Y-67632142D01*
X97946428Y-67560714D01*
X97910714Y-67417857D01*
X97910714Y-67310714D01*
X97946428Y-67167857D01*
X97982142Y-67096428D01*
X98053571Y-67025000D01*
X98160714Y-66989285D01*
X98232142Y-66989285D01*
X98339285Y-67025000D01*
X98375000Y-67060714D01*
X98803571Y-67310714D02*
X98732142Y-67275000D01*
X98696428Y-67239285D01*
X98660714Y-67167857D01*
X98660714Y-67132142D01*
X98696428Y-67060714D01*
X98732142Y-67025000D01*
X98803571Y-66989285D01*
X98946428Y-66989285D01*
X99017857Y-67025000D01*
X99053571Y-67060714D01*
X99089285Y-67132142D01*
X99089285Y-67167857D01*
X99053571Y-67239285D01*
X99017857Y-67275000D01*
X98946428Y-67310714D01*
X98803571Y-67310714D01*
X98732142Y-67346428D01*
X98696428Y-67382142D01*
X98660714Y-67453571D01*
X98660714Y-67596428D01*
X98696428Y-67667857D01*
X98732142Y-67703571D01*
X98803571Y-67739285D01*
X98946428Y-67739285D01*
X99017857Y-67703571D01*
X99053571Y-67667857D01*
X99089285Y-67596428D01*
X99089285Y-67453571D01*
X99053571Y-67382142D01*
X99017857Y-67346428D01*
X98946428Y-67310714D01*
%TO.C,U3*%
X100828571Y-67089285D02*
X100828571Y-67696428D01*
X100864285Y-67767857D01*
X100900000Y-67803571D01*
X100971428Y-67839285D01*
X101114285Y-67839285D01*
X101185714Y-67803571D01*
X101221428Y-67767857D01*
X101257142Y-67696428D01*
X101257142Y-67089285D01*
X101542857Y-67089285D02*
X102007142Y-67089285D01*
X101757142Y-67375000D01*
X101864285Y-67375000D01*
X101935714Y-67410714D01*
X101971428Y-67446428D01*
X102007142Y-67517857D01*
X102007142Y-67696428D01*
X101971428Y-67767857D01*
X101935714Y-67803571D01*
X101864285Y-67839285D01*
X101650000Y-67839285D01*
X101578571Y-67803571D01*
X101542857Y-67767857D01*
%TO.C,U2*%
X91089285Y-59171428D02*
X91696428Y-59171428D01*
X91767857Y-59135714D01*
X91803571Y-59100000D01*
X91839285Y-59028571D01*
X91839285Y-58885714D01*
X91803571Y-58814285D01*
X91767857Y-58778571D01*
X91696428Y-58742857D01*
X91089285Y-58742857D01*
X91160714Y-58421428D02*
X91125000Y-58385714D01*
X91089285Y-58314285D01*
X91089285Y-58135714D01*
X91125000Y-58064285D01*
X91160714Y-58028571D01*
X91232142Y-57992857D01*
X91303571Y-57992857D01*
X91410714Y-58028571D01*
X91839285Y-58457142D01*
X91839285Y-57992857D01*
%TO.C,C6*%
X92767857Y-75725000D02*
X92803571Y-75760714D01*
X92839285Y-75867857D01*
X92839285Y-75939285D01*
X92803571Y-76046428D01*
X92732142Y-76117857D01*
X92660714Y-76153571D01*
X92517857Y-76189285D01*
X92410714Y-76189285D01*
X92267857Y-76153571D01*
X92196428Y-76117857D01*
X92125000Y-76046428D01*
X92089285Y-75939285D01*
X92089285Y-75867857D01*
X92125000Y-75760714D01*
X92160714Y-75725000D01*
X92089285Y-75082142D02*
X92089285Y-75225000D01*
X92125000Y-75296428D01*
X92160714Y-75332142D01*
X92267857Y-75403571D01*
X92410714Y-75439285D01*
X92696428Y-75439285D01*
X92767857Y-75403571D01*
X92803571Y-75367857D01*
X92839285Y-75296428D01*
X92839285Y-75153571D01*
X92803571Y-75082142D01*
X92767857Y-75046428D01*
X92696428Y-75010714D01*
X92517857Y-75010714D01*
X92446428Y-75046428D01*
X92410714Y-75082142D01*
X92375000Y-75153571D01*
X92375000Y-75296428D01*
X92410714Y-75367857D01*
X92446428Y-75403571D01*
X92517857Y-75439285D01*
%TO.C,R5*%
X103075000Y-59239285D02*
X102825000Y-58882142D01*
X102646428Y-59239285D02*
X102646428Y-58489285D01*
X102932142Y-58489285D01*
X103003571Y-58525000D01*
X103039285Y-58560714D01*
X103075000Y-58632142D01*
X103075000Y-58739285D01*
X103039285Y-58810714D01*
X103003571Y-58846428D01*
X102932142Y-58882142D01*
X102646428Y-58882142D01*
X103753571Y-58489285D02*
X103396428Y-58489285D01*
X103360714Y-58846428D01*
X103396428Y-58810714D01*
X103467857Y-58775000D01*
X103646428Y-58775000D01*
X103717857Y-58810714D01*
X103753571Y-58846428D01*
X103789285Y-58917857D01*
X103789285Y-59096428D01*
X103753571Y-59167857D01*
X103717857Y-59203571D01*
X103646428Y-59239285D01*
X103467857Y-59239285D01*
X103396428Y-59203571D01*
X103360714Y-59167857D01*
%TO.C,R9*%
X115475000Y-85439285D02*
X115225000Y-85082142D01*
X115046428Y-85439285D02*
X115046428Y-84689285D01*
X115332142Y-84689285D01*
X115403571Y-84725000D01*
X115439285Y-84760714D01*
X115475000Y-84832142D01*
X115475000Y-84939285D01*
X115439285Y-85010714D01*
X115403571Y-85046428D01*
X115332142Y-85082142D01*
X115046428Y-85082142D01*
X115832142Y-85439285D02*
X115975000Y-85439285D01*
X116046428Y-85403571D01*
X116082142Y-85367857D01*
X116153571Y-85260714D01*
X116189285Y-85117857D01*
X116189285Y-84832142D01*
X116153571Y-84760714D01*
X116117857Y-84725000D01*
X116046428Y-84689285D01*
X115903571Y-84689285D01*
X115832142Y-84725000D01*
X115796428Y-84760714D01*
X115760714Y-84832142D01*
X115760714Y-85010714D01*
X115796428Y-85082142D01*
X115832142Y-85117857D01*
X115903571Y-85153571D01*
X116046428Y-85153571D01*
X116117857Y-85117857D01*
X116153571Y-85082142D01*
X116189285Y-85010714D01*
%TO.C,C2*%
X106375000Y-77867857D02*
X106339285Y-77903571D01*
X106232142Y-77939285D01*
X106160714Y-77939285D01*
X106053571Y-77903571D01*
X105982142Y-77832142D01*
X105946428Y-77760714D01*
X105910714Y-77617857D01*
X105910714Y-77510714D01*
X105946428Y-77367857D01*
X105982142Y-77296428D01*
X106053571Y-77225000D01*
X106160714Y-77189285D01*
X106232142Y-77189285D01*
X106339285Y-77225000D01*
X106375000Y-77260714D01*
X106660714Y-77260714D02*
X106696428Y-77225000D01*
X106767857Y-77189285D01*
X106946428Y-77189285D01*
X107017857Y-77225000D01*
X107053571Y-77260714D01*
X107089285Y-77332142D01*
X107089285Y-77403571D01*
X107053571Y-77510714D01*
X106625000Y-77939285D01*
X107089285Y-77939285D01*
%TO.C,R6*%
X102875000Y-60939285D02*
X102625000Y-60582142D01*
X102446428Y-60939285D02*
X102446428Y-60189285D01*
X102732142Y-60189285D01*
X102803571Y-60225000D01*
X102839285Y-60260714D01*
X102875000Y-60332142D01*
X102875000Y-60439285D01*
X102839285Y-60510714D01*
X102803571Y-60546428D01*
X102732142Y-60582142D01*
X102446428Y-60582142D01*
X103517857Y-60189285D02*
X103375000Y-60189285D01*
X103303571Y-60225000D01*
X103267857Y-60260714D01*
X103196428Y-60367857D01*
X103160714Y-60510714D01*
X103160714Y-60796428D01*
X103196428Y-60867857D01*
X103232142Y-60903571D01*
X103303571Y-60939285D01*
X103446428Y-60939285D01*
X103517857Y-60903571D01*
X103553571Y-60867857D01*
X103589285Y-60796428D01*
X103589285Y-60617857D01*
X103553571Y-60546428D01*
X103517857Y-60510714D01*
X103446428Y-60475000D01*
X103303571Y-60475000D01*
X103232142Y-60510714D01*
X103196428Y-60546428D01*
X103160714Y-60617857D01*
%TO.C,C7*%
X99675000Y-77267857D02*
X99639285Y-77303571D01*
X99532142Y-77339285D01*
X99460714Y-77339285D01*
X99353571Y-77303571D01*
X99282142Y-77232142D01*
X99246428Y-77160714D01*
X99210714Y-77017857D01*
X99210714Y-76910714D01*
X99246428Y-76767857D01*
X99282142Y-76696428D01*
X99353571Y-76625000D01*
X99460714Y-76589285D01*
X99532142Y-76589285D01*
X99639285Y-76625000D01*
X99675000Y-76660714D01*
X99925000Y-76589285D02*
X100425000Y-76589285D01*
X100103571Y-77339285D01*
%TO.C,DS1*%
X112689285Y-57939285D02*
X112689285Y-57189285D01*
X112867857Y-57189285D01*
X112975000Y-57225000D01*
X113046428Y-57296428D01*
X113082142Y-57367857D01*
X113117857Y-57510714D01*
X113117857Y-57617857D01*
X113082142Y-57760714D01*
X113046428Y-57832142D01*
X112975000Y-57903571D01*
X112867857Y-57939285D01*
X112689285Y-57939285D01*
X113403571Y-57903571D02*
X113510714Y-57939285D01*
X113689285Y-57939285D01*
X113760714Y-57903571D01*
X113796428Y-57867857D01*
X113832142Y-57796428D01*
X113832142Y-57725000D01*
X113796428Y-57653571D01*
X113760714Y-57617857D01*
X113689285Y-57582142D01*
X113546428Y-57546428D01*
X113475000Y-57510714D01*
X113439285Y-57475000D01*
X113403571Y-57403571D01*
X113403571Y-57332142D01*
X113439285Y-57260714D01*
X113475000Y-57225000D01*
X113546428Y-57189285D01*
X113725000Y-57189285D01*
X113832142Y-57225000D01*
X114546428Y-57939285D02*
X114117857Y-57939285D01*
X114332142Y-57939285D02*
X114332142Y-57189285D01*
X114260714Y-57296428D01*
X114189285Y-57367857D01*
X114117857Y-57403571D01*
%TO.C,U1*%
X91228571Y-68589285D02*
X91228571Y-69196428D01*
X91264285Y-69267857D01*
X91300000Y-69303571D01*
X91371428Y-69339285D01*
X91514285Y-69339285D01*
X91585714Y-69303571D01*
X91621428Y-69267857D01*
X91657142Y-69196428D01*
X91657142Y-68589285D01*
X92407142Y-69339285D02*
X91978571Y-69339285D01*
X92192857Y-69339285D02*
X92192857Y-68589285D01*
X92121428Y-68696428D01*
X92050000Y-68767857D01*
X91978571Y-68803571D01*
%TO.C,R2*%
X113575000Y-62239285D02*
X113325000Y-61882142D01*
X113146428Y-62239285D02*
X113146428Y-61489285D01*
X113432142Y-61489285D01*
X113503571Y-61525000D01*
X113539285Y-61560714D01*
X113575000Y-61632142D01*
X113575000Y-61739285D01*
X113539285Y-61810714D01*
X113503571Y-61846428D01*
X113432142Y-61882142D01*
X113146428Y-61882142D01*
X113860714Y-61560714D02*
X113896428Y-61525000D01*
X113967857Y-61489285D01*
X114146428Y-61489285D01*
X114217857Y-61525000D01*
X114253571Y-61560714D01*
X114289285Y-61632142D01*
X114289285Y-61703571D01*
X114253571Y-61810714D01*
X113825000Y-62239285D01*
X114289285Y-62239285D01*
%TO.C,R1*%
X93505000Y-87174285D02*
X93255000Y-86817142D01*
X93076428Y-87174285D02*
X93076428Y-86424285D01*
X93362142Y-86424285D01*
X93433571Y-86460000D01*
X93469285Y-86495714D01*
X93505000Y-86567142D01*
X93505000Y-86674285D01*
X93469285Y-86745714D01*
X93433571Y-86781428D01*
X93362142Y-86817142D01*
X93076428Y-86817142D01*
X94219285Y-87174285D02*
X93790714Y-87174285D01*
X94005000Y-87174285D02*
X94005000Y-86424285D01*
X93933571Y-86531428D01*
X93862142Y-86602857D01*
X93790714Y-86638571D01*
%TO.C,C3*%
X106375000Y-69367857D02*
X106339285Y-69403571D01*
X106232142Y-69439285D01*
X106160714Y-69439285D01*
X106053571Y-69403571D01*
X105982142Y-69332142D01*
X105946428Y-69260714D01*
X105910714Y-69117857D01*
X105910714Y-69010714D01*
X105946428Y-68867857D01*
X105982142Y-68796428D01*
X106053571Y-68725000D01*
X106160714Y-68689285D01*
X106232142Y-68689285D01*
X106339285Y-68725000D01*
X106375000Y-68760714D01*
X106625000Y-68689285D02*
X107089285Y-68689285D01*
X106839285Y-68975000D01*
X106946428Y-68975000D01*
X107017857Y-69010714D01*
X107053571Y-69046428D01*
X107089285Y-69117857D01*
X107089285Y-69296428D01*
X107053571Y-69367857D01*
X107017857Y-69403571D01*
X106946428Y-69439285D01*
X106732142Y-69439285D01*
X106660714Y-69403571D01*
X106625000Y-69367857D01*
%TO.C,Y1*%
X103842857Y-73282142D02*
X103842857Y-73639285D01*
X103592857Y-72889285D02*
X103842857Y-73282142D01*
X104092857Y-72889285D01*
X104735714Y-73639285D02*
X104307142Y-73639285D01*
X104521428Y-73639285D02*
X104521428Y-72889285D01*
X104450000Y-72996428D01*
X104378571Y-73067857D01*
X104307142Y-73103571D01*
%TO.C,R7*%
X112075000Y-64539285D02*
X111825000Y-64182142D01*
X111646428Y-64539285D02*
X111646428Y-63789285D01*
X111932142Y-63789285D01*
X112003571Y-63825000D01*
X112039285Y-63860714D01*
X112075000Y-63932142D01*
X112075000Y-64039285D01*
X112039285Y-64110714D01*
X112003571Y-64146428D01*
X111932142Y-64182142D01*
X111646428Y-64182142D01*
X112325000Y-63789285D02*
X112825000Y-63789285D01*
X112503571Y-64539285D01*
%TO.C,C10*%
X101667857Y-82282142D02*
X101703571Y-82317857D01*
X101739285Y-82425000D01*
X101739285Y-82496428D01*
X101703571Y-82603571D01*
X101632142Y-82675000D01*
X101560714Y-82710714D01*
X101417857Y-82746428D01*
X101310714Y-82746428D01*
X101167857Y-82710714D01*
X101096428Y-82675000D01*
X101025000Y-82603571D01*
X100989285Y-82496428D01*
X100989285Y-82425000D01*
X101025000Y-82317857D01*
X101060714Y-82282142D01*
X101739285Y-81567857D02*
X101739285Y-81996428D01*
X101739285Y-81782142D02*
X100989285Y-81782142D01*
X101096428Y-81853571D01*
X101167857Y-81925000D01*
X101203571Y-81996428D01*
X100989285Y-81103571D02*
X100989285Y-81032142D01*
X101025000Y-80960714D01*
X101060714Y-80925000D01*
X101132142Y-80889285D01*
X101275000Y-80853571D01*
X101453571Y-80853571D01*
X101596428Y-80889285D01*
X101667857Y-80925000D01*
X101703571Y-80960714D01*
X101739285Y-81032142D01*
X101739285Y-81103571D01*
X101703571Y-81175000D01*
X101667857Y-81210714D01*
X101596428Y-81246428D01*
X101453571Y-81282142D01*
X101275000Y-81282142D01*
X101132142Y-81246428D01*
X101060714Y-81210714D01*
X101025000Y-81175000D01*
X100989285Y-81103571D01*
%TO.C,J3*%
X112789285Y-80850000D02*
X113325000Y-80850000D01*
X113432142Y-80885714D01*
X113503571Y-80957142D01*
X113539285Y-81064285D01*
X113539285Y-81135714D01*
X112789285Y-80564285D02*
X112789285Y-80100000D01*
X113075000Y-80350000D01*
X113075000Y-80242857D01*
X113110714Y-80171428D01*
X113146428Y-80135714D01*
X113217857Y-80100000D01*
X113396428Y-80100000D01*
X113467857Y-80135714D01*
X113503571Y-80171428D01*
X113539285Y-80242857D01*
X113539285Y-80457142D01*
X113503571Y-80528571D01*
X113467857Y-80564285D01*
%TO.C,DS3*%
X99489285Y-60739285D02*
X99489285Y-59989285D01*
X99667857Y-59989285D01*
X99775000Y-60025000D01*
X99846428Y-60096428D01*
X99882142Y-60167857D01*
X99917857Y-60310714D01*
X99917857Y-60417857D01*
X99882142Y-60560714D01*
X99846428Y-60632142D01*
X99775000Y-60703571D01*
X99667857Y-60739285D01*
X99489285Y-60739285D01*
X100203571Y-60703571D02*
X100310714Y-60739285D01*
X100489285Y-60739285D01*
X100560714Y-60703571D01*
X100596428Y-60667857D01*
X100632142Y-60596428D01*
X100632142Y-60525000D01*
X100596428Y-60453571D01*
X100560714Y-60417857D01*
X100489285Y-60382142D01*
X100346428Y-60346428D01*
X100275000Y-60310714D01*
X100239285Y-60275000D01*
X100203571Y-60203571D01*
X100203571Y-60132142D01*
X100239285Y-60060714D01*
X100275000Y-60025000D01*
X100346428Y-59989285D01*
X100525000Y-59989285D01*
X100632142Y-60025000D01*
X100882142Y-59989285D02*
X101346428Y-59989285D01*
X101096428Y-60275000D01*
X101203571Y-60275000D01*
X101275000Y-60310714D01*
X101310714Y-60346428D01*
X101346428Y-60417857D01*
X101346428Y-60596428D01*
X101310714Y-60667857D01*
X101275000Y-60703571D01*
X101203571Y-60739285D01*
X100989285Y-60739285D01*
X100917857Y-60703571D01*
X100882142Y-60667857D01*
%TO.C,R3*%
X115475000Y-83939285D02*
X115225000Y-83582142D01*
X115046428Y-83939285D02*
X115046428Y-83189285D01*
X115332142Y-83189285D01*
X115403571Y-83225000D01*
X115439285Y-83260714D01*
X115475000Y-83332142D01*
X115475000Y-83439285D01*
X115439285Y-83510714D01*
X115403571Y-83546428D01*
X115332142Y-83582142D01*
X115046428Y-83582142D01*
X115725000Y-83189285D02*
X116189285Y-83189285D01*
X115939285Y-83475000D01*
X116046428Y-83475000D01*
X116117857Y-83510714D01*
X116153571Y-83546428D01*
X116189285Y-83617857D01*
X116189285Y-83796428D01*
X116153571Y-83867857D01*
X116117857Y-83903571D01*
X116046428Y-83939285D01*
X115832142Y-83939285D01*
X115760714Y-83903571D01*
X115725000Y-83867857D01*
%TO.C,R4*%
X111675000Y-78639285D02*
X111425000Y-78282142D01*
X111246428Y-78639285D02*
X111246428Y-77889285D01*
X111532142Y-77889285D01*
X111603571Y-77925000D01*
X111639285Y-77960714D01*
X111675000Y-78032142D01*
X111675000Y-78139285D01*
X111639285Y-78210714D01*
X111603571Y-78246428D01*
X111532142Y-78282142D01*
X111246428Y-78282142D01*
X112317857Y-78139285D02*
X112317857Y-78639285D01*
X112139285Y-77853571D02*
X111960714Y-78389285D01*
X112425000Y-78389285D01*
%TO.C,C4*%
X95467857Y-58725000D02*
X95503571Y-58760714D01*
X95539285Y-58867857D01*
X95539285Y-58939285D01*
X95503571Y-59046428D01*
X95432142Y-59117857D01*
X95360714Y-59153571D01*
X95217857Y-59189285D01*
X95110714Y-59189285D01*
X94967857Y-59153571D01*
X94896428Y-59117857D01*
X94825000Y-59046428D01*
X94789285Y-58939285D01*
X94789285Y-58867857D01*
X94825000Y-58760714D01*
X94860714Y-58725000D01*
X95039285Y-58082142D02*
X95539285Y-58082142D01*
X94753571Y-58260714D02*
X95289285Y-58439285D01*
X95289285Y-57975000D01*
%TO.C,C5*%
X104067857Y-68225000D02*
X104103571Y-68260714D01*
X104139285Y-68367857D01*
X104139285Y-68439285D01*
X104103571Y-68546428D01*
X104032142Y-68617857D01*
X103960714Y-68653571D01*
X103817857Y-68689285D01*
X103710714Y-68689285D01*
X103567857Y-68653571D01*
X103496428Y-68617857D01*
X103425000Y-68546428D01*
X103389285Y-68439285D01*
X103389285Y-68367857D01*
X103425000Y-68260714D01*
X103460714Y-68225000D01*
X103389285Y-67546428D02*
X103389285Y-67903571D01*
X103746428Y-67939285D01*
X103710714Y-67903571D01*
X103675000Y-67832142D01*
X103675000Y-67653571D01*
X103710714Y-67582142D01*
X103746428Y-67546428D01*
X103817857Y-67510714D01*
X103996428Y-67510714D01*
X104067857Y-67546428D01*
X104103571Y-67582142D01*
X104139285Y-67653571D01*
X104139285Y-67832142D01*
X104103571Y-67903571D01*
X104067857Y-67939285D01*
%TO.C,C1*%
X89767857Y-58625000D02*
X89803571Y-58660714D01*
X89839285Y-58767857D01*
X89839285Y-58839285D01*
X89803571Y-58946428D01*
X89732142Y-59017857D01*
X89660714Y-59053571D01*
X89517857Y-59089285D01*
X89410714Y-59089285D01*
X89267857Y-59053571D01*
X89196428Y-59017857D01*
X89125000Y-58946428D01*
X89089285Y-58839285D01*
X89089285Y-58767857D01*
X89125000Y-58660714D01*
X89160714Y-58625000D01*
X89839285Y-57910714D02*
X89839285Y-58339285D01*
X89839285Y-58125000D02*
X89089285Y-58125000D01*
X89196428Y-58196428D01*
X89267857Y-58267857D01*
X89303571Y-58339285D01*
%TO.C,D1*%
X110546428Y-72839285D02*
X110546428Y-72089285D01*
X110725000Y-72089285D01*
X110832142Y-72125000D01*
X110903571Y-72196428D01*
X110939285Y-72267857D01*
X110975000Y-72410714D01*
X110975000Y-72517857D01*
X110939285Y-72660714D01*
X110903571Y-72732142D01*
X110832142Y-72803571D01*
X110725000Y-72839285D01*
X110546428Y-72839285D01*
X111689285Y-72839285D02*
X111260714Y-72839285D01*
X111475000Y-72839285D02*
X111475000Y-72089285D01*
X111403571Y-72196428D01*
X111332142Y-72267857D01*
X111260714Y-72303571D01*
%TO.C,R8*%
X90975000Y-65239285D02*
X90725000Y-64882142D01*
X90546428Y-65239285D02*
X90546428Y-64489285D01*
X90832142Y-64489285D01*
X90903571Y-64525000D01*
X90939285Y-64560714D01*
X90975000Y-64632142D01*
X90975000Y-64739285D01*
X90939285Y-64810714D01*
X90903571Y-64846428D01*
X90832142Y-64882142D01*
X90546428Y-64882142D01*
X91403571Y-64810714D02*
X91332142Y-64775000D01*
X91296428Y-64739285D01*
X91260714Y-64667857D01*
X91260714Y-64632142D01*
X91296428Y-64560714D01*
X91332142Y-64525000D01*
X91403571Y-64489285D01*
X91546428Y-64489285D01*
X91617857Y-64525000D01*
X91653571Y-64560714D01*
X91689285Y-64632142D01*
X91689285Y-64667857D01*
X91653571Y-64739285D01*
X91617857Y-64775000D01*
X91546428Y-64810714D01*
X91403571Y-64810714D01*
X91332142Y-64846428D01*
X91296428Y-64882142D01*
X91260714Y-64953571D01*
X91260714Y-65096428D01*
X91296428Y-65167857D01*
X91332142Y-65203571D01*
X91403571Y-65239285D01*
X91546428Y-65239285D01*
X91617857Y-65203571D01*
X91653571Y-65167857D01*
X91689285Y-65096428D01*
X91689285Y-64953571D01*
X91653571Y-64882142D01*
X91617857Y-64846428D01*
X91546428Y-64810714D01*
%TO.C,C9*%
X96005000Y-87202857D02*
X95969285Y-87238571D01*
X95862142Y-87274285D01*
X95790714Y-87274285D01*
X95683571Y-87238571D01*
X95612142Y-87167142D01*
X95576428Y-87095714D01*
X95540714Y-86952857D01*
X95540714Y-86845714D01*
X95576428Y-86702857D01*
X95612142Y-86631428D01*
X95683571Y-86560000D01*
X95790714Y-86524285D01*
X95862142Y-86524285D01*
X95969285Y-86560000D01*
X96005000Y-86595714D01*
X96362142Y-87274285D02*
X96505000Y-87274285D01*
X96576428Y-87238571D01*
X96612142Y-87202857D01*
X96683571Y-87095714D01*
X96719285Y-86952857D01*
X96719285Y-86667142D01*
X96683571Y-86595714D01*
X96647857Y-86560000D01*
X96576428Y-86524285D01*
X96433571Y-86524285D01*
X96362142Y-86560000D01*
X96326428Y-86595714D01*
X96290714Y-86667142D01*
X96290714Y-86845714D01*
X96326428Y-86917142D01*
X96362142Y-86952857D01*
X96433571Y-86988571D01*
X96576428Y-86988571D01*
X96647857Y-86952857D01*
X96683571Y-86917142D01*
X96719285Y-86845714D01*
%TO.C,U5*%
X107128571Y-66589285D02*
X107128571Y-67196428D01*
X107164285Y-67267857D01*
X107200000Y-67303571D01*
X107271428Y-67339285D01*
X107414285Y-67339285D01*
X107485714Y-67303571D01*
X107521428Y-67267857D01*
X107557142Y-67196428D01*
X107557142Y-66589285D01*
X108271428Y-66589285D02*
X107914285Y-66589285D01*
X107878571Y-66946428D01*
X107914285Y-66910714D01*
X107985714Y-66875000D01*
X108164285Y-66875000D01*
X108235714Y-66910714D01*
X108271428Y-66946428D01*
X108307142Y-67017857D01*
X108307142Y-67196428D01*
X108271428Y-67267857D01*
X108235714Y-67303571D01*
X108164285Y-67339285D01*
X107985714Y-67339285D01*
X107914285Y-67303571D01*
X107878571Y-67267857D01*
%TO.C,DS2*%
X112489285Y-88439285D02*
X112489285Y-87689285D01*
X112667857Y-87689285D01*
X112775000Y-87725000D01*
X112846428Y-87796428D01*
X112882142Y-87867857D01*
X112917857Y-88010714D01*
X112917857Y-88117857D01*
X112882142Y-88260714D01*
X112846428Y-88332142D01*
X112775000Y-88403571D01*
X112667857Y-88439285D01*
X112489285Y-88439285D01*
X113203571Y-88403571D02*
X113310714Y-88439285D01*
X113489285Y-88439285D01*
X113560714Y-88403571D01*
X113596428Y-88367857D01*
X113632142Y-88296428D01*
X113632142Y-88225000D01*
X113596428Y-88153571D01*
X113560714Y-88117857D01*
X113489285Y-88082142D01*
X113346428Y-88046428D01*
X113275000Y-88010714D01*
X113239285Y-87975000D01*
X113203571Y-87903571D01*
X113203571Y-87832142D01*
X113239285Y-87760714D01*
X113275000Y-87725000D01*
X113346428Y-87689285D01*
X113525000Y-87689285D01*
X113632142Y-87725000D01*
X113917857Y-87760714D02*
X113953571Y-87725000D01*
X114025000Y-87689285D01*
X114203571Y-87689285D01*
X114275000Y-87725000D01*
X114310714Y-87760714D01*
X114346428Y-87832142D01*
X114346428Y-87903571D01*
X114310714Y-88010714D01*
X113882142Y-88439285D01*
X114346428Y-88439285D01*
D12*
%TO.C,U4*%
X105300000Y-79240000D02*
X104100000Y-79240000D01*
D11*
X105700000Y-84200000D02*
X109100000Y-84200000D01*
X109100000Y-84200000D02*
X109100000Y-79400000D01*
X109100000Y-79400000D02*
X105700000Y-79400000D01*
X105700000Y-79400000D02*
X105700000Y-84200000D01*
X105700000Y-80700000D02*
X105700000Y-79400000D01*
X105700000Y-79400000D02*
X107000000Y-79400000D01*
X107000000Y-79400000D02*
X105700000Y-80700000D01*
G36*
X105700000Y-80700000D02*
G01*
X105700000Y-79400000D01*
X107000000Y-79400000D01*
X105700000Y-80700000D01*
G37*
X105700000Y-80700000D02*
X105700000Y-79400000D01*
X107000000Y-79400000D01*
X105700000Y-80700000D01*
%TO.C,J1*%
X89810000Y-66390000D02*
X86060000Y-66390000D01*
X89810000Y-66390000D02*
X89810000Y-78610000D01*
X73600000Y-66390000D02*
X81160000Y-66390000D01*
X89810000Y-78610000D02*
X86060000Y-78610000D01*
X73600000Y-78610000D02*
X81160000Y-78610000D01*
D12*
%TO.C,C8*%
X96059420Y-66790000D02*
X96340580Y-66790000D01*
X96059420Y-67810000D02*
X96340580Y-67810000D01*
%TO.C,U3*%
X95550000Y-68550000D02*
X95150000Y-68550000D01*
X102450000Y-68550000D02*
X102450000Y-68950000D01*
X102000000Y-76100000D02*
X102700000Y-75400000D01*
X102050000Y-68550000D02*
X102450000Y-68550000D01*
X95150000Y-75850000D02*
X95150000Y-75450000D01*
X95550000Y-75850000D02*
X95150000Y-75850000D01*
X95150000Y-68550000D02*
X95150000Y-68950000D01*
%TO.C,M1*%
X83000000Y-85000000D02*
G75*
G03*
X83000000Y-85000000I-3000000J0D01*
G01*
%TO.C,U2*%
X93600000Y-59800000D02*
X93600000Y-60700000D01*
X90800000Y-61000000D02*
X93600000Y-61000000D01*
X93600000Y-61000000D02*
X93600000Y-61800000D01*
X93600000Y-61800000D02*
X90800000Y-61800000D01*
X90800000Y-61800000D02*
X90800000Y-61000000D01*
D11*
X93100000Y-61000000D02*
X93600000Y-61000000D01*
X93600000Y-61000000D02*
X93600000Y-61500000D01*
X93600000Y-61500000D02*
X93100000Y-61000000D01*
G36*
X93600000Y-61500000D02*
G01*
X93100000Y-61000000D01*
X93600000Y-61000000D01*
X93600000Y-61500000D01*
G37*
X93600000Y-61500000D02*
X93100000Y-61000000D01*
X93600000Y-61000000D01*
X93600000Y-61500000D01*
D12*
%TO.C,C6*%
X93390000Y-75740580D02*
X93390000Y-75459420D01*
X94410000Y-75740580D02*
X94410000Y-75459420D01*
%TO.C,R5*%
X105737258Y-59422500D02*
X105262742Y-59422500D01*
X105737258Y-58377500D02*
X105262742Y-58377500D01*
%TO.C,J2*%
X92725000Y-83505000D02*
X92725000Y-82870000D01*
X93360000Y-83505000D02*
X92725000Y-83505000D01*
%TO.C,R9*%
X113637258Y-83922500D02*
X113162742Y-83922500D01*
X113637258Y-82877500D02*
X113162742Y-82877500D01*
%TO.C,C2*%
X106459420Y-75690000D02*
X106740580Y-75690000D01*
X106459420Y-76710000D02*
X106740580Y-76710000D01*
%TO.C,R6*%
X105262742Y-61022500D02*
X105737258Y-61022500D01*
X105262742Y-59977500D02*
X105737258Y-59977500D01*
%TO.C,C7*%
X102240580Y-77610000D02*
X101959420Y-77610000D01*
X102240580Y-76590000D02*
X101959420Y-76590000D01*
D11*
%TO.C,DS1*%
X113500000Y-58500000D02*
X113900000Y-58500000D01*
X113500000Y-59300000D02*
X113900000Y-59300000D01*
X112215000Y-58500000D02*
X112215000Y-59300000D01*
D12*
%TO.C,U1*%
X91000000Y-69900000D02*
X91900000Y-69900000D01*
X92200000Y-72700000D02*
X93000000Y-72700000D01*
X93000000Y-72700000D02*
X93000000Y-69900000D01*
X93000000Y-69900000D02*
X92200000Y-69900000D01*
X92200000Y-69900000D02*
X92200000Y-72700000D01*
D11*
X92200000Y-70400000D02*
X92200000Y-69900000D01*
X92200000Y-69900000D02*
X92700000Y-69900000D01*
X92700000Y-69900000D02*
X92200000Y-70400000D01*
G36*
X92200000Y-70400000D02*
G01*
X92200000Y-69900000D01*
X92700000Y-69900000D01*
X92200000Y-70400000D01*
G37*
X92200000Y-70400000D02*
X92200000Y-69900000D01*
X92700000Y-69900000D01*
X92200000Y-70400000D01*
D12*
%TO.C,R2*%
X113462742Y-59977500D02*
X113937258Y-59977500D01*
X113462742Y-61022500D02*
X113937258Y-61022500D01*
%TO.C,M4*%
X123000000Y-85000000D02*
G75*
G03*
X123000000Y-85000000I-3000000J0D01*
G01*
%TO.C,R1*%
X92892742Y-85757500D02*
X93367258Y-85757500D01*
X92892742Y-84712500D02*
X93367258Y-84712500D01*
%TO.C,C3*%
X106740580Y-69890000D02*
X106459420Y-69890000D01*
X106740580Y-70910000D02*
X106459420Y-70910000D01*
%TO.C,Y1*%
X107000000Y-75300000D02*
X108250000Y-75300000D01*
X108250000Y-75300000D02*
X108250000Y-73900000D01*
%TO.C,R7*%
X111962742Y-65922500D02*
X112437258Y-65922500D01*
X111962742Y-64877500D02*
X112437258Y-64877500D01*
%TO.C,M2*%
X83000000Y-60000000D02*
G75*
G03*
X83000000Y-60000000I-3000000J0D01*
G01*
%TO.C,C10*%
X103310000Y-81940580D02*
X103310000Y-81659420D01*
X102290000Y-81940580D02*
X102290000Y-81659420D01*
D11*
%TO.C,J3*%
X113312500Y-77280000D02*
X113912500Y-77580000D01*
X126332500Y-63770000D02*
X114112500Y-63770000D01*
X124832500Y-81230000D02*
X123032500Y-81230000D01*
X124832500Y-71750000D02*
X124832500Y-73250000D01*
X126332500Y-73500000D02*
X126332500Y-71500000D01*
X123032500Y-81230000D02*
X123032500Y-63770000D01*
X124832500Y-66670000D02*
X124832500Y-68170000D01*
X123032500Y-63770000D02*
X124832500Y-63770000D01*
X113912500Y-77580000D02*
X113312500Y-77880000D01*
X124832500Y-63770000D02*
X124832500Y-81230000D01*
X126332500Y-71500000D02*
X124832500Y-71750000D01*
X126332500Y-66420000D02*
X124832500Y-66670000D01*
X124832500Y-76830000D02*
X124832500Y-78330000D01*
X124832500Y-68170000D02*
X126332500Y-68420000D01*
X126332500Y-81230000D02*
X126332500Y-63770000D01*
X114112500Y-63770000D02*
X114112500Y-81230000D01*
X124832500Y-78330000D02*
X126332500Y-78580000D01*
X114112500Y-81230000D02*
X126332500Y-81230000D01*
X126332500Y-78580000D02*
X126332500Y-76580000D01*
X126332500Y-68420000D02*
X126332500Y-66420000D01*
X113312500Y-77880000D02*
X113312500Y-77280000D01*
X126332500Y-76580000D02*
X124832500Y-76830000D01*
X124832500Y-73250000D02*
X126332500Y-73500000D01*
%TO.C,DS3*%
X99015000Y-58500000D02*
X99015000Y-59300000D01*
X100300000Y-58500000D02*
X100700000Y-58500000D01*
X100300000Y-59300000D02*
X100700000Y-59300000D01*
D12*
%TO.C,R3*%
X113162742Y-85522500D02*
X113637258Y-85522500D01*
X113162742Y-84477500D02*
X113637258Y-84477500D01*
%TO.C,R4*%
X109262742Y-78822500D02*
X109737258Y-78822500D01*
X109262742Y-77777500D02*
X109737258Y-77777500D01*
%TO.C,C4*%
X95835000Y-61661252D02*
X95835000Y-61138748D01*
X94365000Y-61661252D02*
X94365000Y-61138748D01*
%TO.C,M3*%
X123000000Y-60000000D02*
G75*
G03*
X123000000Y-60000000I-3000000J0D01*
G01*
%TO.C,C5*%
X104310000Y-70259420D02*
X104310000Y-70540580D01*
X103290000Y-70259420D02*
X103290000Y-70540580D01*
%TO.C,C1*%
X88565000Y-61138748D02*
X88565000Y-61661252D01*
X90035000Y-61138748D02*
X90035000Y-61661252D01*
%TO.C,D1*%
X112400000Y-71600000D02*
X111800000Y-71600000D01*
X111500000Y-68700000D02*
X110700000Y-68700000D01*
X110700000Y-68700000D02*
X110700000Y-71500000D01*
X110700000Y-71500000D02*
X111500000Y-71500000D01*
X111500000Y-71500000D02*
X111500000Y-68700000D01*
D11*
X111500000Y-71000000D02*
X111500000Y-71500000D01*
X111500000Y-71500000D02*
X111000000Y-71500000D01*
X111000000Y-71500000D02*
X111500000Y-71000000D01*
G36*
X111500000Y-71500000D02*
G01*
X111000000Y-71500000D01*
X111500000Y-71000000D01*
X111500000Y-71500000D01*
G37*
X111500000Y-71500000D02*
X111000000Y-71500000D01*
X111500000Y-71000000D01*
X111500000Y-71500000D01*
D12*
%TO.C,R8*%
X93537258Y-64377500D02*
X93062742Y-64377500D01*
X93537258Y-65422500D02*
X93062742Y-65422500D01*
%TO.C,C9*%
X96089420Y-84725000D02*
X96370580Y-84725000D01*
X96089420Y-85745000D02*
X96370580Y-85745000D01*
%TO.C,U5*%
X103900000Y-62000000D02*
X102700000Y-62000000D01*
X108750000Y-62200000D02*
X104250000Y-62200000D01*
X104250000Y-62200000D02*
X104250000Y-65800000D01*
X104250000Y-65800000D02*
X108750000Y-65800000D01*
X108750000Y-65800000D02*
X108750000Y-62200000D01*
D11*
X104300000Y-63733967D02*
X104300000Y-62233967D01*
X104300000Y-62233967D02*
X105700000Y-62233967D01*
X105700000Y-62233967D02*
X104300000Y-63733967D01*
G36*
X104300000Y-63733967D02*
G01*
X104300000Y-62233967D01*
X105700000Y-62233967D01*
X104300000Y-63733967D01*
G37*
X104300000Y-63733967D02*
X104300000Y-62233967D01*
X105700000Y-62233967D01*
X104300000Y-63733967D01*
%TO.C,DS2*%
X113200000Y-87000000D02*
X113600000Y-87000000D01*
X113200000Y-86200000D02*
X113600000Y-86200000D01*
X111915000Y-86200000D02*
X111915000Y-87000000D01*
%TD*%
M02*
