%TF.GenerationSoftware,KiCad,Pcbnew,(6.0.0)*%
%TF.CreationDate,2022-06-11T23:43:56+12:00*%
%TF.ProjectId,Canmaster_HW,43616e6d-6173-4746-9572-5f48572e6b69,rev?*%
%TF.SameCoordinates,Original*%
%TF.FileFunction,Copper,L2,Bot*%
%TF.FilePolarity,Positive*%
%FSLAX46Y46*%
G04 Gerber Fmt 4.6, Leading zero omitted, Abs format (unit mm)*
G04 Created by KiCad (PCBNEW (6.0.0)) date 2022-06-11 23:43:56*
%MOMM*%
%LPD*%
G01*
G04 APERTURE LIST*
G04 Aperture macros list*
%AMRoundRect*
0 Rectangle with rounded corners*
0 $1 Rounding radius*
0 $2 $3 $4 $5 $6 $7 $8 $9 X,Y pos of 4 corners*
0 Add a 4 corners polygon primitive as box body*
4,1,4,$2,$3,$4,$5,$6,$7,$8,$9,$2,$3,0*
0 Add four circle primitives for the rounded corners*
1,1,$1+$1,$2,$3*
1,1,$1+$1,$4,$5*
1,1,$1+$1,$6,$7*
1,1,$1+$1,$8,$9*
0 Add four rect primitives between the rounded corners*
20,1,$1+$1,$2,$3,$4,$5,0*
20,1,$1+$1,$4,$5,$6,$7,0*
20,1,$1+$1,$6,$7,$8,$9,0*
20,1,$1+$1,$8,$9,$2,$3,0*%
G04 Aperture macros list end*
%TA.AperFunction,ComponentPad*%
%ADD10R,1.600000X1.600000*%
%TD*%
%TA.AperFunction,ComponentPad*%
%ADD11C,1.600000*%
%TD*%
%TA.AperFunction,ComponentPad*%
%ADD12C,4.000000*%
%TD*%
%TA.AperFunction,ComponentPad*%
%ADD13RoundRect,0.249999X1.550001X-0.790001X1.550001X0.790001X-1.550001X0.790001X-1.550001X-0.790001X0*%
%TD*%
%TA.AperFunction,ComponentPad*%
%ADD14O,3.600000X2.080000*%
%TD*%
%TA.AperFunction,ViaPad*%
%ADD15C,0.800000*%
%TD*%
%TA.AperFunction,Conductor*%
%ADD16C,0.250000*%
%TD*%
%TA.AperFunction,Conductor*%
%ADD17C,0.400000*%
%TD*%
G04 APERTURE END LIST*
D10*
%TO.P,J1,1,VBUS*%
%TO.N,+5V*%
X88310000Y-73750000D03*
D11*
%TO.P,J1,2,D-*%
%TO.N,/MCU/USB_DM*%
X88310000Y-71250000D03*
%TO.P,J1,3,D+*%
%TO.N,/MCU/USB_DP*%
X86310000Y-71250000D03*
%TO.P,J1,4,GND*%
%TO.N,GND*%
X86310000Y-73750000D03*
D12*
%TO.P,J1,5*%
X83600000Y-78500000D03*
%TO.P,J1,6*%
X83600000Y-66500000D03*
%TD*%
D13*
%TO.P,J3,1,Pin_1*%
%TO.N,/CAN/CAN_L*%
X116222500Y-77580000D03*
D14*
%TO.P,J3,2,Pin_2*%
%TO.N,/CAN/CAN_H*%
X116222500Y-72500000D03*
%TO.P,J3,3,Pin_3*%
%TO.N,GND*%
X116222500Y-67420000D03*
%TD*%
D15*
%TO.N,GND*%
X100000000Y-73500000D03*
X88800000Y-63600000D03*
X76800000Y-69700000D03*
X85000000Y-56100000D03*
X90000000Y-56100000D03*
X92200000Y-63600000D03*
X106500000Y-86300000D03*
X99900000Y-67400000D03*
X95430000Y-83835000D03*
X101600000Y-80900000D03*
X123000000Y-79900000D03*
X103200000Y-64200000D03*
X94600000Y-59200000D03*
X111900000Y-58900000D03*
X100000000Y-71000000D03*
X105100000Y-89000000D03*
X91200000Y-67800000D03*
X76800000Y-64700000D03*
X91200000Y-63900000D03*
X110000000Y-56100000D03*
X95600000Y-59200000D03*
X110200000Y-75800000D03*
X123000000Y-74900000D03*
X98600000Y-76900000D03*
X106200000Y-81100000D03*
X100000000Y-56100000D03*
X95100000Y-89000000D03*
X108475500Y-70400000D03*
X85100000Y-89000000D03*
X110100000Y-89000000D03*
X103200000Y-84900000D03*
X89900000Y-63600000D03*
X85900000Y-84900000D03*
X87200000Y-69700000D03*
X85200000Y-62900000D03*
X101400000Y-78100000D03*
X108200000Y-80800000D03*
X115000000Y-56100000D03*
X97500000Y-71000000D03*
X76800000Y-74700000D03*
X99700000Y-60000000D03*
X105000000Y-56100000D03*
X88900000Y-77500000D03*
X98200000Y-67400000D03*
X105000000Y-68200000D03*
X123000000Y-64900000D03*
X107800000Y-61700000D03*
X115100000Y-89000000D03*
X92900000Y-74900000D03*
X110000000Y-69000000D03*
X104500000Y-74200000D03*
X104500000Y-65200000D03*
X123000000Y-69900000D03*
X90100000Y-89000000D03*
X108800000Y-72100000D03*
X100100000Y-89000000D03*
X76800000Y-79700000D03*
X110000000Y-71200000D03*
X90000000Y-71300000D03*
X99500000Y-63800000D03*
X97500000Y-73500000D03*
X92200000Y-61500000D03*
X95000000Y-56100000D03*
X98230000Y-85235000D03*
X94100000Y-67500000D03*
X111500000Y-86600000D03*
%TO.N,+3V3*%
X101912299Y-79087701D03*
X95000000Y-79100000D03*
X98600000Y-79100000D03*
X92700000Y-67700000D03*
X92635500Y-79100000D03*
X102500000Y-66700000D03*
X91400000Y-73700000D03*
X100325500Y-66200000D03*
X95000000Y-76600000D03*
%TO.N,/MCU/NRST*%
X107100000Y-79100000D03*
X107100000Y-85000000D03*
X108700000Y-76300000D03*
X105300000Y-85000000D03*
%TO.N,/CAN/CAN_L*%
X113100000Y-73400000D03*
X113100000Y-71700000D03*
%TO.N,/MCU/LED_RX*%
X102300000Y-87424500D03*
X102288471Y-85310020D03*
%TO.N,/CAN/CAN_SENSE*%
X111200000Y-77100000D03*
X114200000Y-80000000D03*
%TD*%
D16*
%TO.N,+3V3*%
X101900000Y-79100000D02*
X101912299Y-79087701D01*
D17*
X92700000Y-72400000D02*
X91400000Y-73700000D01*
X102500000Y-66600000D02*
X102500000Y-66700000D01*
D16*
X98600000Y-79100000D02*
X101900000Y-79100000D01*
X95000000Y-79100000D02*
X92635500Y-79100000D01*
D17*
X92700000Y-67700000D02*
X92700000Y-72400000D01*
D16*
X95000000Y-79100000D02*
X95000000Y-76600000D01*
D17*
X102100000Y-66200000D02*
X102500000Y-66600000D01*
X100325500Y-66200000D02*
X102100000Y-66200000D01*
D16*
%TO.N,/MCU/NRST*%
X105300000Y-85000000D02*
X107100000Y-85000000D01*
X107100000Y-77900000D02*
X108700000Y-76300000D01*
X107100000Y-79100000D02*
X107100000Y-77900000D01*
D17*
%TO.N,/CAN/CAN_L*%
X113100000Y-73400000D02*
X113100000Y-71700000D01*
D16*
%TO.N,/MCU/LED_RX*%
X102288471Y-85310020D02*
X102288471Y-87412971D01*
X102288471Y-87412971D02*
X102300000Y-87424500D01*
%TO.N,/CAN/CAN_SENSE*%
X111300000Y-77100000D02*
X111200000Y-77100000D01*
X114200000Y-80000000D02*
X111300000Y-77100000D01*
%TD*%
%TA.AperFunction,Conductor*%
%TO.N,GND*%
G36*
X119987153Y-55256421D02*
G01*
X120000000Y-55258976D01*
X120012169Y-55256556D01*
X120022654Y-55256556D01*
X120035693Y-55255559D01*
X120358276Y-55269643D01*
X120408146Y-55271820D01*
X120419094Y-55272778D01*
X120818691Y-55325385D01*
X120829495Y-55327291D01*
X121222990Y-55414527D01*
X121233600Y-55417370D01*
X121617985Y-55538566D01*
X121628299Y-55542319D01*
X122000679Y-55696564D01*
X122010623Y-55701202D01*
X122297060Y-55850311D01*
X122368117Y-55887301D01*
X122377637Y-55892797D01*
X122717557Y-56109350D01*
X122726561Y-56115655D01*
X123046304Y-56361003D01*
X123054724Y-56368068D01*
X123324786Y-56615533D01*
X123351873Y-56640354D01*
X123359642Y-56648123D01*
X123478159Y-56777462D01*
X123631932Y-56945276D01*
X123638997Y-56953696D01*
X123884345Y-57273439D01*
X123890650Y-57282443D01*
X124107203Y-57622363D01*
X124112698Y-57631882D01*
X124245863Y-57887688D01*
X124298794Y-57989368D01*
X124303436Y-57999321D01*
X124457678Y-58371694D01*
X124461434Y-58382015D01*
X124572827Y-58735309D01*
X124582630Y-58766399D01*
X124585473Y-58777010D01*
X124672709Y-59170505D01*
X124674615Y-59181309D01*
X124710278Y-59452201D01*
X124727222Y-59580905D01*
X124728180Y-59591855D01*
X124744441Y-59964307D01*
X124743444Y-59977346D01*
X124743444Y-59987831D01*
X124741024Y-60000000D01*
X124743579Y-60012844D01*
X124746000Y-60037425D01*
X124746000Y-84962575D01*
X124743579Y-84987153D01*
X124741024Y-85000000D01*
X124743444Y-85012169D01*
X124743444Y-85022654D01*
X124744441Y-85035693D01*
X124728180Y-85408145D01*
X124727222Y-85419094D01*
X124675899Y-85808939D01*
X124674616Y-85818683D01*
X124672709Y-85829495D01*
X124653575Y-85915805D01*
X124585475Y-86222984D01*
X124582630Y-86233600D01*
X124466568Y-86601705D01*
X124461437Y-86617977D01*
X124457681Y-86628299D01*
X124305892Y-86994751D01*
X124303440Y-87000670D01*
X124298798Y-87010623D01*
X124161291Y-87274773D01*
X124112699Y-87368117D01*
X124107203Y-87377637D01*
X123890650Y-87717557D01*
X123884345Y-87726561D01*
X123638997Y-88046304D01*
X123631932Y-88054724D01*
X123599760Y-88089834D01*
X123382801Y-88326604D01*
X123359646Y-88351873D01*
X123351877Y-88359642D01*
X123159150Y-88536244D01*
X123054724Y-88631932D01*
X123046304Y-88638997D01*
X122726561Y-88884345D01*
X122717557Y-88890650D01*
X122377637Y-89107203D01*
X122368118Y-89112698D01*
X122010623Y-89298798D01*
X122000679Y-89303436D01*
X121628299Y-89457681D01*
X121617985Y-89461434D01*
X121233601Y-89582630D01*
X121222990Y-89585473D01*
X120829495Y-89672709D01*
X120818691Y-89674615D01*
X120419095Y-89727222D01*
X120408146Y-89728180D01*
X120358276Y-89730357D01*
X120035693Y-89744441D01*
X120022654Y-89743444D01*
X120012169Y-89743444D01*
X120000000Y-89741024D01*
X119987153Y-89743579D01*
X119962575Y-89746000D01*
X80037425Y-89746000D01*
X80012847Y-89743579D01*
X80000000Y-89741024D01*
X79987831Y-89743444D01*
X79977346Y-89743444D01*
X79964307Y-89744441D01*
X79641724Y-89730357D01*
X79591854Y-89728180D01*
X79580905Y-89727222D01*
X79181309Y-89674615D01*
X79170505Y-89672709D01*
X78777010Y-89585473D01*
X78766399Y-89582630D01*
X78382015Y-89461434D01*
X78371701Y-89457681D01*
X77999321Y-89303436D01*
X77989377Y-89298798D01*
X77631882Y-89112698D01*
X77622363Y-89107203D01*
X77282443Y-88890650D01*
X77273439Y-88884345D01*
X76953696Y-88638997D01*
X76945276Y-88631932D01*
X76840850Y-88536244D01*
X76648123Y-88359642D01*
X76640354Y-88351873D01*
X76617200Y-88326604D01*
X76400240Y-88089834D01*
X76368068Y-88054724D01*
X76361003Y-88046304D01*
X76115655Y-87726561D01*
X76109350Y-87717557D01*
X75892797Y-87377637D01*
X75887301Y-87368117D01*
X75838709Y-87274773D01*
X75701202Y-87010623D01*
X75696560Y-87000670D01*
X75694109Y-86994751D01*
X75542319Y-86628299D01*
X75538563Y-86617977D01*
X75533433Y-86601705D01*
X75417370Y-86233600D01*
X75414525Y-86222984D01*
X75346425Y-85915805D01*
X75327291Y-85829495D01*
X75325384Y-85818683D01*
X75324102Y-85808939D01*
X75272778Y-85419094D01*
X75271820Y-85408145D01*
X75261782Y-85178230D01*
X76599173Y-85178230D01*
X76599534Y-85181606D01*
X76629347Y-85460573D01*
X76638313Y-85544474D01*
X76716779Y-85904350D01*
X76833652Y-86253646D01*
X76987565Y-86588277D01*
X76989321Y-86591211D01*
X76989322Y-86591213D01*
X77005340Y-86617977D01*
X77176718Y-86904328D01*
X77398897Y-87198102D01*
X77651505Y-87466163D01*
X77654095Y-87468375D01*
X77654096Y-87468376D01*
X77661086Y-87474346D01*
X77931585Y-87705374D01*
X77934412Y-87707302D01*
X77934414Y-87707304D01*
X77975119Y-87735071D01*
X78235862Y-87912938D01*
X78396021Y-87998455D01*
X78557762Y-88084817D01*
X78557767Y-88084819D01*
X78560776Y-88086426D01*
X78563948Y-88087701D01*
X78563952Y-88087703D01*
X78899366Y-88222538D01*
X78899371Y-88222540D01*
X78902526Y-88223808D01*
X78905794Y-88224727D01*
X78905801Y-88224729D01*
X79253837Y-88322558D01*
X79253844Y-88322560D01*
X79257115Y-88323479D01*
X79260472Y-88324041D01*
X79260473Y-88324041D01*
X79617028Y-88383708D01*
X79617030Y-88383708D01*
X79620393Y-88384271D01*
X79844655Y-88397201D01*
X79900040Y-88400395D01*
X79900044Y-88400395D01*
X79901863Y-88400500D01*
X80092211Y-88400500D01*
X80093884Y-88400409D01*
X80093899Y-88400409D01*
X80264098Y-88391191D01*
X80367791Y-88385575D01*
X80731280Y-88326052D01*
X81086214Y-88227620D01*
X81089376Y-88226362D01*
X81089384Y-88226359D01*
X81425278Y-88092690D01*
X81428442Y-88091431D01*
X81526647Y-88039434D01*
X81750940Y-87920677D01*
X81750947Y-87920673D01*
X81753959Y-87919078D01*
X82058959Y-87712578D01*
X82339872Y-87474346D01*
X82543154Y-87260131D01*
X82591073Y-87209635D01*
X82591074Y-87209634D01*
X82593414Y-87207168D01*
X82816618Y-86914172D01*
X82818378Y-86911255D01*
X83005111Y-86601705D01*
X83005116Y-86601696D01*
X83006873Y-86598783D01*
X83161953Y-86264691D01*
X83164645Y-86256740D01*
X83278952Y-85919032D01*
X83278953Y-85919027D01*
X83280044Y-85915805D01*
X83342560Y-85633818D01*
X83359028Y-85559536D01*
X83359029Y-85559532D01*
X83359766Y-85556206D01*
X83385876Y-85319702D01*
X83387707Y-85303116D01*
X101629200Y-85303116D01*
X101637633Y-85379500D01*
X101645550Y-85451204D01*
X101646584Y-85460573D01*
X101649194Y-85467704D01*
X101649194Y-85467706D01*
X101680340Y-85552816D01*
X101701024Y-85609339D01*
X101705260Y-85615642D01*
X101705260Y-85615643D01*
X101729207Y-85651279D01*
X101789379Y-85740825D01*
X101794998Y-85745938D01*
X101794999Y-85745939D01*
X101867770Y-85812155D01*
X101904693Y-85872795D01*
X101908971Y-85905349D01*
X101908971Y-86839746D01*
X101888969Y-86907867D01*
X101865802Y-86934693D01*
X101810039Y-86983338D01*
X101718950Y-87112944D01*
X101661406Y-87260537D01*
X101660414Y-87268070D01*
X101660414Y-87268071D01*
X101645990Y-87377637D01*
X101640729Y-87417596D01*
X101658113Y-87575053D01*
X101712553Y-87723819D01*
X101800908Y-87855305D01*
X101806527Y-87860418D01*
X101806528Y-87860419D01*
X101870994Y-87919078D01*
X101918076Y-87961919D01*
X102057293Y-88037508D01*
X102210522Y-88077707D01*
X102294477Y-88079026D01*
X102361319Y-88080076D01*
X102361322Y-88080076D01*
X102368916Y-88080195D01*
X102523332Y-88044829D01*
X102593742Y-88009417D01*
X102658072Y-87977063D01*
X102658075Y-87977061D01*
X102664855Y-87973651D01*
X102670626Y-87968722D01*
X102670629Y-87968720D01*
X102779536Y-87875704D01*
X102779536Y-87875703D01*
X102785314Y-87870769D01*
X102877755Y-87742124D01*
X102936842Y-87595141D01*
X102942965Y-87552115D01*
X102958581Y-87442391D01*
X102958581Y-87442388D01*
X102959162Y-87438307D01*
X102959307Y-87424500D01*
X102940276Y-87267233D01*
X102884280Y-87119046D01*
X102875814Y-87106728D01*
X102798855Y-86994751D01*
X102798854Y-86994749D01*
X102794553Y-86988492D01*
X102710152Y-86913294D01*
X102672597Y-86853044D01*
X102667971Y-86819217D01*
X102667971Y-85904750D01*
X102687973Y-85836629D01*
X102712140Y-85808939D01*
X102768007Y-85761224D01*
X102773785Y-85756289D01*
X102866226Y-85627644D01*
X102925313Y-85480661D01*
X102947633Y-85323827D01*
X102947778Y-85310020D01*
X102928747Y-85152753D01*
X102872751Y-85004566D01*
X102864868Y-84993096D01*
X104640729Y-84993096D01*
X104658113Y-85150553D01*
X104660723Y-85157684D01*
X104660723Y-85157686D01*
X104673823Y-85193482D01*
X104712553Y-85299319D01*
X104800908Y-85430805D01*
X104806525Y-85435916D01*
X104806528Y-85435919D01*
X104912460Y-85532309D01*
X104918076Y-85537419D01*
X105057293Y-85613008D01*
X105210522Y-85653207D01*
X105294477Y-85654526D01*
X105361319Y-85655576D01*
X105361322Y-85655576D01*
X105368916Y-85655695D01*
X105523332Y-85620329D01*
X105644207Y-85559536D01*
X105658072Y-85552563D01*
X105658075Y-85552561D01*
X105664855Y-85549151D01*
X105670626Y-85544222D01*
X105670629Y-85544220D01*
X105779542Y-85451199D01*
X105779543Y-85451198D01*
X105785314Y-85446269D01*
X105795586Y-85431974D01*
X105851581Y-85388326D01*
X105897909Y-85379500D01*
X106500141Y-85379500D01*
X106568262Y-85399502D01*
X106595522Y-85423169D01*
X106596671Y-85424500D01*
X106600908Y-85430805D01*
X106718076Y-85537419D01*
X106857293Y-85613008D01*
X107010522Y-85653207D01*
X107094477Y-85654526D01*
X107161319Y-85655576D01*
X107161322Y-85655576D01*
X107168916Y-85655695D01*
X107323332Y-85620329D01*
X107444207Y-85559536D01*
X107458072Y-85552563D01*
X107458075Y-85552561D01*
X107464855Y-85549151D01*
X107470626Y-85544222D01*
X107470629Y-85544220D01*
X107579536Y-85451204D01*
X107579536Y-85451203D01*
X107585314Y-85446269D01*
X107677755Y-85317624D01*
X107733791Y-85178230D01*
X116599173Y-85178230D01*
X116599534Y-85181606D01*
X116629347Y-85460573D01*
X116638313Y-85544474D01*
X116716779Y-85904350D01*
X116833652Y-86253646D01*
X116987565Y-86588277D01*
X116989321Y-86591211D01*
X116989322Y-86591213D01*
X117005340Y-86617977D01*
X117176718Y-86904328D01*
X117398897Y-87198102D01*
X117651505Y-87466163D01*
X117654095Y-87468375D01*
X117654096Y-87468376D01*
X117661086Y-87474346D01*
X117931585Y-87705374D01*
X117934412Y-87707302D01*
X117934414Y-87707304D01*
X117975119Y-87735071D01*
X118235862Y-87912938D01*
X118396021Y-87998455D01*
X118557762Y-88084817D01*
X118557767Y-88084819D01*
X118560776Y-88086426D01*
X118563948Y-88087701D01*
X118563952Y-88087703D01*
X118899366Y-88222538D01*
X118899371Y-88222540D01*
X118902526Y-88223808D01*
X118905794Y-88224727D01*
X118905801Y-88224729D01*
X119253837Y-88322558D01*
X119253844Y-88322560D01*
X119257115Y-88323479D01*
X119260472Y-88324041D01*
X119260473Y-88324041D01*
X119617028Y-88383708D01*
X119617030Y-88383708D01*
X119620393Y-88384271D01*
X119844655Y-88397201D01*
X119900040Y-88400395D01*
X119900044Y-88400395D01*
X119901863Y-88400500D01*
X120092211Y-88400500D01*
X120093884Y-88400409D01*
X120093899Y-88400409D01*
X120264098Y-88391191D01*
X120367791Y-88385575D01*
X120731280Y-88326052D01*
X121086214Y-88227620D01*
X121089376Y-88226362D01*
X121089384Y-88226359D01*
X121425278Y-88092690D01*
X121428442Y-88091431D01*
X121526647Y-88039434D01*
X121750940Y-87920677D01*
X121750947Y-87920673D01*
X121753959Y-87919078D01*
X122058959Y-87712578D01*
X122339872Y-87474346D01*
X122543154Y-87260131D01*
X122591073Y-87209635D01*
X122591074Y-87209634D01*
X122593414Y-87207168D01*
X122816618Y-86914172D01*
X122818378Y-86911255D01*
X123005111Y-86601705D01*
X123005116Y-86601696D01*
X123006873Y-86598783D01*
X123161953Y-86264691D01*
X123164645Y-86256740D01*
X123278952Y-85919032D01*
X123278953Y-85919027D01*
X123280044Y-85915805D01*
X123342560Y-85633818D01*
X123359028Y-85559536D01*
X123359029Y-85559532D01*
X123359766Y-85556206D01*
X123385876Y-85319702D01*
X123399811Y-85193482D01*
X123399811Y-85193475D01*
X123400184Y-85190100D01*
X123400827Y-84821770D01*
X123377180Y-84600498D01*
X123362049Y-84458910D01*
X123362048Y-84458904D01*
X123361687Y-84455526D01*
X123283221Y-84095650D01*
X123166348Y-83746354D01*
X123012435Y-83411723D01*
X123004399Y-83398295D01*
X122825034Y-83098600D01*
X122823282Y-83095672D01*
X122601103Y-82801898D01*
X122348495Y-82533837D01*
X122341803Y-82528121D01*
X122071019Y-82296850D01*
X122068415Y-82294626D01*
X122057855Y-82287422D01*
X121974012Y-82230228D01*
X121764138Y-82087062D01*
X121542653Y-81968800D01*
X121442238Y-81915183D01*
X121442233Y-81915181D01*
X121439224Y-81913574D01*
X121436052Y-81912299D01*
X121436048Y-81912297D01*
X121100634Y-81777462D01*
X121100629Y-81777460D01*
X121097474Y-81776192D01*
X121094206Y-81775273D01*
X121094199Y-81775271D01*
X120746163Y-81677442D01*
X120746156Y-81677440D01*
X120742885Y-81676521D01*
X120739527Y-81675959D01*
X120382972Y-81616292D01*
X120382970Y-81616292D01*
X120379607Y-81615729D01*
X120155345Y-81602799D01*
X120099960Y-81599605D01*
X120099956Y-81599605D01*
X120098137Y-81599500D01*
X119907789Y-81599500D01*
X119906116Y-81599591D01*
X119906101Y-81599591D01*
X119735902Y-81608809D01*
X119632209Y-81614425D01*
X119268720Y-81673948D01*
X118913786Y-81772380D01*
X118910624Y-81773638D01*
X118910616Y-81773641D01*
X118634796Y-81883404D01*
X118571558Y-81908569D01*
X118514760Y-81938642D01*
X118249060Y-82079323D01*
X118249053Y-82079327D01*
X118246041Y-82080922D01*
X117941041Y-82287422D01*
X117660128Y-82525654D01*
X117608544Y-82580012D01*
X117454771Y-82742056D01*
X117406586Y-82792832D01*
X117183382Y-83085828D01*
X117181625Y-83088740D01*
X117181622Y-83088745D01*
X116994889Y-83398295D01*
X116994884Y-83398304D01*
X116993127Y-83401217D01*
X116991693Y-83404307D01*
X116991690Y-83404312D01*
X116960792Y-83470877D01*
X116838047Y-83735309D01*
X116836955Y-83738534D01*
X116836953Y-83738540D01*
X116721048Y-84080968D01*
X116719956Y-84084195D01*
X116640234Y-84443794D01*
X116628084Y-84553846D01*
X116604765Y-84765075D01*
X116599816Y-84809900D01*
X116599810Y-84813299D01*
X116599810Y-84813300D01*
X116599722Y-84863866D01*
X116599173Y-85178230D01*
X107733791Y-85178230D01*
X107736842Y-85170641D01*
X107757903Y-85022654D01*
X107758581Y-85017891D01*
X107758581Y-85017888D01*
X107759162Y-85013807D01*
X107759307Y-85000000D01*
X107757835Y-84987831D01*
X107754778Y-84962575D01*
X107740276Y-84842733D01*
X107684280Y-84694546D01*
X107633390Y-84620500D01*
X107598855Y-84570251D01*
X107598854Y-84570249D01*
X107594553Y-84563992D01*
X107476275Y-84458611D01*
X107468889Y-84454700D01*
X107342988Y-84388039D01*
X107342989Y-84388039D01*
X107336274Y-84384484D01*
X107182633Y-84345892D01*
X107175034Y-84345852D01*
X107175033Y-84345852D01*
X107109181Y-84345507D01*
X107024221Y-84345062D01*
X107016841Y-84346834D01*
X107016839Y-84346834D01*
X106877563Y-84380271D01*
X106877560Y-84380272D01*
X106870184Y-84382043D01*
X106729414Y-84454700D01*
X106610039Y-84558838D01*
X106605672Y-84565051D01*
X106605667Y-84565057D01*
X106604336Y-84566951D01*
X106603013Y-84568005D01*
X106600589Y-84570697D01*
X106600140Y-84570293D01*
X106548802Y-84611183D01*
X106501250Y-84620500D01*
X105899682Y-84620500D01*
X105831561Y-84600498D01*
X105805114Y-84574860D01*
X105803878Y-84575949D01*
X105798855Y-84570251D01*
X105794553Y-84563992D01*
X105676275Y-84458611D01*
X105668889Y-84454700D01*
X105542988Y-84388039D01*
X105542989Y-84388039D01*
X105536274Y-84384484D01*
X105382633Y-84345892D01*
X105375034Y-84345852D01*
X105375033Y-84345852D01*
X105309181Y-84345507D01*
X105224221Y-84345062D01*
X105216841Y-84346834D01*
X105216839Y-84346834D01*
X105077563Y-84380271D01*
X105077560Y-84380272D01*
X105070184Y-84382043D01*
X104929414Y-84454700D01*
X104810039Y-84558838D01*
X104718950Y-84688444D01*
X104713802Y-84701649D01*
X104668285Y-84818394D01*
X104661406Y-84836037D01*
X104660414Y-84843570D01*
X104660414Y-84843571D01*
X104643114Y-84974983D01*
X104640729Y-84993096D01*
X102864868Y-84993096D01*
X102852419Y-84974983D01*
X102787326Y-84880271D01*
X102787325Y-84880269D01*
X102783024Y-84874012D01*
X102748858Y-84843571D01*
X102714882Y-84813300D01*
X102664746Y-84768631D01*
X102657360Y-84764720D01*
X102619036Y-84744429D01*
X102524745Y-84694504D01*
X102371104Y-84655912D01*
X102363505Y-84655872D01*
X102363504Y-84655872D01*
X102297652Y-84655527D01*
X102212692Y-84655082D01*
X102205312Y-84656854D01*
X102205310Y-84656854D01*
X102066034Y-84690291D01*
X102066031Y-84690292D01*
X102058655Y-84692063D01*
X101917885Y-84764720D01*
X101798510Y-84868858D01*
X101707421Y-84998464D01*
X101649877Y-85146057D01*
X101648885Y-85153590D01*
X101648885Y-85153591D01*
X101644079Y-85190100D01*
X101629200Y-85303116D01*
X83387707Y-85303116D01*
X83399811Y-85193482D01*
X83399811Y-85193475D01*
X83400184Y-85190100D01*
X83400827Y-84821770D01*
X83377180Y-84600498D01*
X83362049Y-84458910D01*
X83362048Y-84458904D01*
X83361687Y-84455526D01*
X83283221Y-84095650D01*
X83166348Y-83746354D01*
X83012435Y-83411723D01*
X83004399Y-83398295D01*
X82940677Y-83291824D01*
X96416201Y-83291824D01*
X96445810Y-83464141D01*
X96514267Y-83625024D01*
X96617898Y-83765843D01*
X96751146Y-83879045D01*
X96906862Y-83958558D01*
X96913967Y-83960297D01*
X96913971Y-83960298D01*
X96995084Y-83980146D01*
X97076693Y-84000115D01*
X97082295Y-84000463D01*
X97082298Y-84000463D01*
X97085795Y-84000680D01*
X97085805Y-84000680D01*
X97087734Y-84000800D01*
X97213779Y-84000800D01*
X97305182Y-83990144D01*
X97336393Y-83986505D01*
X97336395Y-83986505D01*
X97343665Y-83985657D01*
X97350543Y-83983161D01*
X97350545Y-83983160D01*
X97501136Y-83928498D01*
X97508015Y-83926001D01*
X97654233Y-83830136D01*
X97774475Y-83703205D01*
X97778150Y-83696878D01*
X97778153Y-83696874D01*
X97858615Y-83558347D01*
X97862292Y-83552017D01*
X97912973Y-83384682D01*
X97923799Y-83210176D01*
X97894190Y-83037859D01*
X97871432Y-82984375D01*
X97828600Y-82883713D01*
X97828599Y-82883711D01*
X97825733Y-82876976D01*
X97722102Y-82736157D01*
X97588854Y-82622955D01*
X97433138Y-82543442D01*
X97426033Y-82541703D01*
X97426029Y-82541702D01*
X97332597Y-82518840D01*
X97263307Y-82501885D01*
X97257705Y-82501537D01*
X97257702Y-82501537D01*
X97254205Y-82501320D01*
X97254195Y-82501320D01*
X97252266Y-82501200D01*
X97126221Y-82501200D01*
X97034818Y-82511856D01*
X97003607Y-82515495D01*
X97003605Y-82515495D01*
X96996335Y-82516343D01*
X96989457Y-82518839D01*
X96989455Y-82518840D01*
X96838864Y-82573502D01*
X96831985Y-82575999D01*
X96685767Y-82671864D01*
X96565525Y-82798795D01*
X96561850Y-82805122D01*
X96561847Y-82805126D01*
X96520114Y-82876976D01*
X96477708Y-82949983D01*
X96475587Y-82956987D01*
X96475585Y-82956991D01*
X96467265Y-82984463D01*
X96427027Y-83117318D01*
X96416201Y-83291824D01*
X82940677Y-83291824D01*
X82825034Y-83098600D01*
X82823282Y-83095672D01*
X82601103Y-82801898D01*
X82348495Y-82533837D01*
X82341803Y-82528121D01*
X82071019Y-82296850D01*
X82068415Y-82294626D01*
X82057855Y-82287422D01*
X82040853Y-82275824D01*
X91336201Y-82275824D01*
X91337441Y-82283040D01*
X91337441Y-82283042D01*
X91338194Y-82287422D01*
X91365810Y-82448141D01*
X91368676Y-82454875D01*
X91368676Y-82454877D01*
X91420215Y-82575999D01*
X91434267Y-82609024D01*
X91537898Y-82749843D01*
X91671146Y-82863045D01*
X91826862Y-82942558D01*
X91833967Y-82944297D01*
X91833971Y-82944298D01*
X91885845Y-82956991D01*
X91996693Y-82984115D01*
X92002295Y-82984463D01*
X92002298Y-82984463D01*
X92005795Y-82984680D01*
X92005805Y-82984680D01*
X92007734Y-82984800D01*
X92133779Y-82984800D01*
X92225182Y-82974144D01*
X92256393Y-82970505D01*
X92256395Y-82970505D01*
X92263665Y-82969657D01*
X92270543Y-82967161D01*
X92270545Y-82967160D01*
X92421136Y-82912498D01*
X92428015Y-82910001D01*
X92574233Y-82814136D01*
X92694475Y-82687205D01*
X92698150Y-82680878D01*
X92698153Y-82680874D01*
X92778615Y-82542347D01*
X92782292Y-82536017D01*
X92784684Y-82528121D01*
X92830851Y-82375688D01*
X92832973Y-82368682D01*
X92843799Y-82194176D01*
X92814190Y-82021859D01*
X92791432Y-81968375D01*
X92748600Y-81867713D01*
X92748599Y-81867711D01*
X92745733Y-81860976D01*
X92642102Y-81720157D01*
X92508854Y-81606955D01*
X92353138Y-81527442D01*
X92346033Y-81525703D01*
X92346029Y-81525702D01*
X92252597Y-81502840D01*
X92183307Y-81485885D01*
X92177705Y-81485537D01*
X92177702Y-81485537D01*
X92174205Y-81485320D01*
X92174195Y-81485320D01*
X92172266Y-81485200D01*
X92046221Y-81485200D01*
X91954818Y-81495856D01*
X91923607Y-81499495D01*
X91923605Y-81499495D01*
X91916335Y-81500343D01*
X91909457Y-81502839D01*
X91909455Y-81502840D01*
X91758864Y-81557502D01*
X91751985Y-81559999D01*
X91605767Y-81655864D01*
X91485525Y-81782795D01*
X91481850Y-81789122D01*
X91481847Y-81789126D01*
X91440114Y-81860976D01*
X91397708Y-81933983D01*
X91395587Y-81940987D01*
X91395585Y-81940991D01*
X91387265Y-81968463D01*
X91347027Y-82101318D01*
X91336201Y-82275824D01*
X82040853Y-82275824D01*
X81974012Y-82230228D01*
X81764138Y-82087062D01*
X81542653Y-81968800D01*
X81442238Y-81915183D01*
X81442233Y-81915181D01*
X81439224Y-81913574D01*
X81436052Y-81912299D01*
X81436048Y-81912297D01*
X81100634Y-81777462D01*
X81100629Y-81777460D01*
X81097474Y-81776192D01*
X81094206Y-81775273D01*
X81094199Y-81775271D01*
X80746163Y-81677442D01*
X80746156Y-81677440D01*
X80742885Y-81676521D01*
X80739527Y-81675959D01*
X80382972Y-81616292D01*
X80382970Y-81616292D01*
X80379607Y-81615729D01*
X80155345Y-81602799D01*
X80099960Y-81599605D01*
X80099956Y-81599605D01*
X80098137Y-81599500D01*
X79907789Y-81599500D01*
X79906116Y-81599591D01*
X79906101Y-81599591D01*
X79735902Y-81608809D01*
X79632209Y-81614425D01*
X79268720Y-81673948D01*
X78913786Y-81772380D01*
X78910624Y-81773638D01*
X78910616Y-81773641D01*
X78634796Y-81883404D01*
X78571558Y-81908569D01*
X78514760Y-81938642D01*
X78249060Y-82079323D01*
X78249053Y-82079327D01*
X78246041Y-82080922D01*
X77941041Y-82287422D01*
X77660128Y-82525654D01*
X77608544Y-82580012D01*
X77454771Y-82742056D01*
X77406586Y-82792832D01*
X77183382Y-83085828D01*
X77181625Y-83088740D01*
X77181622Y-83088745D01*
X76994889Y-83398295D01*
X76994884Y-83398304D01*
X76993127Y-83401217D01*
X76991693Y-83404307D01*
X76991690Y-83404312D01*
X76960792Y-83470877D01*
X76838047Y-83735309D01*
X76836955Y-83738534D01*
X76836953Y-83738540D01*
X76721048Y-84080968D01*
X76719956Y-84084195D01*
X76640234Y-84443794D01*
X76628084Y-84553846D01*
X76604765Y-84765075D01*
X76599816Y-84809900D01*
X76599810Y-84813299D01*
X76599810Y-84813300D01*
X76599722Y-84863866D01*
X76599173Y-85178230D01*
X75261782Y-85178230D01*
X75255559Y-85035693D01*
X75256556Y-85022654D01*
X75256556Y-85012169D01*
X75258976Y-85000000D01*
X75256421Y-84987153D01*
X75254000Y-84962575D01*
X75254000Y-81259824D01*
X96416201Y-81259824D01*
X96445810Y-81432141D01*
X96448676Y-81438875D01*
X96448676Y-81438877D01*
X96500215Y-81559999D01*
X96514267Y-81593024D01*
X96617898Y-81733843D01*
X96751146Y-81847045D01*
X96766882Y-81855080D01*
X96884586Y-81915183D01*
X96906862Y-81926558D01*
X96913967Y-81928297D01*
X96913971Y-81928298D01*
X96965845Y-81940991D01*
X97076693Y-81968115D01*
X97082295Y-81968463D01*
X97082298Y-81968463D01*
X97085795Y-81968680D01*
X97085805Y-81968680D01*
X97087734Y-81968800D01*
X97213779Y-81968800D01*
X97305182Y-81958144D01*
X97336393Y-81954505D01*
X97336395Y-81954505D01*
X97343665Y-81953657D01*
X97350543Y-81951161D01*
X97350545Y-81951160D01*
X97501136Y-81896498D01*
X97508015Y-81894001D01*
X97654233Y-81798136D01*
X97774475Y-81671205D01*
X97778150Y-81664878D01*
X97778153Y-81664874D01*
X97858615Y-81526347D01*
X97862292Y-81520017D01*
X97867495Y-81502840D01*
X97910851Y-81359688D01*
X97912973Y-81352682D01*
X97923799Y-81178176D01*
X97894190Y-81005859D01*
X97825733Y-80844976D01*
X97722102Y-80704157D01*
X97588854Y-80590955D01*
X97484011Y-80537419D01*
X97439654Y-80514769D01*
X97439652Y-80514768D01*
X97433138Y-80511442D01*
X97426033Y-80509703D01*
X97426029Y-80509702D01*
X97332597Y-80486840D01*
X97263307Y-80469885D01*
X97257705Y-80469537D01*
X97257702Y-80469537D01*
X97254205Y-80469320D01*
X97254195Y-80469320D01*
X97252266Y-80469200D01*
X97126221Y-80469200D01*
X97034818Y-80479856D01*
X97003607Y-80483495D01*
X97003605Y-80483495D01*
X96996335Y-80484343D01*
X96989457Y-80486839D01*
X96989455Y-80486840D01*
X96840131Y-80541042D01*
X96831985Y-80543999D01*
X96685767Y-80639864D01*
X96565525Y-80766795D01*
X96561850Y-80773122D01*
X96561847Y-80773126D01*
X96520114Y-80844976D01*
X96477708Y-80917983D01*
X96427027Y-81085318D01*
X96416201Y-81259824D01*
X75254000Y-81259824D01*
X75254000Y-80266020D01*
X82199437Y-80266020D01*
X82205895Y-80275381D01*
X82221803Y-80289332D01*
X82228340Y-80294348D01*
X82467149Y-80453915D01*
X82474286Y-80458036D01*
X82731886Y-80585070D01*
X82739481Y-80588216D01*
X83011460Y-80680541D01*
X83019420Y-80682674D01*
X83301120Y-80738707D01*
X83309278Y-80739781D01*
X83595881Y-80758566D01*
X83604119Y-80758566D01*
X83890722Y-80739781D01*
X83898880Y-80738707D01*
X84180580Y-80682674D01*
X84188540Y-80680541D01*
X84460519Y-80588216D01*
X84468114Y-80585070D01*
X84725714Y-80458036D01*
X84732851Y-80453915D01*
X84971660Y-80294348D01*
X84978197Y-80289332D01*
X84992240Y-80277017D01*
X85000637Y-80263778D01*
X84994804Y-80254014D01*
X83612812Y-78872022D01*
X83598868Y-78864408D01*
X83597035Y-78864539D01*
X83590420Y-78868790D01*
X82206951Y-80252259D01*
X82199437Y-80266020D01*
X75254000Y-80266020D01*
X75254000Y-78504119D01*
X81341434Y-78504119D01*
X81360219Y-78790722D01*
X81361293Y-78798880D01*
X81417326Y-79080580D01*
X81419459Y-79088540D01*
X81511784Y-79360519D01*
X81514930Y-79368114D01*
X81641964Y-79625714D01*
X81646085Y-79632851D01*
X81805652Y-79871660D01*
X81810668Y-79878197D01*
X81822983Y-79892240D01*
X81836222Y-79900637D01*
X81845986Y-79894804D01*
X83227978Y-78512812D01*
X83234356Y-78501132D01*
X83964408Y-78501132D01*
X83964539Y-78502965D01*
X83968790Y-78509580D01*
X85352259Y-79893049D01*
X85366020Y-79900563D01*
X85375381Y-79894105D01*
X85389332Y-79878197D01*
X85394348Y-79871660D01*
X85553915Y-79632851D01*
X85558036Y-79625714D01*
X85685070Y-79368114D01*
X85688216Y-79360519D01*
X85778994Y-79093096D01*
X91976229Y-79093096D01*
X91993613Y-79250553D01*
X91996223Y-79257684D01*
X91996223Y-79257686D01*
X92036634Y-79368114D01*
X92048053Y-79399319D01*
X92052289Y-79405622D01*
X92052289Y-79405623D01*
X92087896Y-79458611D01*
X92136408Y-79530805D01*
X92142025Y-79535916D01*
X92142028Y-79535919D01*
X92240059Y-79625120D01*
X92253576Y-79637419D01*
X92392793Y-79713008D01*
X92546022Y-79753207D01*
X92629977Y-79754526D01*
X92696819Y-79755576D01*
X92696822Y-79755576D01*
X92704416Y-79755695D01*
X92858832Y-79720329D01*
X92929242Y-79684917D01*
X92993572Y-79652563D01*
X92993575Y-79652561D01*
X93000355Y-79649151D01*
X93006126Y-79644222D01*
X93006129Y-79644220D01*
X93115042Y-79551199D01*
X93115043Y-79551198D01*
X93120814Y-79546269D01*
X93131086Y-79531974D01*
X93187081Y-79488326D01*
X93233409Y-79479500D01*
X94400141Y-79479500D01*
X94468262Y-79499502D01*
X94495522Y-79523169D01*
X94496671Y-79524500D01*
X94500908Y-79530805D01*
X94618076Y-79637419D01*
X94757293Y-79713008D01*
X94910522Y-79753207D01*
X94994477Y-79754526D01*
X95061319Y-79755576D01*
X95061322Y-79755576D01*
X95068916Y-79755695D01*
X95223332Y-79720329D01*
X95293742Y-79684917D01*
X95358072Y-79652563D01*
X95358075Y-79652561D01*
X95364855Y-79649151D01*
X95370626Y-79644222D01*
X95370629Y-79644220D01*
X95479536Y-79551204D01*
X95479536Y-79551203D01*
X95485314Y-79546269D01*
X95577755Y-79417624D01*
X95636842Y-79270641D01*
X95659162Y-79113807D01*
X95659307Y-79100000D01*
X95658472Y-79093096D01*
X97940729Y-79093096D01*
X97958113Y-79250553D01*
X97960723Y-79257684D01*
X97960723Y-79257686D01*
X98001134Y-79368114D01*
X98012553Y-79399319D01*
X98016789Y-79405622D01*
X98016789Y-79405623D01*
X98052396Y-79458611D01*
X98100908Y-79530805D01*
X98106525Y-79535916D01*
X98106528Y-79535919D01*
X98204559Y-79625120D01*
X98218076Y-79637419D01*
X98357293Y-79713008D01*
X98510522Y-79753207D01*
X98594477Y-79754526D01*
X98661319Y-79755576D01*
X98661322Y-79755576D01*
X98668916Y-79755695D01*
X98823332Y-79720329D01*
X98893742Y-79684917D01*
X98958072Y-79652563D01*
X98958075Y-79652561D01*
X98964855Y-79649151D01*
X98970626Y-79644222D01*
X98970629Y-79644220D01*
X99079542Y-79551199D01*
X99079543Y-79551198D01*
X99085314Y-79546269D01*
X99095586Y-79531974D01*
X99151581Y-79488326D01*
X99197909Y-79479500D01*
X101323056Y-79479500D01*
X101391177Y-79499502D01*
X101413145Y-79518574D01*
X101413207Y-79518506D01*
X101418825Y-79523618D01*
X101418826Y-79523619D01*
X101428008Y-79531974D01*
X101530375Y-79625120D01*
X101669592Y-79700709D01*
X101822821Y-79740908D01*
X101906776Y-79742227D01*
X101973618Y-79743277D01*
X101973621Y-79743277D01*
X101981215Y-79743396D01*
X102135631Y-79708030D01*
X102206041Y-79672618D01*
X102270371Y-79640264D01*
X102270374Y-79640262D01*
X102277154Y-79636852D01*
X102282925Y-79631923D01*
X102282928Y-79631921D01*
X102391835Y-79538905D01*
X102391835Y-79538904D01*
X102397613Y-79533970D01*
X102490054Y-79405325D01*
X102549141Y-79258342D01*
X102555264Y-79215316D01*
X102570880Y-79105592D01*
X102570880Y-79105589D01*
X102571461Y-79101508D01*
X102571530Y-79094966D01*
X102571550Y-79093096D01*
X106440729Y-79093096D01*
X106458113Y-79250553D01*
X106460723Y-79257684D01*
X106460723Y-79257686D01*
X106501134Y-79368114D01*
X106512553Y-79399319D01*
X106516789Y-79405622D01*
X106516789Y-79405623D01*
X106552396Y-79458611D01*
X106600908Y-79530805D01*
X106606525Y-79535916D01*
X106606528Y-79535919D01*
X106704559Y-79625120D01*
X106718076Y-79637419D01*
X106857293Y-79713008D01*
X107010522Y-79753207D01*
X107094477Y-79754526D01*
X107161319Y-79755576D01*
X107161322Y-79755576D01*
X107168916Y-79755695D01*
X107323332Y-79720329D01*
X107393742Y-79684917D01*
X107458072Y-79652563D01*
X107458075Y-79652561D01*
X107464855Y-79649151D01*
X107470626Y-79644222D01*
X107470629Y-79644220D01*
X107579536Y-79551204D01*
X107579536Y-79551203D01*
X107585314Y-79546269D01*
X107677755Y-79417624D01*
X107736842Y-79270641D01*
X107759162Y-79113807D01*
X107759307Y-79100000D01*
X107740276Y-78942733D01*
X107684280Y-78794546D01*
X107671526Y-78775989D01*
X107598855Y-78670251D01*
X107598854Y-78670249D01*
X107594553Y-78663992D01*
X107521681Y-78599065D01*
X107484126Y-78538816D01*
X107479500Y-78504989D01*
X107479500Y-78109384D01*
X107499502Y-78041263D01*
X107516405Y-78020289D01*
X108443598Y-77093096D01*
X110540729Y-77093096D01*
X110558113Y-77250553D01*
X110560723Y-77257684D01*
X110560723Y-77257686D01*
X110600781Y-77367149D01*
X110612553Y-77399319D01*
X110700908Y-77530805D01*
X110706527Y-77535918D01*
X110706528Y-77535919D01*
X110780256Y-77603006D01*
X110818076Y-77637419D01*
X110957293Y-77713008D01*
X111110522Y-77753207D01*
X111191238Y-77754475D01*
X111261317Y-77755576D01*
X111261320Y-77755576D01*
X111268916Y-77755695D01*
X111276321Y-77753999D01*
X111276322Y-77753999D01*
X111323094Y-77743287D01*
X111393961Y-77747577D01*
X111440318Y-77777012D01*
X113510249Y-79846943D01*
X113544275Y-79909255D01*
X113546076Y-79952482D01*
X113540729Y-79993096D01*
X113558113Y-80150553D01*
X113560723Y-80157684D01*
X113560723Y-80157686D01*
X113604392Y-80277017D01*
X113612553Y-80299319D01*
X113700908Y-80430805D01*
X113706527Y-80435918D01*
X113706528Y-80435919D01*
X113745324Y-80471220D01*
X113818076Y-80537419D01*
X113957293Y-80613008D01*
X114110522Y-80653207D01*
X114194477Y-80654526D01*
X114261319Y-80655576D01*
X114261322Y-80655576D01*
X114268916Y-80655695D01*
X114423332Y-80620329D01*
X114493742Y-80584917D01*
X114558072Y-80552563D01*
X114558075Y-80552561D01*
X114564855Y-80549151D01*
X114570626Y-80544222D01*
X114570629Y-80544220D01*
X114679536Y-80451204D01*
X114679536Y-80451203D01*
X114685314Y-80446269D01*
X114777755Y-80317624D01*
X114836842Y-80170641D01*
X114859162Y-80013807D01*
X114859307Y-80000000D01*
X114857561Y-79985567D01*
X114846577Y-79894804D01*
X114840276Y-79842733D01*
X114784280Y-79694546D01*
X114694553Y-79563992D01*
X114576275Y-79458611D01*
X114436274Y-79384484D01*
X114282633Y-79345892D01*
X114275034Y-79345852D01*
X114275033Y-79345852D01*
X114214626Y-79345536D01*
X114133335Y-79345110D01*
X114065321Y-79324752D01*
X114044901Y-79308207D01*
X111893185Y-77156491D01*
X111859159Y-77094179D01*
X111857193Y-77082533D01*
X111852058Y-77040095D01*
X111840276Y-76942733D01*
X111784280Y-76794546D01*
X111748333Y-76742243D01*
X114168000Y-76742243D01*
X114168001Y-78417756D01*
X114168370Y-78421150D01*
X114168370Y-78421156D01*
X114173648Y-78469744D01*
X114174702Y-78479449D01*
X114225429Y-78614765D01*
X114230809Y-78621944D01*
X114230811Y-78621947D01*
X114304673Y-78720500D01*
X114312096Y-78730404D01*
X114319277Y-78735786D01*
X114420553Y-78811689D01*
X114420556Y-78811691D01*
X114427735Y-78817071D01*
X114517453Y-78850704D01*
X114555656Y-78865026D01*
X114555658Y-78865026D01*
X114563051Y-78867798D01*
X114570901Y-78868651D01*
X114570902Y-78868651D01*
X114621337Y-78874130D01*
X114624743Y-78874500D01*
X116222266Y-78874500D01*
X117820256Y-78874499D01*
X117823650Y-78874130D01*
X117823656Y-78874130D01*
X117874091Y-78868652D01*
X117874095Y-78868651D01*
X117881949Y-78867798D01*
X118017265Y-78817071D01*
X118024444Y-78811691D01*
X118024447Y-78811689D01*
X118125723Y-78735786D01*
X118132904Y-78730404D01*
X118140327Y-78720500D01*
X118214189Y-78621947D01*
X118214191Y-78621944D01*
X118219571Y-78614765D01*
X118259003Y-78509580D01*
X118267526Y-78486844D01*
X118267526Y-78486842D01*
X118270298Y-78479449D01*
X118275366Y-78432803D01*
X118276631Y-78421154D01*
X118276631Y-78421153D01*
X118277000Y-78417757D01*
X118276999Y-76742244D01*
X118276345Y-76736222D01*
X118271152Y-76688409D01*
X118271151Y-76688405D01*
X118270298Y-76680551D01*
X118219571Y-76545235D01*
X118214191Y-76538056D01*
X118214189Y-76538053D01*
X118138286Y-76436777D01*
X118132904Y-76429596D01*
X118119393Y-76419470D01*
X118024447Y-76348311D01*
X118024444Y-76348309D01*
X118017265Y-76342929D01*
X117913778Y-76304134D01*
X117889344Y-76294974D01*
X117889342Y-76294974D01*
X117881949Y-76292202D01*
X117874099Y-76291349D01*
X117874098Y-76291349D01*
X117823654Y-76285869D01*
X117823653Y-76285869D01*
X117820257Y-76285500D01*
X116222734Y-76285500D01*
X114624744Y-76285501D01*
X114621350Y-76285870D01*
X114621344Y-76285870D01*
X114570909Y-76291348D01*
X114570905Y-76291349D01*
X114563051Y-76292202D01*
X114427735Y-76342929D01*
X114420556Y-76348309D01*
X114420553Y-76348311D01*
X114325607Y-76419470D01*
X114312096Y-76429596D01*
X114306714Y-76436777D01*
X114230811Y-76538053D01*
X114230809Y-76538056D01*
X114225429Y-76545235D01*
X114191796Y-76634953D01*
X114180910Y-76663992D01*
X114174702Y-76680551D01*
X114168000Y-76742243D01*
X111748333Y-76742243D01*
X111735096Y-76722983D01*
X111698855Y-76670251D01*
X111698854Y-76670249D01*
X111694553Y-76663992D01*
X111576275Y-76558611D01*
X111568889Y-76554700D01*
X111442988Y-76488039D01*
X111442989Y-76488039D01*
X111436274Y-76484484D01*
X111282633Y-76445892D01*
X111275034Y-76445852D01*
X111275033Y-76445852D01*
X111209181Y-76445507D01*
X111124221Y-76445062D01*
X111116841Y-76446834D01*
X111116839Y-76446834D01*
X110977563Y-76480271D01*
X110977560Y-76480272D01*
X110970184Y-76482043D01*
X110829414Y-76554700D01*
X110710039Y-76658838D01*
X110618950Y-76788444D01*
X110616190Y-76795524D01*
X110566178Y-76923798D01*
X110561406Y-76936037D01*
X110560414Y-76943570D01*
X110560414Y-76943571D01*
X110542120Y-77082533D01*
X110540729Y-77093096D01*
X108443598Y-77093096D01*
X108546178Y-76990516D01*
X108608490Y-76956490D01*
X108637252Y-76953627D01*
X108761318Y-76955576D01*
X108761321Y-76955576D01*
X108768916Y-76955695D01*
X108923332Y-76920329D01*
X108993742Y-76884917D01*
X109058072Y-76852563D01*
X109058075Y-76852561D01*
X109064855Y-76849151D01*
X109070626Y-76844222D01*
X109070629Y-76844220D01*
X109179536Y-76751204D01*
X109179536Y-76751203D01*
X109185314Y-76746269D01*
X109277755Y-76617624D01*
X109336842Y-76470641D01*
X109354252Y-76348311D01*
X109358581Y-76317891D01*
X109358581Y-76317888D01*
X109359162Y-76313807D01*
X109359307Y-76300000D01*
X109357553Y-76285501D01*
X109343606Y-76170251D01*
X109340276Y-76142733D01*
X109284280Y-75994546D01*
X109194553Y-75863992D01*
X109076275Y-75758611D01*
X109068889Y-75754700D01*
X108942988Y-75688039D01*
X108942989Y-75688039D01*
X108936274Y-75684484D01*
X108782633Y-75645892D01*
X108775034Y-75645852D01*
X108775033Y-75645852D01*
X108709181Y-75645507D01*
X108624221Y-75645062D01*
X108616841Y-75646834D01*
X108616839Y-75646834D01*
X108477563Y-75680271D01*
X108477560Y-75680272D01*
X108470184Y-75682043D01*
X108329414Y-75754700D01*
X108210039Y-75858838D01*
X108118950Y-75988444D01*
X108061406Y-76136037D01*
X108060414Y-76143570D01*
X108060414Y-76143571D01*
X108041729Y-76285501D01*
X108040729Y-76293096D01*
X108043544Y-76318591D01*
X108046963Y-76349566D01*
X108034557Y-76419470D01*
X108010819Y-76452487D01*
X106869784Y-77593522D01*
X106851036Y-77608664D01*
X106849811Y-77609779D01*
X106841060Y-77615429D01*
X106834613Y-77623607D01*
X106834611Y-77623609D01*
X106820271Y-77641800D01*
X106816325Y-77646241D01*
X106816398Y-77646303D01*
X106813039Y-77650267D01*
X106809362Y-77653944D01*
X106798108Y-77669692D01*
X106794602Y-77674362D01*
X106762844Y-77714647D01*
X106759812Y-77723281D01*
X106754486Y-77730734D01*
X106747730Y-77753326D01*
X106739799Y-77779844D01*
X106737964Y-77785492D01*
X106720982Y-77833851D01*
X106720500Y-77839416D01*
X106720500Y-77842124D01*
X106720386Y-77844758D01*
X106720357Y-77844856D01*
X106720193Y-77844849D01*
X106720149Y-77845553D01*
X106718287Y-77851778D01*
X106718696Y-77862183D01*
X106720403Y-77905635D01*
X106720500Y-77910582D01*
X106720500Y-78505187D01*
X106700498Y-78573308D01*
X106677330Y-78600135D01*
X106610039Y-78658838D01*
X106518950Y-78788444D01*
X106461406Y-78936037D01*
X106460414Y-78943570D01*
X106460414Y-78943571D01*
X106442377Y-79080580D01*
X106440729Y-79093096D01*
X102571550Y-79093096D01*
X102571563Y-79091835D01*
X102571563Y-79091829D01*
X102571606Y-79087701D01*
X102552575Y-78930434D01*
X102496579Y-78782247D01*
X102464647Y-78735786D01*
X102411154Y-78657952D01*
X102411153Y-78657950D01*
X102406852Y-78651693D01*
X102288574Y-78546312D01*
X102281188Y-78542401D01*
X102178516Y-78488039D01*
X102148573Y-78472185D01*
X101994932Y-78433593D01*
X101987333Y-78433553D01*
X101987332Y-78433553D01*
X101921480Y-78433208D01*
X101836520Y-78432763D01*
X101829140Y-78434535D01*
X101829138Y-78434535D01*
X101689862Y-78467972D01*
X101689859Y-78467973D01*
X101682483Y-78469744D01*
X101541713Y-78542401D01*
X101422338Y-78646539D01*
X101417971Y-78652752D01*
X101417966Y-78652758D01*
X101407991Y-78666951D01*
X101352457Y-78711183D01*
X101304905Y-78720500D01*
X99199682Y-78720500D01*
X99131561Y-78700498D01*
X99105114Y-78674860D01*
X99103878Y-78675949D01*
X99098855Y-78670251D01*
X99094553Y-78663992D01*
X98976275Y-78558611D01*
X98968889Y-78554700D01*
X98867716Y-78501132D01*
X98836274Y-78484484D01*
X98682633Y-78445892D01*
X98675034Y-78445852D01*
X98675033Y-78445852D01*
X98609181Y-78445507D01*
X98524221Y-78445062D01*
X98516841Y-78446834D01*
X98516839Y-78446834D01*
X98377563Y-78480271D01*
X98377560Y-78480272D01*
X98370184Y-78482043D01*
X98229414Y-78554700D01*
X98110039Y-78658838D01*
X98018950Y-78788444D01*
X97961406Y-78936037D01*
X97960414Y-78943570D01*
X97960414Y-78943571D01*
X97942377Y-79080580D01*
X97940729Y-79093096D01*
X95658472Y-79093096D01*
X95640276Y-78942733D01*
X95584280Y-78794546D01*
X95571526Y-78775989D01*
X95498855Y-78670251D01*
X95498854Y-78670249D01*
X95494553Y-78663992D01*
X95421681Y-78599065D01*
X95384126Y-78538816D01*
X95379500Y-78504989D01*
X95379500Y-77194730D01*
X95399502Y-77126609D01*
X95423669Y-77098919D01*
X95479536Y-77051204D01*
X95485314Y-77046269D01*
X95577755Y-76917624D01*
X95636842Y-76770641D01*
X95643392Y-76724619D01*
X95658581Y-76617891D01*
X95658581Y-76617888D01*
X95659162Y-76613807D01*
X95659307Y-76600000D01*
X95640276Y-76442733D01*
X95584280Y-76294546D01*
X95494553Y-76163992D01*
X95376275Y-76058611D01*
X95368889Y-76054700D01*
X95242988Y-75988039D01*
X95242989Y-75988039D01*
X95236274Y-75984484D01*
X95082633Y-75945892D01*
X95075034Y-75945852D01*
X95075033Y-75945852D01*
X95009181Y-75945507D01*
X94924221Y-75945062D01*
X94916841Y-75946834D01*
X94916839Y-75946834D01*
X94777563Y-75980271D01*
X94777560Y-75980272D01*
X94770184Y-75982043D01*
X94629414Y-76054700D01*
X94510039Y-76158838D01*
X94418950Y-76288444D01*
X94407469Y-76317891D01*
X94366016Y-76424214D01*
X94361406Y-76436037D01*
X94360414Y-76443570D01*
X94360414Y-76443571D01*
X94344604Y-76563664D01*
X94340729Y-76593096D01*
X94344119Y-76623798D01*
X94357196Y-76742244D01*
X94358113Y-76750553D01*
X94412553Y-76899319D01*
X94500908Y-77030805D01*
X94506527Y-77035918D01*
X94506528Y-77035919D01*
X94579299Y-77102135D01*
X94616222Y-77162775D01*
X94620500Y-77195329D01*
X94620500Y-78505187D01*
X94600498Y-78573308D01*
X94577330Y-78600135D01*
X94510039Y-78658838D01*
X94505672Y-78665051D01*
X94505667Y-78665057D01*
X94504336Y-78666951D01*
X94503013Y-78668005D01*
X94500589Y-78670697D01*
X94500140Y-78670293D01*
X94448802Y-78711183D01*
X94401250Y-78720500D01*
X93235182Y-78720500D01*
X93167061Y-78700498D01*
X93140614Y-78674860D01*
X93139378Y-78675949D01*
X93134355Y-78670251D01*
X93130053Y-78663992D01*
X93011775Y-78558611D01*
X93004389Y-78554700D01*
X92903216Y-78501132D01*
X92871774Y-78484484D01*
X92718133Y-78445892D01*
X92710534Y-78445852D01*
X92710533Y-78445852D01*
X92644681Y-78445507D01*
X92559721Y-78445062D01*
X92552341Y-78446834D01*
X92552339Y-78446834D01*
X92413063Y-78480271D01*
X92413060Y-78480272D01*
X92405684Y-78482043D01*
X92264914Y-78554700D01*
X92145539Y-78658838D01*
X92054450Y-78788444D01*
X91996906Y-78936037D01*
X91995914Y-78943570D01*
X91995914Y-78943571D01*
X91977877Y-79080580D01*
X91976229Y-79093096D01*
X85778994Y-79093096D01*
X85780541Y-79088540D01*
X85782674Y-79080580D01*
X85838707Y-78798880D01*
X85839781Y-78790722D01*
X85858566Y-78504119D01*
X85858566Y-78495881D01*
X85839781Y-78209278D01*
X85838707Y-78201120D01*
X85782674Y-77919420D01*
X85780541Y-77911460D01*
X85688216Y-77639481D01*
X85685070Y-77631886D01*
X85558036Y-77374286D01*
X85553915Y-77367149D01*
X85394348Y-77128340D01*
X85389332Y-77121803D01*
X85377017Y-77107760D01*
X85363778Y-77099363D01*
X85354014Y-77105196D01*
X83972022Y-78487188D01*
X83964408Y-78501132D01*
X83234356Y-78501132D01*
X83235592Y-78498868D01*
X83235461Y-78497035D01*
X83231210Y-78490420D01*
X81847741Y-77106951D01*
X81833980Y-77099437D01*
X81824619Y-77105895D01*
X81810668Y-77121803D01*
X81805652Y-77128340D01*
X81646085Y-77367149D01*
X81641964Y-77374286D01*
X81514930Y-77631886D01*
X81511784Y-77639481D01*
X81419459Y-77911460D01*
X81417326Y-77919420D01*
X81361293Y-78201120D01*
X81360219Y-78209278D01*
X81341434Y-78495881D01*
X81341434Y-78504119D01*
X75254000Y-78504119D01*
X75254000Y-76736222D01*
X82199363Y-76736222D01*
X82205196Y-76745986D01*
X83587188Y-78127978D01*
X83601132Y-78135592D01*
X83602965Y-78135461D01*
X83609580Y-78131210D01*
X84993049Y-76747741D01*
X85000563Y-76733980D01*
X84994105Y-76724619D01*
X84978197Y-76710668D01*
X84971660Y-76705652D01*
X84732851Y-76546085D01*
X84725714Y-76541964D01*
X84468114Y-76414930D01*
X84460519Y-76411784D01*
X84188540Y-76319459D01*
X84180580Y-76317326D01*
X83898880Y-76261293D01*
X83890722Y-76260219D01*
X83604119Y-76241434D01*
X83595881Y-76241434D01*
X83309278Y-76260219D01*
X83301120Y-76261293D01*
X83019420Y-76317326D01*
X83011460Y-76319459D01*
X82739481Y-76411784D01*
X82731886Y-76414930D01*
X82474286Y-76541964D01*
X82467149Y-76546085D01*
X82228340Y-76705652D01*
X82221803Y-76710668D01*
X82207760Y-76722983D01*
X82199363Y-76736222D01*
X75254000Y-76736222D01*
X75254000Y-74652938D01*
X85771892Y-74652938D01*
X85776801Y-74659496D01*
X85880612Y-74717514D01*
X85891851Y-74722424D01*
X86076715Y-74782490D01*
X86088689Y-74785123D01*
X86281708Y-74808139D01*
X86293957Y-74808396D01*
X86487769Y-74793483D01*
X86499849Y-74791352D01*
X86687061Y-74739081D01*
X86698494Y-74734647D01*
X86839749Y-74663294D01*
X86850033Y-74653649D01*
X86847795Y-74647005D01*
X86322812Y-74122022D01*
X86308868Y-74114408D01*
X86307035Y-74114539D01*
X86300420Y-74118790D01*
X85778652Y-74640558D01*
X85771892Y-74652938D01*
X75254000Y-74652938D01*
X75254000Y-73741357D01*
X85251519Y-73741357D01*
X85267783Y-73935049D01*
X85269997Y-73947108D01*
X85323576Y-74133961D01*
X85328089Y-74145358D01*
X85396984Y-74279414D01*
X85406701Y-74289632D01*
X85413502Y-74287288D01*
X85937978Y-73762812D01*
X85944356Y-73751132D01*
X86674408Y-73751132D01*
X86674539Y-73752965D01*
X86678790Y-73759580D01*
X87213213Y-74294003D01*
X87210826Y-74296390D01*
X87240086Y-74325646D01*
X87255501Y-74386037D01*
X87255501Y-74575066D01*
X87270266Y-74649301D01*
X87326516Y-74733484D01*
X87410699Y-74789734D01*
X87484933Y-74804500D01*
X88309866Y-74804500D01*
X89135066Y-74804499D01*
X89170818Y-74797388D01*
X89197126Y-74792156D01*
X89197128Y-74792155D01*
X89209301Y-74789734D01*
X89219621Y-74782839D01*
X89219622Y-74782838D01*
X89283168Y-74740377D01*
X89293484Y-74733484D01*
X89349734Y-74649301D01*
X89364500Y-74575067D01*
X89364499Y-73693096D01*
X90740729Y-73693096D01*
X90747339Y-73752965D01*
X90755933Y-73830805D01*
X90758113Y-73850553D01*
X90760723Y-73857684D01*
X90760723Y-73857686D01*
X90793447Y-73947108D01*
X90812553Y-73999319D01*
X90816789Y-74005622D01*
X90816789Y-74005623D01*
X90889978Y-74114539D01*
X90900908Y-74130805D01*
X90906527Y-74135918D01*
X90906528Y-74135919D01*
X90917903Y-74146269D01*
X91018076Y-74237419D01*
X91157293Y-74313008D01*
X91310522Y-74353207D01*
X91394477Y-74354526D01*
X91461319Y-74355576D01*
X91461322Y-74355576D01*
X91468916Y-74355695D01*
X91623332Y-74320329D01*
X91704683Y-74279414D01*
X91758072Y-74252563D01*
X91758075Y-74252561D01*
X91764855Y-74249151D01*
X91770626Y-74244222D01*
X91770629Y-74244220D01*
X91879536Y-74151204D01*
X91879536Y-74151203D01*
X91885314Y-74146269D01*
X91977755Y-74017624D01*
X92036842Y-73870641D01*
X92058252Y-73720202D01*
X92087652Y-73655579D01*
X92093900Y-73648860D01*
X92349664Y-73393096D01*
X112440729Y-73393096D01*
X112449421Y-73471824D01*
X112455729Y-73528957D01*
X112458113Y-73550553D01*
X112460723Y-73557684D01*
X112460723Y-73557686D01*
X112507520Y-73685565D01*
X112512553Y-73699319D01*
X112516789Y-73705622D01*
X112516789Y-73705623D01*
X112566570Y-73779704D01*
X112600908Y-73830805D01*
X112606527Y-73835918D01*
X112606528Y-73835919D01*
X112617903Y-73846269D01*
X112718076Y-73937419D01*
X112857293Y-74013008D01*
X113010522Y-74053207D01*
X113094477Y-74054526D01*
X113161319Y-74055576D01*
X113161322Y-74055576D01*
X113168916Y-74055695D01*
X113323332Y-74020329D01*
X113393742Y-73984917D01*
X113458072Y-73952563D01*
X113458075Y-73952561D01*
X113464855Y-73949151D01*
X113470626Y-73944222D01*
X113470629Y-73944220D01*
X113579536Y-73851204D01*
X113579536Y-73851203D01*
X113585314Y-73846269D01*
X113677755Y-73717624D01*
X113736842Y-73570641D01*
X113759162Y-73413807D01*
X113759307Y-73400000D01*
X113757564Y-73385592D01*
X113750928Y-73330756D01*
X113740276Y-73242733D01*
X113684280Y-73094546D01*
X113594553Y-72963992D01*
X113588876Y-72958934D01*
X113585987Y-72955657D01*
X113555941Y-72891331D01*
X113554500Y-72872330D01*
X113554500Y-72500000D01*
X114163055Y-72500000D01*
X114182796Y-72725646D01*
X114241421Y-72944436D01*
X114243743Y-72949416D01*
X114243744Y-72949418D01*
X114319636Y-73112167D01*
X114337148Y-73149722D01*
X114467067Y-73335267D01*
X114627233Y-73495433D01*
X114812778Y-73625352D01*
X114817756Y-73627673D01*
X114817759Y-73627675D01*
X115013082Y-73718756D01*
X115018064Y-73721079D01*
X115023372Y-73722501D01*
X115023374Y-73722502D01*
X115078183Y-73737188D01*
X115236854Y-73779704D01*
X115316071Y-73786634D01*
X115403252Y-73794262D01*
X115403261Y-73794262D01*
X115405977Y-73794500D01*
X117039023Y-73794500D01*
X117041739Y-73794262D01*
X117041748Y-73794262D01*
X117128929Y-73786634D01*
X117208146Y-73779704D01*
X117366817Y-73737188D01*
X117421626Y-73722502D01*
X117421628Y-73722501D01*
X117426936Y-73721079D01*
X117431918Y-73718756D01*
X117627241Y-73627675D01*
X117627244Y-73627673D01*
X117632222Y-73625352D01*
X117817767Y-73495433D01*
X117977933Y-73335267D01*
X117981093Y-73330755D01*
X118104695Y-73154232D01*
X118104698Y-73154227D01*
X118107852Y-73149723D01*
X118110175Y-73144741D01*
X118110178Y-73144736D01*
X118201256Y-72949418D01*
X118201257Y-72949417D01*
X118203579Y-72944436D01*
X118262204Y-72725646D01*
X118281945Y-72500000D01*
X118262204Y-72274354D01*
X118203579Y-72055564D01*
X118180291Y-72005623D01*
X118110175Y-71855259D01*
X118110173Y-71855256D01*
X118107852Y-71850278D01*
X117977933Y-71664733D01*
X117817767Y-71504567D01*
X117632222Y-71374648D01*
X117627244Y-71372327D01*
X117627241Y-71372325D01*
X117431918Y-71281244D01*
X117431916Y-71281243D01*
X117426936Y-71278921D01*
X117421628Y-71277499D01*
X117421626Y-71277498D01*
X117319002Y-71250000D01*
X117208146Y-71220296D01*
X117128929Y-71213366D01*
X117041748Y-71205738D01*
X117041739Y-71205738D01*
X117039023Y-71205500D01*
X115405977Y-71205500D01*
X115403261Y-71205738D01*
X115403252Y-71205738D01*
X115316071Y-71213366D01*
X115236854Y-71220296D01*
X115125998Y-71250000D01*
X115023374Y-71277498D01*
X115023372Y-71277499D01*
X115018064Y-71278921D01*
X115013084Y-71281243D01*
X115013082Y-71281244D01*
X114817759Y-71372325D01*
X114817756Y-71372327D01*
X114812778Y-71374648D01*
X114627233Y-71504567D01*
X114467067Y-71664733D01*
X114463910Y-71669241D01*
X114463908Y-71669244D01*
X114342241Y-71843003D01*
X114337148Y-71850277D01*
X114334825Y-71855259D01*
X114334822Y-71855264D01*
X114261424Y-72012667D01*
X114241421Y-72055564D01*
X114182796Y-72274354D01*
X114163055Y-72500000D01*
X113554500Y-72500000D01*
X113554500Y-72227556D01*
X113574502Y-72159435D01*
X113583408Y-72147897D01*
X113585314Y-72146269D01*
X113677755Y-72017624D01*
X113736842Y-71870641D01*
X113759162Y-71713807D01*
X113759307Y-71700000D01*
X113740276Y-71542733D01*
X113684280Y-71394546D01*
X113606410Y-71281244D01*
X113598855Y-71270251D01*
X113598854Y-71270249D01*
X113594553Y-71263992D01*
X113476275Y-71158611D01*
X113468889Y-71154700D01*
X113342988Y-71088039D01*
X113342989Y-71088039D01*
X113336274Y-71084484D01*
X113182633Y-71045892D01*
X113175034Y-71045852D01*
X113175033Y-71045852D01*
X113109181Y-71045507D01*
X113024221Y-71045062D01*
X113016841Y-71046834D01*
X113016839Y-71046834D01*
X112877563Y-71080271D01*
X112877560Y-71080272D01*
X112870184Y-71082043D01*
X112729414Y-71154700D01*
X112610039Y-71258838D01*
X112518950Y-71388444D01*
X112516190Y-71395524D01*
X112473676Y-71504567D01*
X112461406Y-71536037D01*
X112460414Y-71543570D01*
X112460414Y-71543571D01*
X112444976Y-71660838D01*
X112440729Y-71693096D01*
X112447835Y-71757461D01*
X112455715Y-71828831D01*
X112458113Y-71850553D01*
X112512553Y-71999319D01*
X112516789Y-72005622D01*
X112516789Y-72005623D01*
X112524659Y-72017334D01*
X112600908Y-72130805D01*
X112606527Y-72135918D01*
X112611489Y-72141666D01*
X112609881Y-72143054D01*
X112641224Y-72194540D01*
X112645500Y-72227085D01*
X112645500Y-72872451D01*
X112625498Y-72940572D01*
X112614565Y-72954890D01*
X112610039Y-72958838D01*
X112518950Y-73088444D01*
X112516190Y-73095524D01*
X112470896Y-73211697D01*
X112461406Y-73236037D01*
X112460414Y-73243570D01*
X112460414Y-73243571D01*
X112442160Y-73382228D01*
X112440729Y-73393096D01*
X92349664Y-73393096D01*
X92997011Y-72745749D01*
X93008100Y-72735894D01*
X93021099Y-72725646D01*
X93035059Y-72714641D01*
X93068742Y-72665906D01*
X93071024Y-72662713D01*
X93106209Y-72615076D01*
X93108623Y-72608203D01*
X93112764Y-72602211D01*
X93130629Y-72545722D01*
X93131880Y-72541973D01*
X93151493Y-72486126D01*
X93151776Y-72478922D01*
X93151809Y-72478751D01*
X93153975Y-72471903D01*
X93154500Y-72465232D01*
X93154500Y-72412062D01*
X93154597Y-72407116D01*
X93156488Y-72358973D01*
X93156858Y-72349563D01*
X93154961Y-72342408D01*
X93154500Y-72334030D01*
X93154500Y-68227556D01*
X93174502Y-68159435D01*
X93183408Y-68147897D01*
X93185314Y-68146269D01*
X93277755Y-68017624D01*
X93336842Y-67870641D01*
X93359162Y-67713807D01*
X93359307Y-67700000D01*
X93357676Y-67686522D01*
X114194267Y-67686522D01*
X114240470Y-67858955D01*
X114244216Y-67869247D01*
X114335256Y-68064484D01*
X114340739Y-68073979D01*
X114464293Y-68250433D01*
X114471349Y-68258841D01*
X114623659Y-68411151D01*
X114632067Y-68418207D01*
X114808521Y-68541761D01*
X114818016Y-68547244D01*
X115013253Y-68638284D01*
X115023545Y-68642030D01*
X115231626Y-68697785D01*
X115242421Y-68699688D01*
X115403278Y-68713762D01*
X115408742Y-68714000D01*
X115950385Y-68714000D01*
X115965624Y-68709525D01*
X115966829Y-68708135D01*
X115968500Y-68700452D01*
X115968500Y-68695885D01*
X116476500Y-68695885D01*
X116480975Y-68711124D01*
X116482365Y-68712329D01*
X116490048Y-68714000D01*
X117036258Y-68714000D01*
X117041722Y-68713762D01*
X117202579Y-68699688D01*
X117213374Y-68697785D01*
X117421455Y-68642030D01*
X117431747Y-68638284D01*
X117626984Y-68547244D01*
X117636479Y-68541761D01*
X117812933Y-68418207D01*
X117821341Y-68411151D01*
X117973651Y-68258841D01*
X117980707Y-68250433D01*
X118104261Y-68073980D01*
X118109744Y-68064485D01*
X118200784Y-67869247D01*
X118204530Y-67858955D01*
X118249400Y-67691497D01*
X118249064Y-67677401D01*
X118241122Y-67674000D01*
X116494615Y-67674000D01*
X116479376Y-67678475D01*
X116478171Y-67679865D01*
X116476500Y-67687548D01*
X116476500Y-68695885D01*
X115968500Y-68695885D01*
X115968500Y-67692115D01*
X115964025Y-67676876D01*
X115962635Y-67675671D01*
X115954952Y-67674000D01*
X114209027Y-67674000D01*
X114195496Y-67677973D01*
X114194267Y-67686522D01*
X93357676Y-67686522D01*
X93356871Y-67679865D01*
X93351181Y-67632851D01*
X93340276Y-67542733D01*
X93284280Y-67394546D01*
X93230927Y-67316916D01*
X93198855Y-67270251D01*
X93198854Y-67270249D01*
X93194553Y-67263992D01*
X93076275Y-67158611D01*
X93068889Y-67154700D01*
X92942988Y-67088039D01*
X92942989Y-67088039D01*
X92936274Y-67084484D01*
X92782633Y-67045892D01*
X92775034Y-67045852D01*
X92775033Y-67045852D01*
X92709181Y-67045507D01*
X92624221Y-67045062D01*
X92616841Y-67046834D01*
X92616839Y-67046834D01*
X92477563Y-67080271D01*
X92477560Y-67080272D01*
X92470184Y-67082043D01*
X92329414Y-67154700D01*
X92210039Y-67258838D01*
X92118950Y-67388444D01*
X92061406Y-67536037D01*
X92060414Y-67543570D01*
X92060414Y-67543571D01*
X92042471Y-67679865D01*
X92040729Y-67693096D01*
X92058113Y-67850553D01*
X92060723Y-67857684D01*
X92060723Y-67857686D01*
X92074051Y-67894105D01*
X92112553Y-67999319D01*
X92200908Y-68130805D01*
X92206527Y-68135918D01*
X92211489Y-68141666D01*
X92209881Y-68143054D01*
X92241224Y-68194540D01*
X92245500Y-68227085D01*
X92245500Y-72159550D01*
X92225498Y-72227671D01*
X92208595Y-72248645D01*
X91448898Y-73008342D01*
X91386586Y-73042368D01*
X91359145Y-73045245D01*
X91324221Y-73045062D01*
X91316841Y-73046834D01*
X91316839Y-73046834D01*
X91177563Y-73080271D01*
X91177560Y-73080272D01*
X91170184Y-73082043D01*
X91029414Y-73154700D01*
X90910039Y-73258838D01*
X90818950Y-73388444D01*
X90761406Y-73536037D01*
X90760414Y-73543570D01*
X90760414Y-73543571D01*
X90746553Y-73648860D01*
X90740729Y-73693096D01*
X89364499Y-73693096D01*
X89364499Y-72924934D01*
X89357388Y-72889182D01*
X89352156Y-72862874D01*
X89352155Y-72862872D01*
X89349734Y-72850699D01*
X89340731Y-72837224D01*
X89300377Y-72776832D01*
X89293484Y-72766516D01*
X89209301Y-72710266D01*
X89135067Y-72695500D01*
X88310134Y-72695500D01*
X87484934Y-72695501D01*
X87449182Y-72702612D01*
X87422874Y-72707844D01*
X87422872Y-72707845D01*
X87410699Y-72710266D01*
X87400379Y-72717161D01*
X87400378Y-72717162D01*
X87339985Y-72757516D01*
X87326516Y-72766516D01*
X87270266Y-72850699D01*
X87255500Y-72924933D01*
X87255500Y-73112167D01*
X87235498Y-73180288D01*
X87213951Y-73205017D01*
X87214072Y-73205138D01*
X87212308Y-73206902D01*
X87211489Y-73207842D01*
X87210643Y-73208567D01*
X86682022Y-73737188D01*
X86674408Y-73751132D01*
X85944356Y-73751132D01*
X85945592Y-73748868D01*
X85945461Y-73747035D01*
X85941210Y-73740420D01*
X85419247Y-73218457D01*
X85406867Y-73211697D01*
X85400479Y-73216479D01*
X85339510Y-73327381D01*
X85334682Y-73338645D01*
X85275906Y-73523931D01*
X85273358Y-73535920D01*
X85251690Y-73729088D01*
X85251519Y-73741357D01*
X75254000Y-73741357D01*
X75254000Y-72847012D01*
X85770730Y-72847012D01*
X85773183Y-72853973D01*
X86297188Y-73377978D01*
X86311132Y-73385592D01*
X86312965Y-73385461D01*
X86319580Y-73381210D01*
X86841777Y-72859013D01*
X86848537Y-72846633D01*
X86843878Y-72840410D01*
X86725836Y-72776585D01*
X86714531Y-72771833D01*
X86528849Y-72714354D01*
X86516836Y-72711888D01*
X86323522Y-72691570D01*
X86311254Y-72691485D01*
X86117683Y-72709101D01*
X86105634Y-72711399D01*
X85919163Y-72766281D01*
X85907795Y-72770874D01*
X85780879Y-72837224D01*
X85770730Y-72847012D01*
X75254000Y-72847012D01*
X75254000Y-71235206D01*
X85250501Y-71235206D01*
X85267806Y-71441278D01*
X85324807Y-71640066D01*
X85327625Y-71645548D01*
X85327626Y-71645552D01*
X85416514Y-71818509D01*
X85416517Y-71818513D01*
X85419334Y-71823995D01*
X85547786Y-71986061D01*
X85705271Y-72120091D01*
X85885789Y-72220980D01*
X86082466Y-72284884D01*
X86287809Y-72309370D01*
X86293944Y-72308898D01*
X86293946Y-72308898D01*
X86487856Y-72293977D01*
X86487860Y-72293976D01*
X86493998Y-72293504D01*
X86693178Y-72237892D01*
X86698682Y-72235112D01*
X86698684Y-72235111D01*
X86872262Y-72147431D01*
X86872264Y-72147430D01*
X86877763Y-72144652D01*
X87040722Y-72017334D01*
X87044748Y-72012670D01*
X87044751Y-72012667D01*
X87171819Y-71865457D01*
X87171820Y-71865455D01*
X87175848Y-71860789D01*
X87198603Y-71820733D01*
X87249643Y-71771383D01*
X87319262Y-71757461D01*
X87385355Y-71783388D01*
X87414073Y-71814719D01*
X87416512Y-71818503D01*
X87419334Y-71823995D01*
X87547786Y-71986061D01*
X87705271Y-72120091D01*
X87885789Y-72220980D01*
X88082466Y-72284884D01*
X88287809Y-72309370D01*
X88293944Y-72308898D01*
X88293946Y-72308898D01*
X88487856Y-72293977D01*
X88487860Y-72293976D01*
X88493998Y-72293504D01*
X88693178Y-72237892D01*
X88698682Y-72235112D01*
X88698684Y-72235111D01*
X88872262Y-72147431D01*
X88872264Y-72147430D01*
X88877763Y-72144652D01*
X89040722Y-72017334D01*
X89044748Y-72012670D01*
X89044751Y-72012667D01*
X89171819Y-71865457D01*
X89171820Y-71865455D01*
X89175848Y-71860789D01*
X89259346Y-71713807D01*
X89274950Y-71686340D01*
X89274952Y-71686336D01*
X89277995Y-71680979D01*
X89326210Y-71536037D01*
X89341325Y-71490601D01*
X89341326Y-71490598D01*
X89343270Y-71484753D01*
X89369189Y-71279586D01*
X89369602Y-71250000D01*
X89349422Y-71044189D01*
X89289651Y-70846217D01*
X89221456Y-70717961D01*
X89195459Y-70669067D01*
X89195457Y-70669064D01*
X89192565Y-70663625D01*
X89188674Y-70658855D01*
X89188672Y-70658851D01*
X89065758Y-70508143D01*
X89065755Y-70508140D01*
X89061863Y-70503368D01*
X89054966Y-70497662D01*
X88907271Y-70375478D01*
X88907266Y-70375475D01*
X88902522Y-70371550D01*
X88897103Y-70368620D01*
X88897100Y-70368618D01*
X88726032Y-70276122D01*
X88726027Y-70276120D01*
X88720612Y-70273192D01*
X88523063Y-70212040D01*
X88516938Y-70211396D01*
X88516937Y-70211396D01*
X88323526Y-70191068D01*
X88323524Y-70191068D01*
X88317397Y-70190424D01*
X88191229Y-70201906D01*
X88117591Y-70208607D01*
X88117590Y-70208607D01*
X88111450Y-70209166D01*
X87913066Y-70267554D01*
X87907601Y-70270411D01*
X87735261Y-70360508D01*
X87735257Y-70360511D01*
X87729801Y-70363363D01*
X87568635Y-70492943D01*
X87435708Y-70651360D01*
X87421054Y-70678015D01*
X87370710Y-70728070D01*
X87301293Y-70742963D01*
X87234844Y-70717961D01*
X87199393Y-70676466D01*
X87192565Y-70663625D01*
X87188674Y-70658855D01*
X87188672Y-70658851D01*
X87065758Y-70508143D01*
X87065755Y-70508140D01*
X87061863Y-70503368D01*
X87054966Y-70497662D01*
X86907271Y-70375478D01*
X86907266Y-70375475D01*
X86902522Y-70371550D01*
X86897103Y-70368620D01*
X86897100Y-70368618D01*
X86726032Y-70276122D01*
X86726027Y-70276120D01*
X86720612Y-70273192D01*
X86523063Y-70212040D01*
X86516938Y-70211396D01*
X86516937Y-70211396D01*
X86323526Y-70191068D01*
X86323524Y-70191068D01*
X86317397Y-70190424D01*
X86191229Y-70201906D01*
X86117591Y-70208607D01*
X86117590Y-70208607D01*
X86111450Y-70209166D01*
X85913066Y-70267554D01*
X85907601Y-70270411D01*
X85735261Y-70360508D01*
X85735257Y-70360511D01*
X85729801Y-70363363D01*
X85568635Y-70492943D01*
X85435708Y-70651360D01*
X85336082Y-70832578D01*
X85273553Y-71029696D01*
X85272867Y-71035813D01*
X85272866Y-71035817D01*
X85258972Y-71159689D01*
X85250501Y-71235206D01*
X75254000Y-71235206D01*
X75254000Y-68266020D01*
X82199437Y-68266020D01*
X82205895Y-68275381D01*
X82221803Y-68289332D01*
X82228340Y-68294348D01*
X82467149Y-68453915D01*
X82474286Y-68458036D01*
X82731886Y-68585070D01*
X82739481Y-68588216D01*
X83011460Y-68680541D01*
X83019420Y-68682674D01*
X83301120Y-68738707D01*
X83309278Y-68739781D01*
X83595881Y-68758566D01*
X83604119Y-68758566D01*
X83890722Y-68739781D01*
X83898880Y-68738707D01*
X84180580Y-68682674D01*
X84188540Y-68680541D01*
X84460519Y-68588216D01*
X84468114Y-68585070D01*
X84725714Y-68458036D01*
X84732851Y-68453915D01*
X84971660Y-68294348D01*
X84978197Y-68289332D01*
X84992240Y-68277017D01*
X85000637Y-68263778D01*
X84994804Y-68254014D01*
X83612812Y-66872022D01*
X83598868Y-66864408D01*
X83597035Y-66864539D01*
X83590420Y-66868790D01*
X82206951Y-68252259D01*
X82199437Y-68266020D01*
X75254000Y-68266020D01*
X75254000Y-66504119D01*
X81341434Y-66504119D01*
X81360219Y-66790722D01*
X81361293Y-66798880D01*
X81417326Y-67080580D01*
X81419459Y-67088540D01*
X81511784Y-67360519D01*
X81514930Y-67368114D01*
X81641964Y-67625714D01*
X81646085Y-67632851D01*
X81805652Y-67871660D01*
X81810668Y-67878197D01*
X81822983Y-67892240D01*
X81836222Y-67900637D01*
X81845986Y-67894804D01*
X83227978Y-66512812D01*
X83234356Y-66501132D01*
X83964408Y-66501132D01*
X83964539Y-66502965D01*
X83968790Y-66509580D01*
X85352259Y-67893049D01*
X85366020Y-67900563D01*
X85375381Y-67894105D01*
X85389332Y-67878197D01*
X85394348Y-67871660D01*
X85553915Y-67632851D01*
X85558036Y-67625714D01*
X85685070Y-67368114D01*
X85688216Y-67360519D01*
X85780541Y-67088540D01*
X85782674Y-67080580D01*
X85838707Y-66798880D01*
X85839781Y-66790722D01*
X85858566Y-66504119D01*
X85858566Y-66495881D01*
X85839781Y-66209278D01*
X85838707Y-66201120D01*
X85837111Y-66193096D01*
X99666229Y-66193096D01*
X99683613Y-66350553D01*
X99686223Y-66357684D01*
X99686223Y-66357686D01*
X99733614Y-66487188D01*
X99738053Y-66499319D01*
X99826408Y-66630805D01*
X99832027Y-66635918D01*
X99832028Y-66635919D01*
X99922115Y-66717891D01*
X99943576Y-66737419D01*
X100082793Y-66813008D01*
X100236022Y-66853207D01*
X100319977Y-66854526D01*
X100386819Y-66855576D01*
X100386822Y-66855576D01*
X100394416Y-66855695D01*
X100548832Y-66820329D01*
X100690355Y-66749151D01*
X100765832Y-66684688D01*
X100830619Y-66655658D01*
X100847660Y-66654500D01*
X101723613Y-66654500D01*
X101791734Y-66674502D01*
X101838227Y-66728158D01*
X101848852Y-66766673D01*
X101853968Y-66813008D01*
X101858113Y-66850553D01*
X101860723Y-66857684D01*
X101860723Y-66857686D01*
X101905866Y-66981045D01*
X101912553Y-66999319D01*
X101916789Y-67005622D01*
X101916789Y-67005623D01*
X101969782Y-67084484D01*
X102000908Y-67130805D01*
X102006527Y-67135918D01*
X102006528Y-67135919D01*
X102039587Y-67166000D01*
X102118076Y-67237419D01*
X102257293Y-67313008D01*
X102410522Y-67353207D01*
X102494477Y-67354526D01*
X102561319Y-67355576D01*
X102561322Y-67355576D01*
X102568916Y-67355695D01*
X102723332Y-67320329D01*
X102822902Y-67270251D01*
X102858072Y-67252563D01*
X102858075Y-67252561D01*
X102864855Y-67249151D01*
X102870626Y-67244222D01*
X102870629Y-67244220D01*
X102979536Y-67151204D01*
X102979536Y-67151203D01*
X102982698Y-67148503D01*
X114195600Y-67148503D01*
X114195936Y-67162599D01*
X114203878Y-67166000D01*
X115950385Y-67166000D01*
X115965624Y-67161525D01*
X115966829Y-67160135D01*
X115968500Y-67152452D01*
X115968500Y-67147885D01*
X116476500Y-67147885D01*
X116480975Y-67163124D01*
X116482365Y-67164329D01*
X116490048Y-67166000D01*
X118235973Y-67166000D01*
X118249504Y-67162027D01*
X118250733Y-67153478D01*
X118204530Y-66981045D01*
X118200784Y-66970753D01*
X118109744Y-66775516D01*
X118104261Y-66766021D01*
X117980707Y-66589567D01*
X117973651Y-66581159D01*
X117821341Y-66428849D01*
X117812933Y-66421793D01*
X117636479Y-66298239D01*
X117626984Y-66292756D01*
X117431747Y-66201716D01*
X117421455Y-66197970D01*
X117213374Y-66142215D01*
X117202579Y-66140312D01*
X117041722Y-66126238D01*
X117036258Y-66126000D01*
X116494615Y-66126000D01*
X116479376Y-66130475D01*
X116478171Y-66131865D01*
X116476500Y-66139548D01*
X116476500Y-67147885D01*
X115968500Y-67147885D01*
X115968500Y-66144115D01*
X115964025Y-66128876D01*
X115962635Y-66127671D01*
X115954952Y-66126000D01*
X115408742Y-66126000D01*
X115403278Y-66126238D01*
X115242421Y-66140312D01*
X115231626Y-66142215D01*
X115023545Y-66197970D01*
X115013253Y-66201716D01*
X114818016Y-66292756D01*
X114808521Y-66298239D01*
X114632067Y-66421793D01*
X114623659Y-66428849D01*
X114471349Y-66581159D01*
X114464293Y-66589567D01*
X114340739Y-66766020D01*
X114335256Y-66775515D01*
X114244216Y-66970753D01*
X114240470Y-66981045D01*
X114195600Y-67148503D01*
X102982698Y-67148503D01*
X102985314Y-67146269D01*
X103077755Y-67017624D01*
X103136842Y-66870641D01*
X103159162Y-66713807D01*
X103159307Y-66700000D01*
X103156222Y-66674502D01*
X103153801Y-66654500D01*
X103140276Y-66542733D01*
X103084280Y-66394546D01*
X102994553Y-66263992D01*
X102876275Y-66158611D01*
X102736274Y-66084484D01*
X102675399Y-66069193D01*
X102624444Y-66056394D01*
X102566045Y-66023285D01*
X102445749Y-65902989D01*
X102435894Y-65891900D01*
X102428269Y-65882228D01*
X102414641Y-65864941D01*
X102389762Y-65847746D01*
X102365906Y-65831258D01*
X102362713Y-65828976D01*
X102315076Y-65793791D01*
X102308203Y-65791377D01*
X102302211Y-65787236D01*
X102245722Y-65769371D01*
X102242001Y-65768129D01*
X102186126Y-65748507D01*
X102178922Y-65748224D01*
X102178751Y-65748191D01*
X102171903Y-65746025D01*
X102165232Y-65745500D01*
X102112062Y-65745500D01*
X102107116Y-65745403D01*
X102106224Y-65745368D01*
X102049563Y-65743142D01*
X102042408Y-65745039D01*
X102034033Y-65745500D01*
X100847287Y-65745500D01*
X100779166Y-65725498D01*
X100763468Y-65713577D01*
X100707446Y-65663664D01*
X100701775Y-65658611D01*
X100694389Y-65654700D01*
X100568488Y-65588039D01*
X100568489Y-65588039D01*
X100561774Y-65584484D01*
X100408133Y-65545892D01*
X100400534Y-65545852D01*
X100400533Y-65545852D01*
X100334681Y-65545507D01*
X100249721Y-65545062D01*
X100242341Y-65546834D01*
X100242339Y-65546834D01*
X100103063Y-65580271D01*
X100103060Y-65580272D01*
X100095684Y-65582043D01*
X99954914Y-65654700D01*
X99835539Y-65758838D01*
X99744450Y-65888444D01*
X99732373Y-65919420D01*
X99691878Y-66023285D01*
X99686906Y-66036037D01*
X99685914Y-66043570D01*
X99685914Y-66043571D01*
X99670104Y-66163664D01*
X99666229Y-66193096D01*
X85837111Y-66193096D01*
X85782674Y-65919420D01*
X85780541Y-65911460D01*
X85688216Y-65639481D01*
X85685070Y-65631886D01*
X85558036Y-65374286D01*
X85553915Y-65367149D01*
X85394348Y-65128340D01*
X85389332Y-65121803D01*
X85377017Y-65107760D01*
X85363778Y-65099363D01*
X85354014Y-65105196D01*
X83972022Y-66487188D01*
X83964408Y-66501132D01*
X83234356Y-66501132D01*
X83235592Y-66498868D01*
X83235461Y-66497035D01*
X83231210Y-66490420D01*
X81847741Y-65106951D01*
X81833980Y-65099437D01*
X81824619Y-65105895D01*
X81810668Y-65121803D01*
X81805652Y-65128340D01*
X81646085Y-65367149D01*
X81641964Y-65374286D01*
X81514930Y-65631886D01*
X81511784Y-65639481D01*
X81419459Y-65911460D01*
X81417326Y-65919420D01*
X81361293Y-66201120D01*
X81360219Y-66209278D01*
X81341434Y-66495881D01*
X81341434Y-66504119D01*
X75254000Y-66504119D01*
X75254000Y-64736222D01*
X82199363Y-64736222D01*
X82205196Y-64745986D01*
X83587188Y-66127978D01*
X83601132Y-66135592D01*
X83602965Y-66135461D01*
X83609580Y-66131210D01*
X84993049Y-64747741D01*
X85000563Y-64733980D01*
X84994105Y-64724619D01*
X84978197Y-64710668D01*
X84971660Y-64705652D01*
X84732851Y-64546085D01*
X84725714Y-64541964D01*
X84468114Y-64414930D01*
X84460519Y-64411784D01*
X84188540Y-64319459D01*
X84180580Y-64317326D01*
X83898880Y-64261293D01*
X83890722Y-64260219D01*
X83604119Y-64241434D01*
X83595881Y-64241434D01*
X83309278Y-64260219D01*
X83301120Y-64261293D01*
X83019420Y-64317326D01*
X83011460Y-64319459D01*
X82739481Y-64411784D01*
X82731886Y-64414930D01*
X82474286Y-64541964D01*
X82467149Y-64546085D01*
X82228340Y-64705652D01*
X82221803Y-64710668D01*
X82207760Y-64722983D01*
X82199363Y-64736222D01*
X75254000Y-64736222D01*
X75254000Y-60178230D01*
X76599173Y-60178230D01*
X76638313Y-60544474D01*
X76716779Y-60904350D01*
X76833652Y-61253646D01*
X76987565Y-61588277D01*
X76989321Y-61591211D01*
X76989322Y-61591213D01*
X77045594Y-61685237D01*
X77176718Y-61904328D01*
X77398897Y-62198102D01*
X77651505Y-62466163D01*
X77654095Y-62468375D01*
X77654096Y-62468376D01*
X77661086Y-62474346D01*
X77931585Y-62705374D01*
X77934412Y-62707302D01*
X77934414Y-62707304D01*
X78025988Y-62769772D01*
X78235862Y-62912938D01*
X78250356Y-62920677D01*
X78557762Y-63084817D01*
X78557767Y-63084819D01*
X78560776Y-63086426D01*
X78563948Y-63087701D01*
X78563952Y-63087703D01*
X78899366Y-63222538D01*
X78899371Y-63222540D01*
X78902526Y-63223808D01*
X78905794Y-63224727D01*
X78905801Y-63224729D01*
X79253837Y-63322558D01*
X79253844Y-63322560D01*
X79257115Y-63323479D01*
X79260472Y-63324041D01*
X79260473Y-63324041D01*
X79617028Y-63383708D01*
X79617030Y-63383708D01*
X79620393Y-63384271D01*
X79844655Y-63397201D01*
X79900040Y-63400395D01*
X79900044Y-63400395D01*
X79901863Y-63400500D01*
X80092211Y-63400500D01*
X80093884Y-63400409D01*
X80093899Y-63400409D01*
X80264098Y-63391191D01*
X80367791Y-63385575D01*
X80731280Y-63326052D01*
X81086214Y-63227620D01*
X81089376Y-63226362D01*
X81089384Y-63226359D01*
X81425278Y-63092690D01*
X81428442Y-63091431D01*
X81485240Y-63061358D01*
X81750940Y-62920677D01*
X81750947Y-62920673D01*
X81753959Y-62919078D01*
X82058959Y-62712578D01*
X82339872Y-62474346D01*
X82593414Y-62207168D01*
X82816618Y-61914172D01*
X82820917Y-61907046D01*
X83005111Y-61601705D01*
X83005116Y-61601696D01*
X83006873Y-61598783D01*
X83161953Y-61264691D01*
X83164645Y-61256740D01*
X83278952Y-60919032D01*
X83278953Y-60919027D01*
X83280044Y-60915805D01*
X83359766Y-60556206D01*
X83400184Y-60190100D01*
X83400205Y-60178230D01*
X116599173Y-60178230D01*
X116638313Y-60544474D01*
X116716779Y-60904350D01*
X116833652Y-61253646D01*
X116987565Y-61588277D01*
X116989321Y-61591211D01*
X116989322Y-61591213D01*
X117045594Y-61685237D01*
X117176718Y-61904328D01*
X117398897Y-62198102D01*
X117651505Y-62466163D01*
X117654095Y-62468375D01*
X117654096Y-62468376D01*
X117661086Y-62474346D01*
X117931585Y-62705374D01*
X117934412Y-62707302D01*
X117934414Y-62707304D01*
X118025988Y-62769772D01*
X118235862Y-62912938D01*
X118250356Y-62920677D01*
X118557762Y-63084817D01*
X118557767Y-63084819D01*
X118560776Y-63086426D01*
X118563948Y-63087701D01*
X118563952Y-63087703D01*
X118899366Y-63222538D01*
X118899371Y-63222540D01*
X118902526Y-63223808D01*
X118905794Y-63224727D01*
X118905801Y-63224729D01*
X119253837Y-63322558D01*
X119253844Y-63322560D01*
X119257115Y-63323479D01*
X119260472Y-63324041D01*
X119260473Y-63324041D01*
X119617028Y-63383708D01*
X119617030Y-63383708D01*
X119620393Y-63384271D01*
X119844655Y-63397201D01*
X119900040Y-63400395D01*
X119900044Y-63400395D01*
X119901863Y-63400500D01*
X120092211Y-63400500D01*
X120093884Y-63400409D01*
X120093899Y-63400409D01*
X120264098Y-63391191D01*
X120367791Y-63385575D01*
X120731280Y-63326052D01*
X121086214Y-63227620D01*
X121089376Y-63226362D01*
X121089384Y-63226359D01*
X121425278Y-63092690D01*
X121428442Y-63091431D01*
X121485240Y-63061358D01*
X121750940Y-62920677D01*
X121750947Y-62920673D01*
X121753959Y-62919078D01*
X122058959Y-62712578D01*
X122339872Y-62474346D01*
X122593414Y-62207168D01*
X122816618Y-61914172D01*
X122820917Y-61907046D01*
X123005111Y-61601705D01*
X123005116Y-61601696D01*
X123006873Y-61598783D01*
X123161953Y-61264691D01*
X123164645Y-61256740D01*
X123278952Y-60919032D01*
X123278953Y-60919027D01*
X123280044Y-60915805D01*
X123359766Y-60556206D01*
X123400184Y-60190100D01*
X123400827Y-59821770D01*
X123361687Y-59455526D01*
X123283221Y-59095650D01*
X123166348Y-58746354D01*
X123012435Y-58411723D01*
X123004399Y-58398295D01*
X122825034Y-58098600D01*
X122823282Y-58095672D01*
X122601103Y-57801898D01*
X122348495Y-57533837D01*
X122341803Y-57528121D01*
X122071019Y-57296850D01*
X122068415Y-57294626D01*
X122057855Y-57287422D01*
X121974012Y-57230228D01*
X121764138Y-57087062D01*
X121498597Y-56945276D01*
X121442238Y-56915183D01*
X121442233Y-56915181D01*
X121439224Y-56913574D01*
X121436052Y-56912299D01*
X121436048Y-56912297D01*
X121100634Y-56777462D01*
X121100629Y-56777460D01*
X121097474Y-56776192D01*
X121094206Y-56775273D01*
X121094199Y-56775271D01*
X120746163Y-56677442D01*
X120746156Y-56677440D01*
X120742885Y-56676521D01*
X120739527Y-56675959D01*
X120382972Y-56616292D01*
X120382970Y-56616292D01*
X120379607Y-56615729D01*
X120155345Y-56602799D01*
X120099960Y-56599605D01*
X120099956Y-56599605D01*
X120098137Y-56599500D01*
X119907789Y-56599500D01*
X119906116Y-56599591D01*
X119906101Y-56599591D01*
X119735902Y-56608809D01*
X119632209Y-56614425D01*
X119268720Y-56673948D01*
X118913786Y-56772380D01*
X118910624Y-56773638D01*
X118910616Y-56773641D01*
X118634796Y-56883404D01*
X118571558Y-56908569D01*
X118514760Y-56938642D01*
X118249060Y-57079323D01*
X118249053Y-57079327D01*
X118246041Y-57080922D01*
X117941041Y-57287422D01*
X117660128Y-57525654D01*
X117406586Y-57792832D01*
X117183382Y-58085828D01*
X117181625Y-58088740D01*
X117181622Y-58088745D01*
X116994889Y-58398295D01*
X116994884Y-58398304D01*
X116993127Y-58401217D01*
X116838047Y-58735309D01*
X116836955Y-58738534D01*
X116836953Y-58738540D01*
X116825748Y-58771645D01*
X116719956Y-59084195D01*
X116640234Y-59443794D01*
X116599816Y-59809900D01*
X116599173Y-60178230D01*
X83400205Y-60178230D01*
X83400827Y-59821770D01*
X83361687Y-59455526D01*
X83283221Y-59095650D01*
X83166348Y-58746354D01*
X83012435Y-58411723D01*
X83004399Y-58398295D01*
X82825034Y-58098600D01*
X82823282Y-58095672D01*
X82601103Y-57801898D01*
X82348495Y-57533837D01*
X82341803Y-57528121D01*
X82071019Y-57296850D01*
X82068415Y-57294626D01*
X82057855Y-57287422D01*
X81974012Y-57230228D01*
X81764138Y-57087062D01*
X81498597Y-56945276D01*
X81442238Y-56915183D01*
X81442233Y-56915181D01*
X81439224Y-56913574D01*
X81436052Y-56912299D01*
X81436048Y-56912297D01*
X81100634Y-56777462D01*
X81100629Y-56777460D01*
X81097474Y-56776192D01*
X81094206Y-56775273D01*
X81094199Y-56775271D01*
X80746163Y-56677442D01*
X80746156Y-56677440D01*
X80742885Y-56676521D01*
X80739527Y-56675959D01*
X80382972Y-56616292D01*
X80382970Y-56616292D01*
X80379607Y-56615729D01*
X80155345Y-56602799D01*
X80099960Y-56599605D01*
X80099956Y-56599605D01*
X80098137Y-56599500D01*
X79907789Y-56599500D01*
X79906116Y-56599591D01*
X79906101Y-56599591D01*
X79735902Y-56608809D01*
X79632209Y-56614425D01*
X79268720Y-56673948D01*
X78913786Y-56772380D01*
X78910624Y-56773638D01*
X78910616Y-56773641D01*
X78634796Y-56883404D01*
X78571558Y-56908569D01*
X78514760Y-56938642D01*
X78249060Y-57079323D01*
X78249053Y-57079327D01*
X78246041Y-57080922D01*
X77941041Y-57287422D01*
X77660128Y-57525654D01*
X77406586Y-57792832D01*
X77183382Y-58085828D01*
X77181625Y-58088740D01*
X77181622Y-58088745D01*
X76994889Y-58398295D01*
X76994884Y-58398304D01*
X76993127Y-58401217D01*
X76838047Y-58735309D01*
X76836955Y-58738534D01*
X76836953Y-58738540D01*
X76825748Y-58771645D01*
X76719956Y-59084195D01*
X76640234Y-59443794D01*
X76599816Y-59809900D01*
X76599173Y-60178230D01*
X75254000Y-60178230D01*
X75254000Y-60037425D01*
X75256421Y-60012844D01*
X75258976Y-60000000D01*
X75256556Y-59987831D01*
X75256556Y-59977346D01*
X75255559Y-59964307D01*
X75271820Y-59591855D01*
X75272778Y-59580905D01*
X75289722Y-59452201D01*
X75325385Y-59181309D01*
X75327291Y-59170505D01*
X75414527Y-58777010D01*
X75417370Y-58766399D01*
X75427173Y-58735309D01*
X75538566Y-58382015D01*
X75542322Y-58371694D01*
X75696564Y-57999321D01*
X75701206Y-57989368D01*
X75754138Y-57887688D01*
X75887302Y-57631882D01*
X75892797Y-57622363D01*
X76109350Y-57282443D01*
X76115655Y-57273439D01*
X76361003Y-56953696D01*
X76368068Y-56945276D01*
X76521841Y-56777462D01*
X76640358Y-56648123D01*
X76648127Y-56640354D01*
X76675215Y-56615533D01*
X76945276Y-56368068D01*
X76953696Y-56361003D01*
X77273439Y-56115655D01*
X77282443Y-56109350D01*
X77622363Y-55892797D01*
X77631883Y-55887301D01*
X77702940Y-55850311D01*
X77989377Y-55701202D01*
X77999321Y-55696564D01*
X78371701Y-55542319D01*
X78382015Y-55538566D01*
X78766400Y-55417370D01*
X78777010Y-55414527D01*
X79170505Y-55327291D01*
X79181309Y-55325385D01*
X79580906Y-55272778D01*
X79591854Y-55271820D01*
X79641724Y-55269643D01*
X79964307Y-55255559D01*
X79977346Y-55256556D01*
X79987831Y-55256556D01*
X80000000Y-55258976D01*
X80012847Y-55256421D01*
X80037425Y-55254000D01*
X119962575Y-55254000D01*
X119987153Y-55256421D01*
G37*
%TD.AperFunction*%
%TD*%
M02*
