%TF.GenerationSoftware,KiCad,Pcbnew,(6.0.0)*%
%TF.CreationDate,2022-06-11T23:43:57+12:00*%
%TF.ProjectId,Canmaster_HW,43616e6d-6173-4746-9572-5f48572e6b69,rev?*%
%TF.SameCoordinates,Original*%
%TF.FileFunction,Legend,Bot*%
%TF.FilePolarity,Positive*%
%FSLAX46Y46*%
G04 Gerber Fmt 4.6, Leading zero omitted, Abs format (unit mm)*
G04 Created by KiCad (PCBNEW (6.0.0)) date 2022-06-11 23:43:57*
%MOMM*%
%LPD*%
G01*
G04 APERTURE LIST*
%ADD10C,0.300000*%
%ADD11C,0.200000*%
G04 APERTURE END LIST*
D10*
X107557142Y-79371428D02*
X107080952Y-80704761D01*
X106604761Y-79371428D01*
X104795238Y-80704761D02*
X105938095Y-80704761D01*
X105366666Y-80704761D02*
X105366666Y-78704761D01*
X105557142Y-78990476D01*
X105747619Y-79180952D01*
X105938095Y-79276190D01*
X103938095Y-80514285D02*
X103842857Y-80609523D01*
X103938095Y-80704761D01*
X104033333Y-80609523D01*
X103938095Y-80514285D01*
X103938095Y-80704761D01*
X103080952Y-78895238D02*
X102985714Y-78800000D01*
X102795238Y-78704761D01*
X102319047Y-78704761D01*
X102128571Y-78800000D01*
X102033333Y-78895238D01*
X101938095Y-79085714D01*
X101938095Y-79276190D01*
X102033333Y-79561904D01*
X103176190Y-80704761D01*
X101938095Y-80704761D01*
X106880952Y-65414285D02*
X106976190Y-65509523D01*
X107261904Y-65604761D01*
X107452380Y-65604761D01*
X107738095Y-65509523D01*
X107928571Y-65319047D01*
X108023809Y-65128571D01*
X108119047Y-64747619D01*
X108119047Y-64461904D01*
X108023809Y-64080952D01*
X107928571Y-63890476D01*
X107738095Y-63700000D01*
X107452380Y-63604761D01*
X107261904Y-63604761D01*
X106976190Y-63700000D01*
X106880952Y-63795238D01*
X106119047Y-65033333D02*
X105166666Y-65033333D01*
X106309523Y-65604761D02*
X105642857Y-63604761D01*
X104976190Y-65604761D01*
X104309523Y-65604761D02*
X104309523Y-63604761D01*
X103166666Y-65604761D01*
X103166666Y-63604761D01*
X102214285Y-65604761D02*
X102214285Y-64271428D01*
X102214285Y-64461904D02*
X102119047Y-64366666D01*
X101928571Y-64271428D01*
X101642857Y-64271428D01*
X101452380Y-64366666D01*
X101357142Y-64557142D01*
X101357142Y-65604761D01*
X101357142Y-64557142D02*
X101261904Y-64366666D01*
X101071428Y-64271428D01*
X100785714Y-64271428D01*
X100595238Y-64366666D01*
X100500000Y-64557142D01*
X100500000Y-65604761D01*
X98690476Y-65604761D02*
X98690476Y-64557142D01*
X98785714Y-64366666D01*
X98976190Y-64271428D01*
X99357142Y-64271428D01*
X99547619Y-64366666D01*
X98690476Y-65509523D02*
X98880952Y-65604761D01*
X99357142Y-65604761D01*
X99547619Y-65509523D01*
X99642857Y-65319047D01*
X99642857Y-65128571D01*
X99547619Y-64938095D01*
X99357142Y-64842857D01*
X98880952Y-64842857D01*
X98690476Y-64747619D01*
X97833333Y-65509523D02*
X97642857Y-65604761D01*
X97261904Y-65604761D01*
X97071428Y-65509523D01*
X96976190Y-65319047D01*
X96976190Y-65223809D01*
X97071428Y-65033333D01*
X97261904Y-64938095D01*
X97547619Y-64938095D01*
X97738095Y-64842857D01*
X97833333Y-64652380D01*
X97833333Y-64557142D01*
X97738095Y-64366666D01*
X97547619Y-64271428D01*
X97261904Y-64271428D01*
X97071428Y-64366666D01*
X96404761Y-64271428D02*
X95642857Y-64271428D01*
X96119047Y-63604761D02*
X96119047Y-65319047D01*
X96023809Y-65509523D01*
X95833333Y-65604761D01*
X95642857Y-65604761D01*
X94214285Y-65509523D02*
X94404761Y-65604761D01*
X94785714Y-65604761D01*
X94976190Y-65509523D01*
X95071428Y-65319047D01*
X95071428Y-64557142D01*
X94976190Y-64366666D01*
X94785714Y-64271428D01*
X94404761Y-64271428D01*
X94214285Y-64366666D01*
X94119047Y-64557142D01*
X94119047Y-64747619D01*
X95071428Y-64938095D01*
X93261904Y-65604761D02*
X93261904Y-64271428D01*
X93261904Y-64652380D02*
X93166666Y-64461904D01*
X93071428Y-64366666D01*
X92880952Y-64271428D01*
X92690476Y-64271428D01*
D11*
X123450000Y-73335714D02*
X123521428Y-73407142D01*
X123735714Y-73478571D01*
X123878571Y-73478571D01*
X124092857Y-73407142D01*
X124235714Y-73264285D01*
X124307142Y-73121428D01*
X124378571Y-72835714D01*
X124378571Y-72621428D01*
X124307142Y-72335714D01*
X124235714Y-72192857D01*
X124092857Y-72050000D01*
X123878571Y-71978571D01*
X123735714Y-71978571D01*
X123521428Y-72050000D01*
X123450000Y-72121428D01*
X122878571Y-73050000D02*
X122164285Y-73050000D01*
X123021428Y-73478571D02*
X122521428Y-71978571D01*
X122021428Y-73478571D01*
X121521428Y-73478571D02*
X121521428Y-71978571D01*
X120664285Y-73478571D01*
X120664285Y-71978571D01*
X119950000Y-73478571D02*
X119950000Y-71978571D01*
X119950000Y-72692857D02*
X119092857Y-72692857D01*
X119092857Y-73478571D02*
X119092857Y-71978571D01*
X123071428Y-78135714D02*
X123142857Y-78207142D01*
X123357142Y-78278571D01*
X123500000Y-78278571D01*
X123714285Y-78207142D01*
X123857142Y-78064285D01*
X123928571Y-77921428D01*
X124000000Y-77635714D01*
X124000000Y-77421428D01*
X123928571Y-77135714D01*
X123857142Y-76992857D01*
X123714285Y-76850000D01*
X123500000Y-76778571D01*
X123357142Y-76778571D01*
X123142857Y-76850000D01*
X123071428Y-76921428D01*
X122500000Y-77850000D02*
X121785714Y-77850000D01*
X122642857Y-78278571D02*
X122142857Y-76778571D01*
X121642857Y-78278571D01*
X121142857Y-78278571D02*
X121142857Y-76778571D01*
X120285714Y-78278571D01*
X120285714Y-76778571D01*
X118857142Y-78278571D02*
X119571428Y-78278571D01*
X119571428Y-76778571D01*
X122642857Y-66750000D02*
X122785714Y-66678571D01*
X123000000Y-66678571D01*
X123214285Y-66750000D01*
X123357142Y-66892857D01*
X123428571Y-67035714D01*
X123500000Y-67321428D01*
X123500000Y-67535714D01*
X123428571Y-67821428D01*
X123357142Y-67964285D01*
X123214285Y-68107142D01*
X123000000Y-68178571D01*
X122857142Y-68178571D01*
X122642857Y-68107142D01*
X122571428Y-68035714D01*
X122571428Y-67535714D01*
X122857142Y-67535714D01*
X121928571Y-68178571D02*
X121928571Y-66678571D01*
X121071428Y-68178571D01*
X121071428Y-66678571D01*
X120357142Y-68178571D02*
X120357142Y-66678571D01*
X120000000Y-66678571D01*
X119785714Y-66750000D01*
X119642857Y-66892857D01*
X119571428Y-67035714D01*
X119500000Y-67321428D01*
X119500000Y-67535714D01*
X119571428Y-67821428D01*
X119642857Y-67964285D01*
X119785714Y-68107142D01*
X120000000Y-68178571D01*
X120357142Y-68178571D01*
%TO.C,REF\u002A\u002A*%
G36*
X106342006Y-72014246D02*
G01*
X106342203Y-72162796D01*
X106342283Y-72316908D01*
X106342321Y-72614478D01*
X106342438Y-73518611D01*
X106314709Y-73532969D01*
X106303996Y-73538736D01*
X106275462Y-73554643D01*
X106236068Y-73576943D01*
X106189822Y-73603345D01*
X106140728Y-73631561D01*
X106092792Y-73659300D01*
X106050020Y-73684273D01*
X106036561Y-73692159D01*
X105995999Y-73715749D01*
X105950731Y-73741890D01*
X105905185Y-73768044D01*
X105863788Y-73791674D01*
X105830967Y-73810240D01*
X105811151Y-73821204D01*
X105807605Y-73823051D01*
X105788411Y-73829440D01*
X105778022Y-73822997D01*
X105777970Y-73822910D01*
X105774199Y-73808373D01*
X105769414Y-73778175D01*
X105764223Y-73736681D01*
X105759236Y-73688256D01*
X105758162Y-73677341D01*
X105748785Y-73606608D01*
X105735225Y-73531123D01*
X105718444Y-73454422D01*
X105699406Y-73380041D01*
X105679072Y-73311518D01*
X105658406Y-73252389D01*
X105638370Y-73206190D01*
X105619926Y-73176459D01*
X105612181Y-73166086D01*
X105606352Y-73153374D01*
X105604941Y-73147777D01*
X105593571Y-73127118D01*
X105573805Y-73098659D01*
X105549277Y-73067178D01*
X105523623Y-73037448D01*
X105500477Y-73014247D01*
X105477088Y-72994731D01*
X105426093Y-72962669D01*
X105372372Y-72945465D01*
X105308893Y-72940410D01*
X105245331Y-72946827D01*
X105176587Y-72968967D01*
X105118428Y-73005096D01*
X105074709Y-73045151D01*
X105025477Y-73096352D01*
X104977923Y-73151066D01*
X104938313Y-73202427D01*
X104933121Y-73210014D01*
X104913298Y-73241798D01*
X104889690Y-73282690D01*
X104864280Y-73328896D01*
X104839048Y-73376617D01*
X104815974Y-73422059D01*
X104797040Y-73461425D01*
X104784227Y-73490917D01*
X104779516Y-73506741D01*
X104778775Y-73510268D01*
X104772021Y-73528452D01*
X104760510Y-73554717D01*
X104742153Y-73599531D01*
X104720455Y-73662069D01*
X104697523Y-73736123D01*
X104674563Y-73817416D01*
X104652779Y-73901673D01*
X104633377Y-73984621D01*
X104617560Y-74061985D01*
X104608218Y-74112464D01*
X104597163Y-74174066D01*
X104588831Y-74224264D01*
X104582523Y-74268066D01*
X104577539Y-74310480D01*
X104573179Y-74356513D01*
X104568741Y-74411172D01*
X104566098Y-74444183D01*
X104561919Y-74488276D01*
X104557610Y-74517983D01*
X104552340Y-74536964D01*
X104545279Y-74548877D01*
X104535600Y-74557381D01*
X104532338Y-74559641D01*
X104520315Y-74567396D01*
X104501791Y-74578689D01*
X104475189Y-74594435D01*
X104438931Y-74615551D01*
X104391440Y-74642951D01*
X104331138Y-74677552D01*
X104256448Y-74720268D01*
X104165792Y-74772015D01*
X104137426Y-74788240D01*
X104095832Y-74812180D01*
X104060808Y-74832507D01*
X104037839Y-74846050D01*
X104021832Y-74855470D01*
X103991469Y-74872950D01*
X103953698Y-74894454D01*
X103912673Y-74917644D01*
X103872545Y-74940182D01*
X103837469Y-74959729D01*
X103811596Y-74973946D01*
X103799079Y-74980495D01*
X103796353Y-74978519D01*
X103792755Y-74962359D01*
X103791346Y-74934855D01*
X103790802Y-74911292D01*
X103785164Y-74842286D01*
X103774278Y-74762338D01*
X103759222Y-74677179D01*
X103741071Y-74592541D01*
X103720905Y-74514157D01*
X103699799Y-74447757D01*
X103680296Y-74398372D01*
X103639801Y-74315264D01*
X103593807Y-74241102D01*
X103544349Y-74178648D01*
X103493467Y-74130662D01*
X103443196Y-74099908D01*
X103421850Y-74092861D01*
X103373417Y-74085055D01*
X103318942Y-74083417D01*
X103266827Y-74087990D01*
X103225471Y-74098815D01*
X103208806Y-74106485D01*
X103146375Y-74145503D01*
X103082102Y-74200404D01*
X103018913Y-74268455D01*
X102959736Y-74346924D01*
X102916917Y-74414166D01*
X102841994Y-74555057D01*
X102775390Y-74712797D01*
X102717468Y-74886231D01*
X102668594Y-75074204D01*
X102629130Y-75275562D01*
X102599441Y-75489150D01*
X102576999Y-75688582D01*
X102541358Y-75710120D01*
X102536219Y-75713199D01*
X102509936Y-75728678D01*
X102471803Y-75750907D01*
X102426112Y-75777388D01*
X102377154Y-75805627D01*
X102308978Y-75844867D01*
X102217844Y-75897364D01*
X102128546Y-75948849D01*
X102044997Y-75997064D01*
X101971110Y-76039751D01*
X101910798Y-76074654D01*
X101877555Y-76093960D01*
X101852166Y-76106777D01*
X101835134Y-76109552D01*
X101824257Y-76100294D01*
X101817333Y-76077015D01*
X101812161Y-76037723D01*
X101806538Y-75980429D01*
X101794780Y-75887543D01*
X101772074Y-75768030D01*
X101742095Y-75654021D01*
X101705970Y-75549134D01*
X101664827Y-75456987D01*
X101619794Y-75381199D01*
X101600628Y-75356047D01*
X101549934Y-75303653D01*
X101493939Y-75261678D01*
X101438165Y-75234578D01*
X101417251Y-75227690D01*
X101380860Y-75218017D01*
X101350951Y-75215909D01*
X101319131Y-75221355D01*
X101277005Y-75234342D01*
X101236807Y-75249096D01*
X101198338Y-75267738D01*
X101162987Y-75291657D01*
X101125600Y-75324410D01*
X101081022Y-75369553D01*
X101014732Y-75446657D01*
X100944226Y-75548850D01*
X100880527Y-75665706D01*
X100822082Y-75799804D01*
X100812611Y-75823905D01*
X100795309Y-75867765D01*
X100780465Y-75905192D01*
X100770522Y-75930012D01*
X100768249Y-75935886D01*
X100756867Y-75969798D01*
X100742387Y-76017977D01*
X100725989Y-76076144D01*
X100708857Y-76140022D01*
X100692174Y-76205335D01*
X100677122Y-76267805D01*
X100668135Y-76310733D01*
X100656541Y-76375179D01*
X100644482Y-76450118D01*
X100632711Y-76530383D01*
X100621981Y-76610809D01*
X100613044Y-76686230D01*
X100606652Y-76751481D01*
X100599961Y-76831822D01*
X100544502Y-76864132D01*
X100518094Y-76879515D01*
X100486197Y-76898089D01*
X100463835Y-76911103D01*
X100449248Y-76919509D01*
X100419438Y-76936572D01*
X100380715Y-76958669D01*
X100337793Y-76983105D01*
X100302549Y-77003208D01*
X100261380Y-77026840D01*
X100227768Y-77046300D01*
X100206709Y-77058706D01*
X100204250Y-77060186D01*
X100178839Y-77075283D01*
X100143775Y-77095907D01*
X100105876Y-77118049D01*
X100096263Y-77123603D01*
X100063689Y-77141794D01*
X100038960Y-77154643D01*
X100026814Y-77159657D01*
X100024406Y-77159014D01*
X100007434Y-77150936D01*
X99977732Y-77135042D01*
X99938640Y-77113151D01*
X99893494Y-77087078D01*
X99893349Y-77086994D01*
X99834496Y-77052647D01*
X99766554Y-77013177D01*
X99697925Y-76973454D01*
X99637004Y-76938349D01*
X99617364Y-76927064D01*
X99569851Y-76899744D01*
X99527982Y-76875642D01*
X99495705Y-76857032D01*
X99476970Y-76846189D01*
X99468862Y-76841240D01*
X99459004Y-76832690D01*
X99452472Y-76820104D01*
X99448162Y-76799456D01*
X99444970Y-76766722D01*
X99441793Y-76717876D01*
X99439654Y-76687546D01*
X99434239Y-76628921D01*
X99427647Y-76572678D01*
X99420854Y-76527702D01*
X99420654Y-76526592D01*
X99412713Y-76480483D01*
X99405410Y-76434661D01*
X99400302Y-76398889D01*
X99399516Y-76393103D01*
X99393230Y-76355863D01*
X99384059Y-76309528D01*
X99373697Y-76262763D01*
X99362136Y-76214802D01*
X99315431Y-76041513D01*
X99265006Y-75886216D01*
X99210196Y-75747349D01*
X99150336Y-75623348D01*
X99084763Y-75512651D01*
X99012812Y-75413694D01*
X98983157Y-75379116D01*
X98920953Y-75319015D01*
X98856386Y-75271406D01*
X98792057Y-75237789D01*
X98730568Y-75219665D01*
X98674519Y-75218536D01*
X98669025Y-75219415D01*
X98596805Y-75241734D01*
X98528902Y-75282649D01*
X98466697Y-75340886D01*
X98411573Y-75415168D01*
X98364913Y-75504220D01*
X98356828Y-75523525D01*
X98331538Y-75593633D01*
X98307020Y-75674852D01*
X98284404Y-75762213D01*
X98264819Y-75850747D01*
X98249392Y-75935485D01*
X98239254Y-76011459D01*
X98235533Y-76073700D01*
X98235064Y-76089548D01*
X98232280Y-76112487D01*
X98227849Y-76121430D01*
X98223678Y-76120241D01*
X98205453Y-76111449D01*
X98179953Y-76096938D01*
X98175563Y-76094309D01*
X98148265Y-76078256D01*
X98109127Y-76055523D01*
X98062710Y-76028751D01*
X98013577Y-76000584D01*
X98004287Y-75995272D01*
X97953138Y-75965935D01*
X97903922Y-75937570D01*
X97861835Y-75913178D01*
X97832077Y-75895763D01*
X97815089Y-75885774D01*
X97778131Y-75864189D01*
X97730905Y-75836717D01*
X97677711Y-75805858D01*
X97622847Y-75774111D01*
X97469075Y-75685253D01*
X97469075Y-75634156D01*
X97467899Y-75606554D01*
X97463565Y-75557967D01*
X97456601Y-75497038D01*
X97447599Y-75427890D01*
X97437153Y-75354647D01*
X97425854Y-75281431D01*
X97414296Y-75212365D01*
X97403070Y-75151573D01*
X97392769Y-75103176D01*
X97375069Y-75031190D01*
X97323707Y-74850578D01*
X97266557Y-74687233D01*
X97203832Y-74541625D01*
X97135750Y-74414221D01*
X97062524Y-74305490D01*
X96984371Y-74215898D01*
X96935690Y-74170468D01*
X96881574Y-74129109D01*
X96830135Y-74101879D01*
X96777500Y-74086820D01*
X96719799Y-74081971D01*
X96690874Y-74082257D01*
X96655402Y-74085657D01*
X96625586Y-74094420D01*
X96592560Y-74110536D01*
X96581657Y-74116856D01*
X96526701Y-74160134D01*
X96473575Y-74220174D01*
X96424223Y-74294140D01*
X96380588Y-74379195D01*
X96344613Y-74472501D01*
X96342189Y-74480045D01*
X96321200Y-74554549D01*
X96301275Y-74640175D01*
X96283892Y-74729413D01*
X96270529Y-74814752D01*
X96262667Y-74888682D01*
X96260984Y-74911500D01*
X96257923Y-74947818D01*
X96255288Y-74972850D01*
X96253510Y-74982176D01*
X96245129Y-74978067D01*
X96223141Y-74966017D01*
X96191749Y-74948356D01*
X96155100Y-74927435D01*
X96117339Y-74905607D01*
X96082612Y-74885224D01*
X96073482Y-74879842D01*
X96041107Y-74860983D01*
X96000501Y-74837535D01*
X95958313Y-74813343D01*
X95938160Y-74801814D01*
X95901865Y-74780956D01*
X95873346Y-74764447D01*
X95857479Y-74755101D01*
X95856507Y-74754514D01*
X95839758Y-74744687D01*
X95809907Y-74727396D01*
X95770873Y-74704904D01*
X95726575Y-74679476D01*
X95700702Y-74664637D01*
X95629687Y-74623714D01*
X95575120Y-74591920D01*
X95536109Y-74568733D01*
X95511764Y-74553633D01*
X95510075Y-74552291D01*
X95502747Y-74539157D01*
X95496211Y-74513077D01*
X95489989Y-74471648D01*
X95483601Y-74412466D01*
X95478795Y-74366024D01*
X95466246Y-74264583D01*
X95450960Y-74161196D01*
X95433564Y-74059014D01*
X95414687Y-73961185D01*
X95394955Y-73870858D01*
X95374997Y-73791182D01*
X95355440Y-73725306D01*
X95336910Y-73676380D01*
X95324320Y-73644889D01*
X95312945Y-73610838D01*
X95296634Y-73561749D01*
X95264894Y-73483398D01*
X95225143Y-73398467D01*
X95180064Y-73312286D01*
X95132343Y-73230188D01*
X95084665Y-73157504D01*
X95077158Y-73148631D01*
X95057271Y-73127319D01*
X95029129Y-73098287D01*
X94996199Y-73065151D01*
X94990032Y-73059043D01*
X94950545Y-73021893D01*
X94917479Y-72995682D01*
X94885149Y-72976376D01*
X94847868Y-72959942D01*
X94827798Y-72952328D01*
X94789535Y-72940621D01*
X94756319Y-72936255D01*
X94719236Y-72937689D01*
X94661234Y-72949480D01*
X94596376Y-72980425D01*
X94535839Y-73030112D01*
X94479147Y-73098948D01*
X94425824Y-73187336D01*
X94404516Y-73231965D01*
X94370338Y-73323111D01*
X94340112Y-73429437D01*
X94314548Y-73547911D01*
X94294354Y-73675500D01*
X94280242Y-73809173D01*
X94277690Y-73841132D01*
X94156689Y-73772170D01*
X94107785Y-73744305D01*
X94043447Y-73707661D01*
X93979605Y-73671314D01*
X93924772Y-73640109D01*
X93881167Y-73615052D01*
X93833152Y-73586952D01*
X93791137Y-73561858D01*
X93760917Y-73543197D01*
X93707980Y-73509385D01*
X93708101Y-72460869D01*
X96586028Y-72460869D01*
X96593506Y-72470503D01*
X96597040Y-72473405D01*
X96625204Y-72493178D01*
X96670926Y-72521837D01*
X96733860Y-72559172D01*
X96813657Y-72604969D01*
X96855823Y-72628879D01*
X96919863Y-72665194D01*
X96984448Y-72701821D01*
X97040532Y-72733631D01*
X97041475Y-72734166D01*
X97086262Y-72759816D01*
X97126653Y-72783377D01*
X97158251Y-72802258D01*
X97176658Y-72813867D01*
X97179053Y-72815465D01*
X97200171Y-72828481D01*
X97233931Y-72848400D01*
X97276206Y-72872811D01*
X97322867Y-72899300D01*
X97372738Y-72927522D01*
X97434458Y-72962742D01*
X97494421Y-72997223D01*
X97544701Y-73026423D01*
X97582370Y-73048086D01*
X97617659Y-73067575D01*
X97643363Y-73080861D01*
X97655618Y-73085873D01*
X97655946Y-73085869D01*
X97669734Y-73080492D01*
X97694884Y-73066968D01*
X97726201Y-73048078D01*
X97727719Y-73047121D01*
X97761044Y-73026746D01*
X97805945Y-73000099D01*
X97856729Y-72970527D01*
X97907702Y-72941377D01*
X97913366Y-72938170D01*
X97970809Y-72905496D01*
X98037035Y-72867618D01*
X98104292Y-72828977D01*
X98164828Y-72794017D01*
X98169936Y-72791057D01*
X98232227Y-72755036D01*
X98301191Y-72715261D01*
X98368793Y-72676364D01*
X98426995Y-72642973D01*
X98432000Y-72640106D01*
X98491384Y-72605971D01*
X98559376Y-72566705D01*
X98627971Y-72526940D01*
X98689163Y-72491308D01*
X98703474Y-72482955D01*
X98760302Y-72449879D01*
X98817641Y-72416634D01*
X98869523Y-72386676D01*
X98909976Y-72363461D01*
X98926908Y-72353781D01*
X98969935Y-72329061D01*
X99008995Y-72306467D01*
X99037306Y-72289917D01*
X99048889Y-72283109D01*
X99082869Y-72263331D01*
X99124727Y-72239135D01*
X99167951Y-72214292D01*
X99192042Y-72200473D01*
X99228622Y-72179423D01*
X99257088Y-72162959D01*
X99272744Y-72153791D01*
X99282230Y-72148129D01*
X99307159Y-72133333D01*
X99337224Y-72115554D01*
X99356393Y-72103555D01*
X99376938Y-72088507D01*
X99384915Y-72079360D01*
X99379415Y-72071281D01*
X99362227Y-72059581D01*
X99351753Y-72053952D01*
X99324130Y-72038385D01*
X99292841Y-72020150D01*
X99290176Y-72018571D01*
X99242619Y-71990663D01*
X99181603Y-71955245D01*
X99110986Y-71914541D01*
X99034623Y-71870775D01*
X98956372Y-71826168D01*
X98955380Y-71825604D01*
X98910607Y-71799911D01*
X98870231Y-71776317D01*
X98838646Y-71757415D01*
X98820246Y-71745800D01*
X98817865Y-71744211D01*
X98796756Y-71731214D01*
X98762993Y-71711325D01*
X98720710Y-71686953D01*
X98674038Y-71660510D01*
X98625659Y-71633207D01*
X98561167Y-71596544D01*
X98497126Y-71559895D01*
X98442120Y-71528161D01*
X98438477Y-71526052D01*
X98394910Y-71501809D01*
X98356448Y-71482060D01*
X98327141Y-71468789D01*
X98311036Y-71463978D01*
X98309723Y-71464058D01*
X98289975Y-71470174D01*
X98259855Y-71484089D01*
X98225328Y-71503079D01*
X98224195Y-71503751D01*
X98189026Y-71524332D01*
X98142446Y-71551221D01*
X98090388Y-71581010D01*
X98038786Y-71610286D01*
X98028965Y-71615839D01*
X97982894Y-71642128D01*
X97942057Y-71665797D01*
X97910577Y-71684439D01*
X97892577Y-71695648D01*
X97892342Y-71695806D01*
X97873604Y-71707508D01*
X97841781Y-71726456D01*
X97801266Y-71750065D01*
X97756451Y-71775751D01*
X97688699Y-71814367D01*
X97613412Y-71857486D01*
X97540860Y-71899236D01*
X97475987Y-71936772D01*
X97423737Y-71967249D01*
X97414145Y-71972857D01*
X97380600Y-71992313D01*
X97339068Y-72016256D01*
X97296371Y-72040750D01*
X97278453Y-72051017D01*
X97237336Y-72074684D01*
X97201337Y-72095542D01*
X97176658Y-72110005D01*
X97154524Y-72122960D01*
X97119439Y-72143269D01*
X97076465Y-72168007D01*
X97030449Y-72194377D01*
X96979206Y-72223725D01*
X96916380Y-72259793D01*
X96851804Y-72296937D01*
X96793490Y-72330552D01*
X96780062Y-72338301D01*
X96732070Y-72365954D01*
X96688532Y-72390980D01*
X96653782Y-72410889D01*
X96632156Y-72423192D01*
X96607293Y-72437783D01*
X96589793Y-72450978D01*
X96586028Y-72460869D01*
X93708101Y-72460869D01*
X93708117Y-72322378D01*
X93708143Y-72232444D01*
X93708258Y-72082084D01*
X93708456Y-71937892D01*
X93708732Y-71801141D01*
X93709079Y-71673104D01*
X93709492Y-71555053D01*
X93709965Y-71448261D01*
X93710491Y-71354000D01*
X93711066Y-71273543D01*
X93711682Y-71208162D01*
X93712335Y-71159130D01*
X93713017Y-71127720D01*
X93713724Y-71115205D01*
X93714372Y-71113447D01*
X93728514Y-71097358D01*
X93738718Y-71089762D01*
X94213958Y-71089762D01*
X94214005Y-71094233D01*
X94219039Y-71100496D01*
X94230617Y-71109590D01*
X94250296Y-71122556D01*
X94279635Y-71140436D01*
X94320190Y-71164268D01*
X94373520Y-71195093D01*
X94441181Y-71233952D01*
X94524732Y-71281885D01*
X94529475Y-71284608D01*
X94588877Y-71318776D01*
X94656939Y-71358016D01*
X94725625Y-71397693D01*
X94786900Y-71433169D01*
X94802788Y-71442376D01*
X94858313Y-71474471D01*
X94913196Y-71506090D01*
X94961841Y-71534010D01*
X94998651Y-71555011D01*
X95021247Y-71567922D01*
X95069771Y-71595991D01*
X95122971Y-71627089D01*
X95172827Y-71656542D01*
X95208614Y-71677452D01*
X95243523Y-71697006D01*
X95268936Y-71710276D01*
X95280985Y-71715165D01*
X95290928Y-71711289D01*
X95315022Y-71698862D01*
X95349050Y-71679915D01*
X95389143Y-71656542D01*
X95416833Y-71640140D01*
X95469585Y-71609172D01*
X95521087Y-71579238D01*
X95563319Y-71555011D01*
X95572749Y-71549650D01*
X95613683Y-71526243D01*
X95664779Y-71496880D01*
X95720441Y-71464782D01*
X95775070Y-71433169D01*
X95780185Y-71430203D01*
X95842476Y-71394154D01*
X95911438Y-71354340D01*
X95979037Y-71315395D01*
X96037237Y-71281954D01*
X96042002Y-71279221D01*
X96101402Y-71245077D01*
X96169458Y-71205853D01*
X96238137Y-71166183D01*
X96299405Y-71130703D01*
X96304539Y-71127725D01*
X96366828Y-71091667D01*
X96435785Y-71051852D01*
X96503377Y-71012912D01*
X96561572Y-70979483D01*
X96635331Y-70937193D01*
X96697857Y-70901312D01*
X96748387Y-70872264D01*
X96789734Y-70848425D01*
X96824709Y-70828170D01*
X96856125Y-70809874D01*
X96886795Y-70791910D01*
X96919532Y-70772655D01*
X96944050Y-70758259D01*
X96999282Y-70726033D01*
X97023179Y-70712174D01*
X97771576Y-70712174D01*
X97771964Y-70713520D01*
X97783359Y-70724735D01*
X97807358Y-70741613D01*
X97839639Y-70761053D01*
X97849140Y-70766419D01*
X97887501Y-70788282D01*
X97936255Y-70816269D01*
X97990123Y-70847345D01*
X98043827Y-70878473D01*
X98049025Y-70881493D01*
X98111307Y-70917605D01*
X98180246Y-70957461D01*
X98247818Y-70996428D01*
X98305995Y-71029870D01*
X98310759Y-71032603D01*
X98370159Y-71066747D01*
X98438215Y-71105971D01*
X98506894Y-71145640D01*
X98568162Y-71181120D01*
X98573315Y-71184109D01*
X98635601Y-71220150D01*
X98704553Y-71259923D01*
X98772140Y-71298803D01*
X98830330Y-71332162D01*
X98887633Y-71364944D01*
X98977632Y-71416511D01*
X99054542Y-71460688D01*
X99117473Y-71496960D01*
X99165536Y-71524814D01*
X99197841Y-71543739D01*
X99213498Y-71553219D01*
X99213965Y-71553520D01*
X99229283Y-71562725D01*
X99257936Y-71579451D01*
X99295998Y-71601419D01*
X99339540Y-71626352D01*
X99342422Y-71627996D01*
X99385909Y-71652871D01*
X99423835Y-71674676D01*
X99452208Y-71691110D01*
X99467041Y-71699874D01*
X99474739Y-71704479D01*
X99498688Y-71718453D01*
X99532628Y-71738043D01*
X99571877Y-71760540D01*
X99592515Y-71772346D01*
X99636036Y-71797330D01*
X99675094Y-71819857D01*
X99703160Y-71836165D01*
X99712554Y-71841649D01*
X99746078Y-71861077D01*
X99787593Y-71885005D01*
X99830242Y-71909475D01*
X99845133Y-71918014D01*
X99889999Y-71943896D01*
X99932362Y-71968533D01*
X99964709Y-71987561D01*
X99974331Y-71993256D01*
X100011027Y-72014720D01*
X100055123Y-72040257D01*
X100099092Y-72065502D01*
X100119249Y-72077030D01*
X100123307Y-72079360D01*
X100155543Y-72097869D01*
X100184059Y-72114348D01*
X100199925Y-72123657D01*
X100206608Y-72127590D01*
X100229748Y-72140971D01*
X100264958Y-72161200D01*
X100308831Y-72186322D01*
X100357960Y-72214381D01*
X100387976Y-72231517D01*
X100434303Y-72258025D01*
X100473301Y-72280413D01*
X100501569Y-72296727D01*
X100515711Y-72305015D01*
X100523347Y-72309552D01*
X100547238Y-72323469D01*
X100581118Y-72343036D01*
X100620299Y-72365542D01*
X100640738Y-72377266D01*
X100684193Y-72402278D01*
X100723209Y-72424837D01*
X100751248Y-72441167D01*
X100763696Y-72448443D01*
X100798017Y-72468369D01*
X100840133Y-72492704D01*
X100883619Y-72517734D01*
X100928235Y-72543388D01*
X100971853Y-72568632D01*
X101002194Y-72586540D01*
X101021645Y-72598604D01*
X101032593Y-72606319D01*
X101037424Y-72611178D01*
X101038523Y-72614674D01*
X101038483Y-72614898D01*
X101029130Y-72622887D01*
X101005713Y-72638313D01*
X100971609Y-72659047D01*
X100930191Y-72682962D01*
X100889090Y-72706239D01*
X100841910Y-72733148D01*
X100800743Y-72756820D01*
X100771378Y-72773939D01*
X100763854Y-72778375D01*
X100727574Y-72799569D01*
X100683767Y-72824947D01*
X100640294Y-72849950D01*
X100630967Y-72855297D01*
X100588289Y-72879849D01*
X100535611Y-72910249D01*
X100478745Y-72943139D01*
X100423502Y-72975163D01*
X100418348Y-72978154D01*
X100356062Y-73014232D01*
X100287110Y-73054066D01*
X100219524Y-73093021D01*
X100161334Y-73126463D01*
X100156548Y-73129208D01*
X100097150Y-73163356D01*
X100029099Y-73202588D01*
X99960428Y-73242268D01*
X99899167Y-73277764D01*
X99883212Y-73287017D01*
X99827702Y-73319094D01*
X99772838Y-73350644D01*
X99724212Y-73378455D01*
X99687416Y-73399320D01*
X99680805Y-73403048D01*
X99632633Y-73430592D01*
X99579279Y-73461589D01*
X99531124Y-73490015D01*
X99507226Y-73504197D01*
X99456305Y-73534088D01*
X99400982Y-73566248D01*
X99349623Y-73595801D01*
X99305516Y-73621055D01*
X99246433Y-73654971D01*
X99184800Y-73690423D01*
X99128500Y-73722882D01*
X99115122Y-73730583D01*
X99072405Y-73754834D01*
X99036981Y-73774440D01*
X99012222Y-73787557D01*
X99001500Y-73792338D01*
X98992161Y-73797672D01*
X98976323Y-73812743D01*
X98971552Y-73818411D01*
X98964917Y-73834390D01*
X98973760Y-73849116D01*
X98999837Y-73866611D01*
X99008141Y-73871370D01*
X99033282Y-73885774D01*
X99068132Y-73905741D01*
X99107794Y-73928464D01*
X99128268Y-73940212D01*
X99171650Y-73965216D01*
X99210545Y-73987765D01*
X99238439Y-74004089D01*
X99248126Y-74009784D01*
X99281586Y-74029242D01*
X99323062Y-74053165D01*
X99365769Y-74077633D01*
X99375087Y-74082960D01*
X99419172Y-74108305D01*
X99473098Y-74139466D01*
X99530892Y-74172987D01*
X99586582Y-74205413D01*
X99593208Y-74209277D01*
X99654871Y-74245030D01*
X99722323Y-74283844D01*
X99787843Y-74321287D01*
X99843708Y-74352929D01*
X99853500Y-74358454D01*
X99899463Y-74384799D01*
X99940054Y-74408701D01*
X99971182Y-74427722D01*
X99988756Y-74439421D01*
X100010706Y-74453481D01*
X100031970Y-74456114D01*
X100055736Y-74443984D01*
X100061576Y-74440190D01*
X100084513Y-74426230D01*
X100119576Y-74405463D01*
X100163183Y-74380001D01*
X100211751Y-74351960D01*
X100234460Y-74338915D01*
X100283577Y-74310671D01*
X100327457Y-74285399D01*
X100362016Y-74265454D01*
X100383168Y-74253190D01*
X100394372Y-74246668D01*
X100425541Y-74228591D01*
X100465132Y-74205685D01*
X100507254Y-74181360D01*
X100528611Y-74169033D01*
X100572198Y-74143845D01*
X100611282Y-74121225D01*
X100639378Y-74104923D01*
X100651158Y-74098092D01*
X100685457Y-74078316D01*
X100727575Y-74054129D01*
X100770958Y-74029298D01*
X100795251Y-74015391D01*
X100831822Y-73994343D01*
X100860230Y-73977853D01*
X100875794Y-73968631D01*
X100876777Y-73968030D01*
X100893459Y-73958198D01*
X100923250Y-73940911D01*
X100962245Y-73918427D01*
X101006538Y-73893006D01*
X101012281Y-73889716D01*
X101056163Y-73864535D01*
X101094293Y-73842578D01*
X101122752Y-73826106D01*
X101137621Y-73817381D01*
X101138112Y-73817085D01*
X101154079Y-73807720D01*
X101183289Y-73790794D01*
X101221748Y-73768617D01*
X101265463Y-73743496D01*
X101272459Y-73739481D01*
X101326074Y-73708649D01*
X101388777Y-73672511D01*
X101453333Y-73635239D01*
X101512505Y-73601009D01*
X101517583Y-73598068D01*
X101579877Y-73562048D01*
X101648850Y-73522253D01*
X101716461Y-73483318D01*
X101774673Y-73449876D01*
X101779513Y-73447099D01*
X101838908Y-73412941D01*
X101906944Y-73373689D01*
X101975596Y-73333978D01*
X102036840Y-73298444D01*
X102042052Y-73295414D01*
X102104332Y-73259290D01*
X102173268Y-73219423D01*
X102240835Y-73180449D01*
X102299008Y-73147003D01*
X102301133Y-73145784D01*
X102360481Y-73111685D01*
X102428672Y-73072417D01*
X102497448Y-73032742D01*
X102558548Y-72997420D01*
X102560122Y-72996508D01*
X102621978Y-72960701D01*
X102691642Y-72920382D01*
X102760694Y-72880424D01*
X102820715Y-72845700D01*
X102826092Y-72842589D01*
X102882221Y-72810123D01*
X102940768Y-72776257D01*
X102995109Y-72744825D01*
X103038618Y-72719658D01*
X103061557Y-72706421D01*
X103103440Y-72682399D01*
X103139791Y-72661724D01*
X103164660Y-72647789D01*
X103173091Y-72642802D01*
X103193362Y-72627091D01*
X103201469Y-72614478D01*
X103197617Y-72607158D01*
X103180294Y-72591576D01*
X103153756Y-72574232D01*
X103150018Y-72572099D01*
X103120628Y-72555246D01*
X103079606Y-72531635D01*
X103031871Y-72504099D01*
X102982339Y-72475472D01*
X102929113Y-72444710D01*
X102865568Y-72408044D01*
X102803421Y-72372238D01*
X102750698Y-72341919D01*
X102708214Y-72317469D01*
X102665905Y-72293016D01*
X102631393Y-72272961D01*
X102609531Y-72260115D01*
X102600795Y-72254950D01*
X102571267Y-72237728D01*
X102532948Y-72215580D01*
X102491879Y-72192001D01*
X102475186Y-72182437D01*
X102432206Y-72157698D01*
X102393149Y-72135075D01*
X102364817Y-72118500D01*
X102352940Y-72111530D01*
X102318847Y-72091765D01*
X102276868Y-72067635D01*
X102233486Y-72042874D01*
X102212474Y-72030911D01*
X102168875Y-72005983D01*
X102129801Y-71983516D01*
X102101764Y-71967249D01*
X102092369Y-71961765D01*
X102058845Y-71942337D01*
X102017330Y-71918410D01*
X101974682Y-71893939D01*
X101959790Y-71885401D01*
X101914924Y-71859519D01*
X101872561Y-71834882D01*
X101840215Y-71815853D01*
X101830592Y-71810158D01*
X101793897Y-71788694D01*
X101749801Y-71763157D01*
X101705832Y-71737913D01*
X101685680Y-71726385D01*
X101649384Y-71705529D01*
X101620865Y-71689020D01*
X101604998Y-71679674D01*
X101604500Y-71679372D01*
X101588544Y-71669978D01*
X101559352Y-71653015D01*
X101520912Y-71630796D01*
X101477214Y-71605631D01*
X101461965Y-71596859D01*
X101407761Y-71565613D01*
X101344973Y-71529346D01*
X101280212Y-71491880D01*
X101220088Y-71457034D01*
X101185903Y-71437261D01*
X101137851Y-71409677D01*
X101096603Y-71386247D01*
X101065697Y-71368975D01*
X101048670Y-71359866D01*
X101030420Y-71350053D01*
X101018420Y-71341677D01*
X101012695Y-71337551D01*
X100992244Y-71324964D01*
X100960903Y-71306601D01*
X100922628Y-71284809D01*
X100866042Y-71252955D01*
X100775817Y-71201923D01*
X100702348Y-71160014D01*
X100645871Y-71127364D01*
X100606622Y-71104107D01*
X100584836Y-71090381D01*
X100582447Y-71088787D01*
X100561332Y-71075780D01*
X100527571Y-71055874D01*
X100485292Y-71031480D01*
X100438627Y-71005012D01*
X100432875Y-71001774D01*
X100375437Y-70969248D01*
X100309234Y-70931482D01*
X100242008Y-70892906D01*
X100181501Y-70857947D01*
X100167457Y-70849798D01*
X100110549Y-70816832D01*
X100053077Y-70783614D01*
X100001039Y-70753607D01*
X99960436Y-70730275D01*
X99943229Y-70720408D01*
X99900095Y-70695599D01*
X99860903Y-70672962D01*
X99832438Y-70656412D01*
X99820274Y-70649310D01*
X99786008Y-70629396D01*
X99743957Y-70605035D01*
X99700585Y-70579975D01*
X99678019Y-70566947D01*
X99636522Y-70542953D01*
X99600719Y-70522204D01*
X99576499Y-70508111D01*
X99566291Y-70502155D01*
X99526960Y-70479318D01*
X99475562Y-70449585D01*
X99416115Y-70415272D01*
X99352638Y-70378694D01*
X99289148Y-70342169D01*
X99229665Y-70308011D01*
X99178206Y-70278537D01*
X99132841Y-70252548D01*
X99089790Y-70227785D01*
X99054559Y-70207421D01*
X99031997Y-70194249D01*
X98986101Y-70167383D01*
X98930422Y-70135744D01*
X98886373Y-70111945D01*
X98855767Y-70096955D01*
X98840413Y-70091743D01*
X98827997Y-70095708D01*
X98799086Y-70109566D01*
X98756009Y-70132569D01*
X98700328Y-70163879D01*
X98633604Y-70202660D01*
X98624026Y-70208275D01*
X98590538Y-70227730D01*
X98549050Y-70251671D01*
X98506375Y-70276161D01*
X98488457Y-70286428D01*
X98447340Y-70310095D01*
X98411341Y-70330953D01*
X98386662Y-70345415D01*
X98364528Y-70358371D01*
X98329443Y-70378680D01*
X98286469Y-70403418D01*
X98240453Y-70429788D01*
X98189210Y-70459136D01*
X98126384Y-70495204D01*
X98061808Y-70532348D01*
X98003494Y-70565963D01*
X97989406Y-70574095D01*
X97942025Y-70601432D01*
X97899550Y-70625921D01*
X97866168Y-70645150D01*
X97846062Y-70656704D01*
X97809067Y-70678409D01*
X97786109Y-70693498D01*
X97774677Y-70703960D01*
X97771576Y-70712174D01*
X97023179Y-70712174D01*
X97058031Y-70691961D01*
X97111116Y-70661375D01*
X97157698Y-70634656D01*
X97242106Y-70586216D01*
X97310734Y-70546790D01*
X97364749Y-70515709D01*
X97405318Y-70492299D01*
X97433607Y-70475889D01*
X97450782Y-70465808D01*
X97451741Y-70465239D01*
X97471962Y-70453434D01*
X97504975Y-70434342D01*
X97546423Y-70410480D01*
X97591949Y-70384359D01*
X97597636Y-70381101D01*
X97641502Y-70355920D01*
X97679614Y-70333956D01*
X97708053Y-70317473D01*
X97722902Y-70308734D01*
X97729200Y-70304985D01*
X97752198Y-70291595D01*
X97785334Y-70272492D01*
X97823736Y-70250493D01*
X97840324Y-70241002D01*
X97882678Y-70216653D01*
X97920798Y-70194587D01*
X97948035Y-70178648D01*
X97966248Y-70167960D01*
X98001386Y-70147537D01*
X98044223Y-70122778D01*
X98089202Y-70096902D01*
X98124128Y-70076834D01*
X98166594Y-70052365D01*
X98202081Y-70031844D01*
X98225328Y-70018307D01*
X98236595Y-70011720D01*
X98267798Y-69993593D01*
X98307427Y-69970666D01*
X98349596Y-69946346D01*
X98374682Y-69931883D01*
X98411335Y-69910675D01*
X98439818Y-69894101D01*
X98455472Y-69884868D01*
X98455960Y-69884573D01*
X98471915Y-69875212D01*
X98501117Y-69858295D01*
X98539572Y-69836128D01*
X98583287Y-69811019D01*
X98625855Y-69786520D01*
X98677212Y-69756764D01*
X98724001Y-69729461D01*
X98759746Y-69708378D01*
X98764599Y-69705508D01*
X98797490Y-69687089D01*
X98823944Y-69673955D01*
X98838618Y-69668789D01*
X98842650Y-69669137D01*
X98856524Y-69673910D01*
X98879369Y-69685341D01*
X98913859Y-69704832D01*
X98962668Y-69733783D01*
X98969051Y-69737547D01*
X98992091Y-69750899D01*
X99025261Y-69769977D01*
X99063707Y-69791985D01*
X99080536Y-69801624D01*
X99122942Y-69826122D01*
X99161071Y-69848412D01*
X99188289Y-69864628D01*
X99200859Y-69872145D01*
X99234370Y-69891704D01*
X99275942Y-69915573D01*
X99319373Y-69940176D01*
X99341138Y-69952456D01*
X99386949Y-69978541D01*
X99429070Y-70002803D01*
X99460540Y-70021244D01*
X99470159Y-70026947D01*
X99506855Y-70048437D01*
X99550953Y-70073993D01*
X99594923Y-70099245D01*
X99615075Y-70110773D01*
X99651371Y-70131629D01*
X99679890Y-70148138D01*
X99695757Y-70157484D01*
X99696735Y-70158075D01*
X99713495Y-70167904D01*
X99743356Y-70185195D01*
X99782401Y-70207684D01*
X99826710Y-70233109D01*
X99830503Y-70235282D01*
X99875858Y-70261311D01*
X99916777Y-70284877D01*
X99948903Y-70303463D01*
X99967877Y-70314557D01*
X99974828Y-70318661D01*
X99997205Y-70331703D01*
X100031257Y-70351398D01*
X100078151Y-70378415D01*
X100139052Y-70413428D01*
X100215127Y-70457107D01*
X100307543Y-70510124D01*
X100334171Y-70525436D01*
X100391377Y-70558519D01*
X100449423Y-70592287D01*
X100499127Y-70621405D01*
X100530552Y-70639890D01*
X100561253Y-70657875D01*
X100592581Y-70676125D01*
X100627350Y-70696265D01*
X100668373Y-70719921D01*
X100718461Y-70748717D01*
X100780428Y-70784279D01*
X100857086Y-70828232D01*
X100861875Y-70830978D01*
X100921273Y-70865114D01*
X100989323Y-70904336D01*
X101057993Y-70944010D01*
X101119254Y-70979502D01*
X101133353Y-70987683D01*
X101190222Y-71020628D01*
X101247618Y-71053806D01*
X101299556Y-71083759D01*
X101340048Y-71107030D01*
X101356941Y-71116715D01*
X101400104Y-71141516D01*
X101439415Y-71164170D01*
X101468046Y-71180747D01*
X101480248Y-71187834D01*
X101514622Y-71207749D01*
X101556758Y-71232116D01*
X101600170Y-71257183D01*
X101622729Y-71270209D01*
X101664228Y-71294225D01*
X101700034Y-71315009D01*
X101724256Y-71329144D01*
X101742678Y-71339881D01*
X101779526Y-71361201D01*
X101830162Y-71390400D01*
X101892539Y-71426300D01*
X101964611Y-71467724D01*
X102044331Y-71513493D01*
X102129652Y-71562431D01*
X102172107Y-71586826D01*
X102214428Y-71611253D01*
X102248950Y-71631292D01*
X102270819Y-71644133D01*
X102279555Y-71649299D01*
X102309083Y-71666520D01*
X102347402Y-71688669D01*
X102388471Y-71712247D01*
X102405143Y-71721798D01*
X102448163Y-71746541D01*
X102487286Y-71769169D01*
X102515700Y-71785749D01*
X102522309Y-71789622D01*
X102555026Y-71808533D01*
X102596018Y-71831964D01*
X102637988Y-71855736D01*
X102647598Y-71861173D01*
X102691874Y-71886687D01*
X102734664Y-71911973D01*
X102767884Y-71932267D01*
X102780151Y-71939856D01*
X102817495Y-71962163D01*
X102862190Y-71988118D01*
X102907061Y-72013530D01*
X102922657Y-72022233D01*
X102961224Y-72043813D01*
X102994562Y-72062611D01*
X103027198Y-72081220D01*
X103063660Y-72102229D01*
X103108477Y-72128232D01*
X103166177Y-72161819D01*
X103209448Y-72186886D01*
X103266777Y-72219856D01*
X103327149Y-72254380D01*
X103382970Y-72286104D01*
X103391135Y-72290733D01*
X103438571Y-72317946D01*
X103481881Y-72343281D01*
X103516571Y-72364087D01*
X103538148Y-72377711D01*
X103559390Y-72391253D01*
X103580715Y-72399076D01*
X103601404Y-72395000D01*
X103630012Y-72379160D01*
X103635938Y-72375577D01*
X103662618Y-72359785D01*
X103701061Y-72337309D01*
X103747056Y-72310605D01*
X103796388Y-72282132D01*
X103814389Y-72271770D01*
X103862980Y-72243777D01*
X103906711Y-72218548D01*
X103941375Y-72198513D01*
X103962763Y-72186100D01*
X103973967Y-72179578D01*
X104005136Y-72161501D01*
X104044727Y-72138595D01*
X104086849Y-72114270D01*
X104108206Y-72101943D01*
X104151793Y-72076755D01*
X104190877Y-72054135D01*
X104218973Y-72037833D01*
X104228720Y-72032179D01*
X104262466Y-72012717D01*
X104304162Y-71988775D01*
X104346971Y-71964283D01*
X104362495Y-71955404D01*
X104407457Y-71929547D01*
X104449796Y-71905020D01*
X104482057Y-71886138D01*
X104506161Y-71872095D01*
X104549428Y-71847467D01*
X104590453Y-71824678D01*
X104616577Y-71808866D01*
X104639817Y-71790366D01*
X104648432Y-71776579D01*
X104645286Y-71770048D01*
X104626159Y-71752974D01*
X104590910Y-71729231D01*
X104540963Y-71699837D01*
X104500548Y-71677079D01*
X104454511Y-71650973D01*
X104414854Y-71628299D01*
X104387192Y-71612255D01*
X104377398Y-71606508D01*
X104342426Y-71586160D01*
X104299747Y-71561496D01*
X104256468Y-71536630D01*
X104239795Y-71527072D01*
X104196750Y-71502309D01*
X104157579Y-71479665D01*
X104129102Y-71463081D01*
X104116595Y-71455764D01*
X104082278Y-71435790D01*
X104040187Y-71411382D01*
X103996731Y-71386258D01*
X103977653Y-71375244D01*
X103906568Y-71334179D01*
X103821939Y-71285255D01*
X103726734Y-71230189D01*
X103623920Y-71170697D01*
X103516467Y-71108496D01*
X103514219Y-71107194D01*
X103454196Y-71072498D01*
X104336677Y-71072498D01*
X104339835Y-71130126D01*
X104357104Y-71182882D01*
X104367302Y-71200660D01*
X104410349Y-71252856D01*
X104469605Y-71301733D01*
X104542121Y-71345672D01*
X104624952Y-71383053D01*
X104715149Y-71412257D01*
X104809766Y-71431663D01*
X104901273Y-71442200D01*
X105038419Y-71447948D01*
X105171793Y-71441898D01*
X105297021Y-71424314D01*
X105409726Y-71395461D01*
X105455222Y-71379279D01*
X105543239Y-71339146D01*
X105615422Y-71293302D01*
X105671259Y-71242857D01*
X105710241Y-71188923D01*
X105731859Y-71132611D01*
X105735601Y-71075032D01*
X105720959Y-71017296D01*
X105687421Y-70960516D01*
X105634478Y-70905802D01*
X105625557Y-70898379D01*
X105564650Y-70855050D01*
X105496129Y-70819010D01*
X105417539Y-70789464D01*
X105326422Y-70765617D01*
X105220325Y-70746676D01*
X105096791Y-70731845D01*
X105058338Y-70730005D01*
X104994831Y-70731599D01*
X104921133Y-70737314D01*
X104842551Y-70746710D01*
X104764391Y-70759348D01*
X104758198Y-70760524D01*
X104670454Y-70783166D01*
X104586588Y-70815356D01*
X104509858Y-70855170D01*
X104443521Y-70900685D01*
X104390836Y-70949975D01*
X104355060Y-71001117D01*
X104347721Y-71018097D01*
X104336677Y-71072498D01*
X103454196Y-71072498D01*
X103452641Y-71071599D01*
X103383728Y-71031847D01*
X103315737Y-70992698D01*
X103256928Y-70958913D01*
X103252089Y-70956136D01*
X103192694Y-70921975D01*
X103124657Y-70882720D01*
X103056005Y-70843007D01*
X102994760Y-70807472D01*
X102989548Y-70804442D01*
X102927268Y-70768318D01*
X102858332Y-70728454D01*
X102790766Y-70689482D01*
X102732593Y-70656040D01*
X102727878Y-70653336D01*
X102668475Y-70619200D01*
X102600405Y-70579993D01*
X102531709Y-70540351D01*
X102470425Y-70504907D01*
X102461943Y-70499994D01*
X102401469Y-70465023D01*
X102336726Y-70427654D01*
X102274952Y-70392062D01*
X102223383Y-70362420D01*
X102220417Y-70360719D01*
X102176926Y-70335720D01*
X102138954Y-70313818D01*
X102110494Y-70297320D01*
X102095541Y-70288535D01*
X102094550Y-70287940D01*
X102077752Y-70278113D01*
X102047858Y-70260825D01*
X102008787Y-70238337D01*
X101964457Y-70212910D01*
X101958668Y-70209593D01*
X101914832Y-70184420D01*
X101876790Y-70162472D01*
X101848449Y-70146007D01*
X101833714Y-70137284D01*
X101826016Y-70132679D01*
X101802067Y-70118705D01*
X101768127Y-70099115D01*
X101728878Y-70076618D01*
X101708274Y-70064836D01*
X101664681Y-70039844D01*
X101625505Y-70017308D01*
X101597298Y-70000993D01*
X101585096Y-69993905D01*
X101550722Y-69973990D01*
X101508586Y-69949623D01*
X101465174Y-69924556D01*
X101442615Y-69911530D01*
X101401116Y-69887514D01*
X101365310Y-69866730D01*
X101341088Y-69852594D01*
X101326480Y-69844069D01*
X101294046Y-69825275D01*
X101253385Y-69801812D01*
X101210004Y-69776861D01*
X101195132Y-69768319D01*
X101128875Y-69730187D01*
X101048704Y-69683946D01*
X100953741Y-69629088D01*
X100843106Y-69565105D01*
X100715919Y-69491489D01*
X100693184Y-69478329D01*
X100643901Y-69449832D01*
X100599707Y-69424314D01*
X100564722Y-69404154D01*
X100543066Y-69391727D01*
X100531371Y-69385039D01*
X100499546Y-69366763D01*
X100459446Y-69343677D01*
X100417024Y-69319206D01*
X100374609Y-69294731D01*
X100319775Y-69263118D01*
X100261424Y-69229500D01*
X100206709Y-69197999D01*
X100196342Y-69192028D01*
X100150436Y-69165458D01*
X100109769Y-69141726D01*
X100078428Y-69123225D01*
X100060501Y-69112350D01*
X100045397Y-69103107D01*
X100015056Y-69085282D01*
X99981275Y-69066012D01*
X99927257Y-69035692D01*
X99971191Y-69009950D01*
X99986473Y-69001054D01*
X100021962Y-68980576D01*
X100065049Y-68955859D01*
X100109556Y-68930453D01*
X100137886Y-68914281D01*
X100179495Y-68890374D01*
X100214531Y-68870068D01*
X100237509Y-68856531D01*
X100250733Y-68848699D01*
X100282167Y-68830413D01*
X100322066Y-68807439D01*
X100364912Y-68782965D01*
X100391738Y-68767649D01*
X100435138Y-68742654D01*
X100472925Y-68720644D01*
X100499127Y-68705085D01*
X100503370Y-68702528D01*
X100534338Y-68684406D01*
X100574080Y-68661727D01*
X100615086Y-68638788D01*
X100621694Y-68635122D01*
X100669866Y-68607938D01*
X100723222Y-68577234D01*
X100771378Y-68548976D01*
X100772849Y-68548101D01*
X100814017Y-68523724D01*
X100865848Y-68493188D01*
X100921858Y-68460306D01*
X100975566Y-68428889D01*
X100992199Y-68419107D01*
X101034275Y-68393637D01*
X101068198Y-68372048D01*
X101090844Y-68356371D01*
X101099087Y-68348636D01*
X101093628Y-68340606D01*
X101076400Y-68329113D01*
X101063643Y-68322351D01*
X101035342Y-68306453D01*
X101003295Y-68287750D01*
X100993056Y-68281690D01*
X100956237Y-68260159D01*
X100912053Y-68234580D01*
X100867939Y-68209264D01*
X100850757Y-68199441D01*
X100807673Y-68174698D01*
X100768576Y-68152105D01*
X100740238Y-68135570D01*
X100728636Y-68128766D01*
X100694607Y-68108988D01*
X100652709Y-68084790D01*
X100609466Y-68059945D01*
X100586553Y-68046809D01*
X100547452Y-68024349D01*
X100515216Y-68005777D01*
X100495166Y-67994157D01*
X100490695Y-67991546D01*
X100465893Y-67977104D01*
X100431402Y-67957055D01*
X100393252Y-67934904D01*
X100383560Y-67929279D01*
X100342566Y-67905478D01*
X100291429Y-67875776D01*
X100235725Y-67843413D01*
X100181033Y-67811628D01*
X100154313Y-67796323D01*
X100108233Y-67771021D01*
X100068947Y-67750821D01*
X100039951Y-67737487D01*
X100024741Y-67732783D01*
X100023460Y-67732883D01*
X100003937Y-67739144D01*
X99973972Y-67753133D01*
X99939500Y-67772111D01*
X99938010Y-67772992D01*
X99902791Y-67793685D01*
X99856292Y-67820829D01*
X99804389Y-67850999D01*
X99752958Y-67880775D01*
X99747477Y-67883940D01*
X99690023Y-67917135D01*
X99623748Y-67955440D01*
X99556426Y-67994362D01*
X99495832Y-68029408D01*
X99482835Y-68036926D01*
X99425253Y-68070216D01*
X99366493Y-68104162D01*
X99312765Y-68135178D01*
X99270280Y-68159677D01*
X99248241Y-68172387D01*
X99204672Y-68197577D01*
X99165756Y-68220156D01*
X99137909Y-68236404D01*
X99128318Y-68242011D01*
X99094773Y-68261467D01*
X99053240Y-68285411D01*
X99010543Y-68309905D01*
X98992625Y-68320171D01*
X98951508Y-68343838D01*
X98915509Y-68364697D01*
X98890830Y-68379159D01*
X98868696Y-68392115D01*
X98833612Y-68412423D01*
X98790637Y-68437162D01*
X98744621Y-68463531D01*
X98727704Y-68473210D01*
X98672967Y-68504594D01*
X98611618Y-68539847D01*
X98547675Y-68576655D01*
X98485156Y-68612701D01*
X98428080Y-68645669D01*
X98380464Y-68673242D01*
X98346328Y-68693105D01*
X98335126Y-68699634D01*
X98303957Y-68717724D01*
X98264365Y-68740639D01*
X98222242Y-68764969D01*
X98200856Y-68777317D01*
X98157334Y-68802497D01*
X98118357Y-68825109D01*
X98090389Y-68841406D01*
X98080564Y-68847131D01*
X98046886Y-68866579D01*
X98005227Y-68890473D01*
X97962391Y-68914905D01*
X97941195Y-68926996D01*
X97905230Y-68947702D01*
X97877364Y-68963990D01*
X97862327Y-68973110D01*
X97860147Y-68974495D01*
X97840892Y-68986041D01*
X97806588Y-69006131D01*
X97759231Y-69033613D01*
X97700815Y-69067334D01*
X97633335Y-69106142D01*
X97558784Y-69148886D01*
X97479159Y-69194413D01*
X97425265Y-69225273D01*
X97356676Y-69264711D01*
X97287635Y-69304549D01*
X97227075Y-69339641D01*
X97091053Y-69418571D01*
X96952785Y-69498559D01*
X96819626Y-69575354D01*
X96697698Y-69645417D01*
X96693883Y-69647604D01*
X96632503Y-69682875D01*
X96562600Y-69723150D01*
X96492489Y-69763632D01*
X96430489Y-69799524D01*
X96415618Y-69808146D01*
X96359332Y-69840728D01*
X96303040Y-69873247D01*
X96252557Y-69902347D01*
X96213696Y-69924672D01*
X96200462Y-69932261D01*
X96158549Y-69956405D01*
X96120321Y-69978572D01*
X96092696Y-69994755D01*
X96074483Y-70005442D01*
X96039345Y-70025866D01*
X95996508Y-70050625D01*
X95951529Y-70076501D01*
X95916604Y-70096569D01*
X95874137Y-70121037D01*
X95838650Y-70141559D01*
X95815403Y-70155095D01*
X95803966Y-70161774D01*
X95772679Y-70179897D01*
X95732962Y-70202787D01*
X95690685Y-70227057D01*
X95668748Y-70239640D01*
X95625143Y-70264737D01*
X95586188Y-70287260D01*
X95558314Y-70303494D01*
X95548722Y-70309101D01*
X95515177Y-70328557D01*
X95473645Y-70352501D01*
X95430948Y-70376995D01*
X95412706Y-70387448D01*
X95372115Y-70410822D01*
X95336965Y-70431208D01*
X95313296Y-70445109D01*
X95293188Y-70456931D01*
X95259313Y-70476625D01*
X95217342Y-70500889D01*
X95172129Y-70526913D01*
X95161946Y-70532762D01*
X95062882Y-70589748D01*
X94948684Y-70655585D01*
X94821401Y-70729090D01*
X94683081Y-70809081D01*
X94680001Y-70810863D01*
X94619069Y-70846013D01*
X94551585Y-70884785D01*
X94485543Y-70922595D01*
X94428940Y-70954855D01*
X94382246Y-70981535D01*
X94322183Y-71016579D01*
X94276990Y-71044081D01*
X94244842Y-71065164D01*
X94223915Y-71080950D01*
X94222594Y-71082033D01*
X94217340Y-71086042D01*
X94213958Y-71089762D01*
X93738718Y-71089762D01*
X93757129Y-71076057D01*
X93796774Y-71052158D01*
X93806269Y-71046899D01*
X93847923Y-71023598D01*
X93886498Y-71001704D01*
X93914689Y-70985355D01*
X93932899Y-70974656D01*
X93968037Y-70954219D01*
X94010876Y-70929451D01*
X94055856Y-70903571D01*
X94090781Y-70883503D01*
X94133247Y-70859035D01*
X94168734Y-70838513D01*
X94191981Y-70824977D01*
X94203248Y-70818389D01*
X94234452Y-70800263D01*
X94274081Y-70777335D01*
X94316250Y-70753015D01*
X94341335Y-70738552D01*
X94377989Y-70717344D01*
X94406471Y-70700771D01*
X94422125Y-70691537D01*
X94422602Y-70691249D01*
X94438543Y-70681912D01*
X94467745Y-70665033D01*
X94506211Y-70642917D01*
X94549941Y-70617868D01*
X94595451Y-70591796D01*
X94637933Y-70567365D01*
X94672395Y-70547453D01*
X94694088Y-70534795D01*
X94714185Y-70523050D01*
X94748061Y-70503431D01*
X94790036Y-70479234D01*
X94835255Y-70453261D01*
X94842081Y-70449347D01*
X94960495Y-70381307D01*
X95087213Y-70308256D01*
X95213696Y-70235125D01*
X95331402Y-70166844D01*
X95385279Y-70135602D01*
X95453872Y-70095964D01*
X95522920Y-70056184D01*
X95583486Y-70021417D01*
X95588328Y-70018644D01*
X95647723Y-69984532D01*
X95715758Y-69945321D01*
X95784410Y-69905642D01*
X95845653Y-69870125D01*
X95857825Y-69863053D01*
X95916074Y-69829303D01*
X95976169Y-69794605D01*
X96031688Y-69762664D01*
X96076210Y-69737181D01*
X96104541Y-69720996D01*
X96146194Y-69697067D01*
X96181302Y-69676743D01*
X96204368Y-69663200D01*
X96210191Y-69659750D01*
X96238775Y-69643172D01*
X96276447Y-69621658D01*
X96316646Y-69598962D01*
X96322856Y-69595470D01*
X96372503Y-69567153D01*
X96427083Y-69535500D01*
X96475864Y-69506730D01*
X96495284Y-69495193D01*
X96546114Y-69465323D01*
X96601441Y-69433146D01*
X96652323Y-69403875D01*
X96660897Y-69398974D01*
X96708939Y-69371413D01*
X96766503Y-69338260D01*
X96827100Y-69303259D01*
X96884240Y-69270150D01*
X96951479Y-69231138D01*
X97044419Y-69177312D01*
X97136594Y-69124063D01*
X97234101Y-69067870D01*
X97343033Y-69005212D01*
X97361847Y-68994395D01*
X97409615Y-68966898D01*
X97451976Y-68942470D01*
X97484902Y-68923434D01*
X97504367Y-68912116D01*
X97520295Y-68902843D01*
X97551848Y-68884599D01*
X97591891Y-68861525D01*
X97635451Y-68836491D01*
X97670379Y-68816418D01*
X97712844Y-68791947D01*
X97748330Y-68771424D01*
X97771576Y-68757887D01*
X97781166Y-68752269D01*
X97807057Y-68737193D01*
X97842762Y-68716502D01*
X97889816Y-68689309D01*
X97949752Y-68654729D01*
X98024106Y-68611874D01*
X98114411Y-68559859D01*
X98117466Y-68558100D01*
X98180614Y-68521717D01*
X98251774Y-68480691D01*
X98322449Y-68439923D01*
X98384141Y-68404312D01*
X98385792Y-68403359D01*
X98447673Y-68367633D01*
X98517327Y-68327439D01*
X98586343Y-68287628D01*
X98646308Y-68253053D01*
X98703222Y-68220195D01*
X98772040Y-68180368D01*
X98840850Y-68140465D01*
X98900913Y-68105548D01*
X98901394Y-68105268D01*
X98958229Y-68072262D01*
X99019835Y-68036635D01*
X99078819Y-68002656D01*
X99127789Y-67974591D01*
X99162589Y-67954672D01*
X99205105Y-67930189D01*
X99240639Y-67909567D01*
X99263915Y-67895858D01*
X99268169Y-67893324D01*
X99293795Y-67878330D01*
X99331424Y-67856553D01*
X99376696Y-67830511D01*
X99425248Y-67802721D01*
X99481897Y-67770273D01*
X99543718Y-67734685D01*
X99602951Y-67700431D01*
X99652124Y-67671824D01*
X99705813Y-67640537D01*
X99776022Y-67599910D01*
X99841721Y-67562207D01*
X99900761Y-67528640D01*
X99950995Y-67500422D01*
X99990274Y-67478765D01*
X100016451Y-67464882D01*
X100027378Y-67459984D01*
X100029631Y-67460740D01*
X100037281Y-67464525D01*
X100051478Y-67472199D01*
X100073586Y-67484536D01*
X100104968Y-67502315D01*
X100146988Y-67526312D01*
X100201008Y-67557304D01*
X100268394Y-67596067D01*
X100350506Y-67643378D01*
X100448710Y-67700013D01*
X100449110Y-67700244D01*
X100510483Y-67735636D01*
X100580652Y-67776079D01*
X100650998Y-67816605D01*
X100712898Y-67852248D01*
X100740249Y-67867993D01*
X100803217Y-67904260D01*
X100869799Y-67942636D01*
X100942764Y-67984717D01*
X101024882Y-68032101D01*
X101118921Y-68086386D01*
X101227650Y-68149167D01*
X101277540Y-68177975D01*
X101376121Y-68234889D01*
X101485393Y-68297965D01*
X101601042Y-68364714D01*
X101718754Y-68432645D01*
X101834217Y-68499270D01*
X101943117Y-68562099D01*
X101962512Y-68573307D01*
X102011827Y-68601968D01*
X102056447Y-68628115D01*
X102092104Y-68649242D01*
X102114534Y-68662843D01*
X102124003Y-68668635D01*
X102155830Y-68687346D01*
X102196148Y-68710390D01*
X102238508Y-68734061D01*
X102256261Y-68743901D01*
X102299045Y-68767933D01*
X102337345Y-68789847D01*
X102364550Y-68805874D01*
X102378920Y-68814475D01*
X102412938Y-68834420D01*
X102454877Y-68858683D01*
X102498765Y-68883798D01*
X102526516Y-68899627D01*
X102568087Y-68923496D01*
X102603144Y-68943803D01*
X102626168Y-68957364D01*
X102639676Y-68965366D01*
X102671211Y-68983729D01*
X102711187Y-69006779D01*
X102754120Y-69031346D01*
X102762797Y-69036296D01*
X102810348Y-69063541D01*
X102867462Y-69096405D01*
X102927713Y-69131187D01*
X102984677Y-69164184D01*
X102988679Y-69166507D01*
X103051525Y-69202900D01*
X103121883Y-69243517D01*
X103191441Y-69283566D01*
X103251886Y-69318255D01*
X103311996Y-69352768D01*
X103380973Y-69392535D01*
X103449488Y-69432173D01*
X103509012Y-69466754D01*
X103556704Y-69494502D01*
X103639123Y-69542313D01*
X103733764Y-69597080D01*
X103837486Y-69656992D01*
X103947151Y-69720235D01*
X104059616Y-69784999D01*
X104171742Y-69849471D01*
X104280389Y-69911839D01*
X104283350Y-69913537D01*
X104326841Y-69938528D01*
X104364809Y-69960424D01*
X104393261Y-69976918D01*
X104408205Y-69985701D01*
X104416278Y-69990492D01*
X104440525Y-70004647D01*
X104474679Y-70024444D01*
X104514080Y-70047179D01*
X104536791Y-70060268D01*
X104578321Y-70084260D01*
X104614135Y-70105020D01*
X104638349Y-70119141D01*
X104655463Y-70129120D01*
X104688791Y-70148414D01*
X104730215Y-70172302D01*
X104774474Y-70197745D01*
X104809909Y-70218105D01*
X104850999Y-70241770D01*
X104884540Y-70261149D01*
X104905558Y-70273371D01*
X104919154Y-70281293D01*
X104949740Y-70298993D01*
X104988953Y-70321603D01*
X105031600Y-70346124D01*
X105096073Y-70383204D01*
X105181168Y-70432265D01*
X105282102Y-70490558D01*
X105398055Y-70557609D01*
X105528206Y-70632946D01*
X105548551Y-70644723D01*
X105597581Y-70673079D01*
X105641711Y-70698562D01*
X105676757Y-70718760D01*
X105698538Y-70731258D01*
X105710242Y-70737954D01*
X105742067Y-70756238D01*
X105782164Y-70779337D01*
X105824581Y-70803825D01*
X105858142Y-70823169D01*
X105912798Y-70854539D01*
X105971027Y-70887844D01*
X106024812Y-70918493D01*
X106025814Y-70919063D01*
X106070584Y-70944744D01*
X106110957Y-70968308D01*
X106142539Y-70987167D01*
X106160937Y-70998730D01*
X106163038Y-71000136D01*
X106186090Y-71014396D01*
X106219476Y-71033910D01*
X106256729Y-71054886D01*
X106265039Y-71059518D01*
X106291512Y-71075032D01*
X106297998Y-71078833D01*
X106322841Y-71094865D01*
X106334721Y-71104528D01*
X106335363Y-71109948D01*
X106336292Y-71134055D01*
X106337184Y-71176238D01*
X106338029Y-71235245D01*
X106338821Y-71309824D01*
X106339551Y-71398724D01*
X106340212Y-71500694D01*
X106340796Y-71614482D01*
X106341294Y-71738838D01*
X106341409Y-71776579D01*
X106341700Y-71872510D01*
X106342006Y-72014246D01*
G37*
%TD*%
M02*
